G04 #@! TF.GenerationSoftware,KiCad,Pcbnew,(5.1.5-0-10_14)*
G04 #@! TF.CreationDate,2020-04-10T20:26:08+03:00*
G04 #@! TF.ProjectId,connector-breakout-a1,636f6e6e-6563-4746-9f72-2d627265616b,rev?*
G04 #@! TF.SameCoordinates,Original*
G04 #@! TF.FileFunction,Copper,L1,Top*
G04 #@! TF.FilePolarity,Positive*
%FSLAX46Y46*%
G04 Gerber Fmt 4.6, Leading zero omitted, Abs format (unit mm)*
G04 Created by KiCad (PCBNEW (5.1.5-0-10_14)) date 2020-04-10 20:26:08*
%MOMM*%
%LPD*%
G04 APERTURE LIST*
%ADD10C,0.010000*%
%ADD11C,0.100000*%
%ADD12C,5.500000*%
%ADD13C,0.700000*%
%ADD14C,0.600000*%
%ADD15C,0.250000*%
G04 APERTURE END LIST*
D10*
X100749999Y-110990000D02*
X83250001Y-110990000D01*
X83250001Y-110990000D02*
X83250000Y-70990000D01*
X100750001Y-70990000D02*
X100749999Y-110990000D01*
X83250000Y-70990000D02*
X100750000Y-70990000D01*
G04 #@! TA.AperFunction,ComponentPad*
D11*
G36*
X86269603Y-99080963D02*
G01*
X86289018Y-99083843D01*
X86308057Y-99088612D01*
X86326537Y-99095224D01*
X86344279Y-99103616D01*
X86361114Y-99113706D01*
X86376879Y-99125398D01*
X86391421Y-99138579D01*
X86404602Y-99153121D01*
X86416294Y-99168886D01*
X86426384Y-99185721D01*
X86434776Y-99203463D01*
X86441388Y-99221943D01*
X86446157Y-99240982D01*
X86449037Y-99260397D01*
X86450000Y-99280000D01*
X86450000Y-100480000D01*
X86449037Y-100499603D01*
X86446157Y-100519018D01*
X86441388Y-100538057D01*
X86434776Y-100556537D01*
X86426384Y-100574279D01*
X86416294Y-100591114D01*
X86404602Y-100606879D01*
X86391421Y-100621421D01*
X86376879Y-100634602D01*
X86361114Y-100646294D01*
X86344279Y-100656384D01*
X86326537Y-100664776D01*
X86308057Y-100671388D01*
X86289018Y-100676157D01*
X86269603Y-100679037D01*
X86250000Y-100680000D01*
X85050000Y-100680000D01*
X85030397Y-100679037D01*
X85010982Y-100676157D01*
X84991943Y-100671388D01*
X84973463Y-100664776D01*
X84955721Y-100656384D01*
X84938886Y-100646294D01*
X84923121Y-100634602D01*
X84908579Y-100621421D01*
X84895398Y-100606879D01*
X84883706Y-100591114D01*
X84873616Y-100574279D01*
X84865224Y-100556537D01*
X84858612Y-100538057D01*
X84853843Y-100519018D01*
X84850963Y-100499603D01*
X84850000Y-100480000D01*
X84850000Y-99280000D01*
X84850963Y-99260397D01*
X84853843Y-99240982D01*
X84858612Y-99221943D01*
X84865224Y-99203463D01*
X84873616Y-99185721D01*
X84883706Y-99168886D01*
X84895398Y-99153121D01*
X84908579Y-99138579D01*
X84923121Y-99125398D01*
X84938886Y-99113706D01*
X84955721Y-99103616D01*
X84973463Y-99095224D01*
X84991943Y-99088612D01*
X85010982Y-99083843D01*
X85030397Y-99080963D01*
X85050000Y-99080000D01*
X86250000Y-99080000D01*
X86269603Y-99080963D01*
G37*
G04 #@! TD.AperFunction*
G04 #@! TA.AperFunction,ComponentPad*
G36*
X86269603Y-96540963D02*
G01*
X86289018Y-96543843D01*
X86308057Y-96548612D01*
X86326537Y-96555224D01*
X86344279Y-96563616D01*
X86361114Y-96573706D01*
X86376879Y-96585398D01*
X86391421Y-96598579D01*
X86404602Y-96613121D01*
X86416294Y-96628886D01*
X86426384Y-96645721D01*
X86434776Y-96663463D01*
X86441388Y-96681943D01*
X86446157Y-96700982D01*
X86449037Y-96720397D01*
X86450000Y-96740000D01*
X86450000Y-97940000D01*
X86449037Y-97959603D01*
X86446157Y-97979018D01*
X86441388Y-97998057D01*
X86434776Y-98016537D01*
X86426384Y-98034279D01*
X86416294Y-98051114D01*
X86404602Y-98066879D01*
X86391421Y-98081421D01*
X86376879Y-98094602D01*
X86361114Y-98106294D01*
X86344279Y-98116384D01*
X86326537Y-98124776D01*
X86308057Y-98131388D01*
X86289018Y-98136157D01*
X86269603Y-98139037D01*
X86250000Y-98140000D01*
X85050000Y-98140000D01*
X85030397Y-98139037D01*
X85010982Y-98136157D01*
X84991943Y-98131388D01*
X84973463Y-98124776D01*
X84955721Y-98116384D01*
X84938886Y-98106294D01*
X84923121Y-98094602D01*
X84908579Y-98081421D01*
X84895398Y-98066879D01*
X84883706Y-98051114D01*
X84873616Y-98034279D01*
X84865224Y-98016537D01*
X84858612Y-97998057D01*
X84853843Y-97979018D01*
X84850963Y-97959603D01*
X84850000Y-97940000D01*
X84850000Y-96740000D01*
X84850963Y-96720397D01*
X84853843Y-96700982D01*
X84858612Y-96681943D01*
X84865224Y-96663463D01*
X84873616Y-96645721D01*
X84883706Y-96628886D01*
X84895398Y-96613121D01*
X84908579Y-96598579D01*
X84923121Y-96585398D01*
X84938886Y-96573706D01*
X84955721Y-96563616D01*
X84973463Y-96555224D01*
X84991943Y-96548612D01*
X85010982Y-96543843D01*
X85030397Y-96540963D01*
X85050000Y-96540000D01*
X86250000Y-96540000D01*
X86269603Y-96540963D01*
G37*
G04 #@! TD.AperFunction*
G04 #@! TA.AperFunction,ComponentPad*
G36*
X86269603Y-94000963D02*
G01*
X86289018Y-94003843D01*
X86308057Y-94008612D01*
X86326537Y-94015224D01*
X86344279Y-94023616D01*
X86361114Y-94033706D01*
X86376879Y-94045398D01*
X86391421Y-94058579D01*
X86404602Y-94073121D01*
X86416294Y-94088886D01*
X86426384Y-94105721D01*
X86434776Y-94123463D01*
X86441388Y-94141943D01*
X86446157Y-94160982D01*
X86449037Y-94180397D01*
X86450000Y-94200000D01*
X86450000Y-95400000D01*
X86449037Y-95419603D01*
X86446157Y-95439018D01*
X86441388Y-95458057D01*
X86434776Y-95476537D01*
X86426384Y-95494279D01*
X86416294Y-95511114D01*
X86404602Y-95526879D01*
X86391421Y-95541421D01*
X86376879Y-95554602D01*
X86361114Y-95566294D01*
X86344279Y-95576384D01*
X86326537Y-95584776D01*
X86308057Y-95591388D01*
X86289018Y-95596157D01*
X86269603Y-95599037D01*
X86250000Y-95600000D01*
X85050000Y-95600000D01*
X85030397Y-95599037D01*
X85010982Y-95596157D01*
X84991943Y-95591388D01*
X84973463Y-95584776D01*
X84955721Y-95576384D01*
X84938886Y-95566294D01*
X84923121Y-95554602D01*
X84908579Y-95541421D01*
X84895398Y-95526879D01*
X84883706Y-95511114D01*
X84873616Y-95494279D01*
X84865224Y-95476537D01*
X84858612Y-95458057D01*
X84853843Y-95439018D01*
X84850963Y-95419603D01*
X84850000Y-95400000D01*
X84850000Y-94200000D01*
X84850963Y-94180397D01*
X84853843Y-94160982D01*
X84858612Y-94141943D01*
X84865224Y-94123463D01*
X84873616Y-94105721D01*
X84883706Y-94088886D01*
X84895398Y-94073121D01*
X84908579Y-94058579D01*
X84923121Y-94045398D01*
X84938886Y-94033706D01*
X84955721Y-94023616D01*
X84973463Y-94015224D01*
X84991943Y-94008612D01*
X85010982Y-94003843D01*
X85030397Y-94000963D01*
X85050000Y-94000000D01*
X86250000Y-94000000D01*
X86269603Y-94000963D01*
G37*
G04 #@! TD.AperFunction*
G04 #@! TA.AperFunction,ComponentPad*
G36*
X86269603Y-91460963D02*
G01*
X86289018Y-91463843D01*
X86308057Y-91468612D01*
X86326537Y-91475224D01*
X86344279Y-91483616D01*
X86361114Y-91493706D01*
X86376879Y-91505398D01*
X86391421Y-91518579D01*
X86404602Y-91533121D01*
X86416294Y-91548886D01*
X86426384Y-91565721D01*
X86434776Y-91583463D01*
X86441388Y-91601943D01*
X86446157Y-91620982D01*
X86449037Y-91640397D01*
X86450000Y-91660000D01*
X86450000Y-92860000D01*
X86449037Y-92879603D01*
X86446157Y-92899018D01*
X86441388Y-92918057D01*
X86434776Y-92936537D01*
X86426384Y-92954279D01*
X86416294Y-92971114D01*
X86404602Y-92986879D01*
X86391421Y-93001421D01*
X86376879Y-93014602D01*
X86361114Y-93026294D01*
X86344279Y-93036384D01*
X86326537Y-93044776D01*
X86308057Y-93051388D01*
X86289018Y-93056157D01*
X86269603Y-93059037D01*
X86250000Y-93060000D01*
X85050000Y-93060000D01*
X85030397Y-93059037D01*
X85010982Y-93056157D01*
X84991943Y-93051388D01*
X84973463Y-93044776D01*
X84955721Y-93036384D01*
X84938886Y-93026294D01*
X84923121Y-93014602D01*
X84908579Y-93001421D01*
X84895398Y-92986879D01*
X84883706Y-92971114D01*
X84873616Y-92954279D01*
X84865224Y-92936537D01*
X84858612Y-92918057D01*
X84853843Y-92899018D01*
X84850963Y-92879603D01*
X84850000Y-92860000D01*
X84850000Y-91660000D01*
X84850963Y-91640397D01*
X84853843Y-91620982D01*
X84858612Y-91601943D01*
X84865224Y-91583463D01*
X84873616Y-91565721D01*
X84883706Y-91548886D01*
X84895398Y-91533121D01*
X84908579Y-91518579D01*
X84923121Y-91505398D01*
X84938886Y-91493706D01*
X84955721Y-91483616D01*
X84973463Y-91475224D01*
X84991943Y-91468612D01*
X85010982Y-91463843D01*
X85030397Y-91460963D01*
X85050000Y-91460000D01*
X86250000Y-91460000D01*
X86269603Y-91460963D01*
G37*
G04 #@! TD.AperFunction*
G04 #@! TA.AperFunction,ComponentPad*
G36*
X86269603Y-88920963D02*
G01*
X86289018Y-88923843D01*
X86308057Y-88928612D01*
X86326537Y-88935224D01*
X86344279Y-88943616D01*
X86361114Y-88953706D01*
X86376879Y-88965398D01*
X86391421Y-88978579D01*
X86404602Y-88993121D01*
X86416294Y-89008886D01*
X86426384Y-89025721D01*
X86434776Y-89043463D01*
X86441388Y-89061943D01*
X86446157Y-89080982D01*
X86449037Y-89100397D01*
X86450000Y-89120000D01*
X86450000Y-90320000D01*
X86449037Y-90339603D01*
X86446157Y-90359018D01*
X86441388Y-90378057D01*
X86434776Y-90396537D01*
X86426384Y-90414279D01*
X86416294Y-90431114D01*
X86404602Y-90446879D01*
X86391421Y-90461421D01*
X86376879Y-90474602D01*
X86361114Y-90486294D01*
X86344279Y-90496384D01*
X86326537Y-90504776D01*
X86308057Y-90511388D01*
X86289018Y-90516157D01*
X86269603Y-90519037D01*
X86250000Y-90520000D01*
X85050000Y-90520000D01*
X85030397Y-90519037D01*
X85010982Y-90516157D01*
X84991943Y-90511388D01*
X84973463Y-90504776D01*
X84955721Y-90496384D01*
X84938886Y-90486294D01*
X84923121Y-90474602D01*
X84908579Y-90461421D01*
X84895398Y-90446879D01*
X84883706Y-90431114D01*
X84873616Y-90414279D01*
X84865224Y-90396537D01*
X84858612Y-90378057D01*
X84853843Y-90359018D01*
X84850963Y-90339603D01*
X84850000Y-90320000D01*
X84850000Y-89120000D01*
X84850963Y-89100397D01*
X84853843Y-89080982D01*
X84858612Y-89061943D01*
X84865224Y-89043463D01*
X84873616Y-89025721D01*
X84883706Y-89008886D01*
X84895398Y-88993121D01*
X84908579Y-88978579D01*
X84923121Y-88965398D01*
X84938886Y-88953706D01*
X84955721Y-88943616D01*
X84973463Y-88935224D01*
X84991943Y-88928612D01*
X85010982Y-88923843D01*
X85030397Y-88920963D01*
X85050000Y-88920000D01*
X86250000Y-88920000D01*
X86269603Y-88920963D01*
G37*
G04 #@! TD.AperFunction*
G04 #@! TA.AperFunction,ComponentPad*
G36*
X86269603Y-86380963D02*
G01*
X86289018Y-86383843D01*
X86308057Y-86388612D01*
X86326537Y-86395224D01*
X86344279Y-86403616D01*
X86361114Y-86413706D01*
X86376879Y-86425398D01*
X86391421Y-86438579D01*
X86404602Y-86453121D01*
X86416294Y-86468886D01*
X86426384Y-86485721D01*
X86434776Y-86503463D01*
X86441388Y-86521943D01*
X86446157Y-86540982D01*
X86449037Y-86560397D01*
X86450000Y-86580000D01*
X86450000Y-87780000D01*
X86449037Y-87799603D01*
X86446157Y-87819018D01*
X86441388Y-87838057D01*
X86434776Y-87856537D01*
X86426384Y-87874279D01*
X86416294Y-87891114D01*
X86404602Y-87906879D01*
X86391421Y-87921421D01*
X86376879Y-87934602D01*
X86361114Y-87946294D01*
X86344279Y-87956384D01*
X86326537Y-87964776D01*
X86308057Y-87971388D01*
X86289018Y-87976157D01*
X86269603Y-87979037D01*
X86250000Y-87980000D01*
X85050000Y-87980000D01*
X85030397Y-87979037D01*
X85010982Y-87976157D01*
X84991943Y-87971388D01*
X84973463Y-87964776D01*
X84955721Y-87956384D01*
X84938886Y-87946294D01*
X84923121Y-87934602D01*
X84908579Y-87921421D01*
X84895398Y-87906879D01*
X84883706Y-87891114D01*
X84873616Y-87874279D01*
X84865224Y-87856537D01*
X84858612Y-87838057D01*
X84853843Y-87819018D01*
X84850963Y-87799603D01*
X84850000Y-87780000D01*
X84850000Y-86580000D01*
X84850963Y-86560397D01*
X84853843Y-86540982D01*
X84858612Y-86521943D01*
X84865224Y-86503463D01*
X84873616Y-86485721D01*
X84883706Y-86468886D01*
X84895398Y-86453121D01*
X84908579Y-86438579D01*
X84923121Y-86425398D01*
X84938886Y-86413706D01*
X84955721Y-86403616D01*
X84973463Y-86395224D01*
X84991943Y-86388612D01*
X85010982Y-86383843D01*
X85030397Y-86380963D01*
X85050000Y-86380000D01*
X86250000Y-86380000D01*
X86269603Y-86380963D01*
G37*
G04 #@! TD.AperFunction*
G04 #@! TA.AperFunction,ComponentPad*
G36*
X86269603Y-83840963D02*
G01*
X86289018Y-83843843D01*
X86308057Y-83848612D01*
X86326537Y-83855224D01*
X86344279Y-83863616D01*
X86361114Y-83873706D01*
X86376879Y-83885398D01*
X86391421Y-83898579D01*
X86404602Y-83913121D01*
X86416294Y-83928886D01*
X86426384Y-83945721D01*
X86434776Y-83963463D01*
X86441388Y-83981943D01*
X86446157Y-84000982D01*
X86449037Y-84020397D01*
X86450000Y-84040000D01*
X86450000Y-85240000D01*
X86449037Y-85259603D01*
X86446157Y-85279018D01*
X86441388Y-85298057D01*
X86434776Y-85316537D01*
X86426384Y-85334279D01*
X86416294Y-85351114D01*
X86404602Y-85366879D01*
X86391421Y-85381421D01*
X86376879Y-85394602D01*
X86361114Y-85406294D01*
X86344279Y-85416384D01*
X86326537Y-85424776D01*
X86308057Y-85431388D01*
X86289018Y-85436157D01*
X86269603Y-85439037D01*
X86250000Y-85440000D01*
X85050000Y-85440000D01*
X85030397Y-85439037D01*
X85010982Y-85436157D01*
X84991943Y-85431388D01*
X84973463Y-85424776D01*
X84955721Y-85416384D01*
X84938886Y-85406294D01*
X84923121Y-85394602D01*
X84908579Y-85381421D01*
X84895398Y-85366879D01*
X84883706Y-85351114D01*
X84873616Y-85334279D01*
X84865224Y-85316537D01*
X84858612Y-85298057D01*
X84853843Y-85279018D01*
X84850963Y-85259603D01*
X84850000Y-85240000D01*
X84850000Y-84040000D01*
X84850963Y-84020397D01*
X84853843Y-84000982D01*
X84858612Y-83981943D01*
X84865224Y-83963463D01*
X84873616Y-83945721D01*
X84883706Y-83928886D01*
X84895398Y-83913121D01*
X84908579Y-83898579D01*
X84923121Y-83885398D01*
X84938886Y-83873706D01*
X84955721Y-83863616D01*
X84973463Y-83855224D01*
X84991943Y-83848612D01*
X85010982Y-83843843D01*
X85030397Y-83840963D01*
X85050000Y-83840000D01*
X86250000Y-83840000D01*
X86269603Y-83840963D01*
G37*
G04 #@! TD.AperFunction*
G04 #@! TA.AperFunction,ComponentPad*
G36*
X86269603Y-81300963D02*
G01*
X86289018Y-81303843D01*
X86308057Y-81308612D01*
X86326537Y-81315224D01*
X86344279Y-81323616D01*
X86361114Y-81333706D01*
X86376879Y-81345398D01*
X86391421Y-81358579D01*
X86404602Y-81373121D01*
X86416294Y-81388886D01*
X86426384Y-81405721D01*
X86434776Y-81423463D01*
X86441388Y-81441943D01*
X86446157Y-81460982D01*
X86449037Y-81480397D01*
X86450000Y-81500000D01*
X86450000Y-82700000D01*
X86449037Y-82719603D01*
X86446157Y-82739018D01*
X86441388Y-82758057D01*
X86434776Y-82776537D01*
X86426384Y-82794279D01*
X86416294Y-82811114D01*
X86404602Y-82826879D01*
X86391421Y-82841421D01*
X86376879Y-82854602D01*
X86361114Y-82866294D01*
X86344279Y-82876384D01*
X86326537Y-82884776D01*
X86308057Y-82891388D01*
X86289018Y-82896157D01*
X86269603Y-82899037D01*
X86250000Y-82900000D01*
X85050000Y-82900000D01*
X85030397Y-82899037D01*
X85010982Y-82896157D01*
X84991943Y-82891388D01*
X84973463Y-82884776D01*
X84955721Y-82876384D01*
X84938886Y-82866294D01*
X84923121Y-82854602D01*
X84908579Y-82841421D01*
X84895398Y-82826879D01*
X84883706Y-82811114D01*
X84873616Y-82794279D01*
X84865224Y-82776537D01*
X84858612Y-82758057D01*
X84853843Y-82739018D01*
X84850963Y-82719603D01*
X84850000Y-82700000D01*
X84850000Y-81500000D01*
X84850963Y-81480397D01*
X84853843Y-81460982D01*
X84858612Y-81441943D01*
X84865224Y-81423463D01*
X84873616Y-81405721D01*
X84883706Y-81388886D01*
X84895398Y-81373121D01*
X84908579Y-81358579D01*
X84923121Y-81345398D01*
X84938886Y-81333706D01*
X84955721Y-81323616D01*
X84973463Y-81315224D01*
X84991943Y-81308612D01*
X85010982Y-81303843D01*
X85030397Y-81300963D01*
X85050000Y-81300000D01*
X86250000Y-81300000D01*
X86269603Y-81300963D01*
G37*
G04 #@! TD.AperFunction*
G04 #@! TA.AperFunction,ComponentPad*
G36*
X98969603Y-99080963D02*
G01*
X98989018Y-99083843D01*
X99008057Y-99088612D01*
X99026537Y-99095224D01*
X99044279Y-99103616D01*
X99061114Y-99113706D01*
X99076879Y-99125398D01*
X99091421Y-99138579D01*
X99104602Y-99153121D01*
X99116294Y-99168886D01*
X99126384Y-99185721D01*
X99134776Y-99203463D01*
X99141388Y-99221943D01*
X99146157Y-99240982D01*
X99149037Y-99260397D01*
X99150000Y-99280000D01*
X99150000Y-100480000D01*
X99149037Y-100499603D01*
X99146157Y-100519018D01*
X99141388Y-100538057D01*
X99134776Y-100556537D01*
X99126384Y-100574279D01*
X99116294Y-100591114D01*
X99104602Y-100606879D01*
X99091421Y-100621421D01*
X99076879Y-100634602D01*
X99061114Y-100646294D01*
X99044279Y-100656384D01*
X99026537Y-100664776D01*
X99008057Y-100671388D01*
X98989018Y-100676157D01*
X98969603Y-100679037D01*
X98950000Y-100680000D01*
X97750000Y-100680000D01*
X97730397Y-100679037D01*
X97710982Y-100676157D01*
X97691943Y-100671388D01*
X97673463Y-100664776D01*
X97655721Y-100656384D01*
X97638886Y-100646294D01*
X97623121Y-100634602D01*
X97608579Y-100621421D01*
X97595398Y-100606879D01*
X97583706Y-100591114D01*
X97573616Y-100574279D01*
X97565224Y-100556537D01*
X97558612Y-100538057D01*
X97553843Y-100519018D01*
X97550963Y-100499603D01*
X97550000Y-100480000D01*
X97550000Y-99280000D01*
X97550963Y-99260397D01*
X97553843Y-99240982D01*
X97558612Y-99221943D01*
X97565224Y-99203463D01*
X97573616Y-99185721D01*
X97583706Y-99168886D01*
X97595398Y-99153121D01*
X97608579Y-99138579D01*
X97623121Y-99125398D01*
X97638886Y-99113706D01*
X97655721Y-99103616D01*
X97673463Y-99095224D01*
X97691943Y-99088612D01*
X97710982Y-99083843D01*
X97730397Y-99080963D01*
X97750000Y-99080000D01*
X98950000Y-99080000D01*
X98969603Y-99080963D01*
G37*
G04 #@! TD.AperFunction*
G04 #@! TA.AperFunction,ComponentPad*
G36*
X98969603Y-96540963D02*
G01*
X98989018Y-96543843D01*
X99008057Y-96548612D01*
X99026537Y-96555224D01*
X99044279Y-96563616D01*
X99061114Y-96573706D01*
X99076879Y-96585398D01*
X99091421Y-96598579D01*
X99104602Y-96613121D01*
X99116294Y-96628886D01*
X99126384Y-96645721D01*
X99134776Y-96663463D01*
X99141388Y-96681943D01*
X99146157Y-96700982D01*
X99149037Y-96720397D01*
X99150000Y-96740000D01*
X99150000Y-97940000D01*
X99149037Y-97959603D01*
X99146157Y-97979018D01*
X99141388Y-97998057D01*
X99134776Y-98016537D01*
X99126384Y-98034279D01*
X99116294Y-98051114D01*
X99104602Y-98066879D01*
X99091421Y-98081421D01*
X99076879Y-98094602D01*
X99061114Y-98106294D01*
X99044279Y-98116384D01*
X99026537Y-98124776D01*
X99008057Y-98131388D01*
X98989018Y-98136157D01*
X98969603Y-98139037D01*
X98950000Y-98140000D01*
X97750000Y-98140000D01*
X97730397Y-98139037D01*
X97710982Y-98136157D01*
X97691943Y-98131388D01*
X97673463Y-98124776D01*
X97655721Y-98116384D01*
X97638886Y-98106294D01*
X97623121Y-98094602D01*
X97608579Y-98081421D01*
X97595398Y-98066879D01*
X97583706Y-98051114D01*
X97573616Y-98034279D01*
X97565224Y-98016537D01*
X97558612Y-97998057D01*
X97553843Y-97979018D01*
X97550963Y-97959603D01*
X97550000Y-97940000D01*
X97550000Y-96740000D01*
X97550963Y-96720397D01*
X97553843Y-96700982D01*
X97558612Y-96681943D01*
X97565224Y-96663463D01*
X97573616Y-96645721D01*
X97583706Y-96628886D01*
X97595398Y-96613121D01*
X97608579Y-96598579D01*
X97623121Y-96585398D01*
X97638886Y-96573706D01*
X97655721Y-96563616D01*
X97673463Y-96555224D01*
X97691943Y-96548612D01*
X97710982Y-96543843D01*
X97730397Y-96540963D01*
X97750000Y-96540000D01*
X98950000Y-96540000D01*
X98969603Y-96540963D01*
G37*
G04 #@! TD.AperFunction*
G04 #@! TA.AperFunction,ComponentPad*
G36*
X98969603Y-94000963D02*
G01*
X98989018Y-94003843D01*
X99008057Y-94008612D01*
X99026537Y-94015224D01*
X99044279Y-94023616D01*
X99061114Y-94033706D01*
X99076879Y-94045398D01*
X99091421Y-94058579D01*
X99104602Y-94073121D01*
X99116294Y-94088886D01*
X99126384Y-94105721D01*
X99134776Y-94123463D01*
X99141388Y-94141943D01*
X99146157Y-94160982D01*
X99149037Y-94180397D01*
X99150000Y-94200000D01*
X99150000Y-95400000D01*
X99149037Y-95419603D01*
X99146157Y-95439018D01*
X99141388Y-95458057D01*
X99134776Y-95476537D01*
X99126384Y-95494279D01*
X99116294Y-95511114D01*
X99104602Y-95526879D01*
X99091421Y-95541421D01*
X99076879Y-95554602D01*
X99061114Y-95566294D01*
X99044279Y-95576384D01*
X99026537Y-95584776D01*
X99008057Y-95591388D01*
X98989018Y-95596157D01*
X98969603Y-95599037D01*
X98950000Y-95600000D01*
X97750000Y-95600000D01*
X97730397Y-95599037D01*
X97710982Y-95596157D01*
X97691943Y-95591388D01*
X97673463Y-95584776D01*
X97655721Y-95576384D01*
X97638886Y-95566294D01*
X97623121Y-95554602D01*
X97608579Y-95541421D01*
X97595398Y-95526879D01*
X97583706Y-95511114D01*
X97573616Y-95494279D01*
X97565224Y-95476537D01*
X97558612Y-95458057D01*
X97553843Y-95439018D01*
X97550963Y-95419603D01*
X97550000Y-95400000D01*
X97550000Y-94200000D01*
X97550963Y-94180397D01*
X97553843Y-94160982D01*
X97558612Y-94141943D01*
X97565224Y-94123463D01*
X97573616Y-94105721D01*
X97583706Y-94088886D01*
X97595398Y-94073121D01*
X97608579Y-94058579D01*
X97623121Y-94045398D01*
X97638886Y-94033706D01*
X97655721Y-94023616D01*
X97673463Y-94015224D01*
X97691943Y-94008612D01*
X97710982Y-94003843D01*
X97730397Y-94000963D01*
X97750000Y-94000000D01*
X98950000Y-94000000D01*
X98969603Y-94000963D01*
G37*
G04 #@! TD.AperFunction*
G04 #@! TA.AperFunction,ComponentPad*
G36*
X98969603Y-91460963D02*
G01*
X98989018Y-91463843D01*
X99008057Y-91468612D01*
X99026537Y-91475224D01*
X99044279Y-91483616D01*
X99061114Y-91493706D01*
X99076879Y-91505398D01*
X99091421Y-91518579D01*
X99104602Y-91533121D01*
X99116294Y-91548886D01*
X99126384Y-91565721D01*
X99134776Y-91583463D01*
X99141388Y-91601943D01*
X99146157Y-91620982D01*
X99149037Y-91640397D01*
X99150000Y-91660000D01*
X99150000Y-92860000D01*
X99149037Y-92879603D01*
X99146157Y-92899018D01*
X99141388Y-92918057D01*
X99134776Y-92936537D01*
X99126384Y-92954279D01*
X99116294Y-92971114D01*
X99104602Y-92986879D01*
X99091421Y-93001421D01*
X99076879Y-93014602D01*
X99061114Y-93026294D01*
X99044279Y-93036384D01*
X99026537Y-93044776D01*
X99008057Y-93051388D01*
X98989018Y-93056157D01*
X98969603Y-93059037D01*
X98950000Y-93060000D01*
X97750000Y-93060000D01*
X97730397Y-93059037D01*
X97710982Y-93056157D01*
X97691943Y-93051388D01*
X97673463Y-93044776D01*
X97655721Y-93036384D01*
X97638886Y-93026294D01*
X97623121Y-93014602D01*
X97608579Y-93001421D01*
X97595398Y-92986879D01*
X97583706Y-92971114D01*
X97573616Y-92954279D01*
X97565224Y-92936537D01*
X97558612Y-92918057D01*
X97553843Y-92899018D01*
X97550963Y-92879603D01*
X97550000Y-92860000D01*
X97550000Y-91660000D01*
X97550963Y-91640397D01*
X97553843Y-91620982D01*
X97558612Y-91601943D01*
X97565224Y-91583463D01*
X97573616Y-91565721D01*
X97583706Y-91548886D01*
X97595398Y-91533121D01*
X97608579Y-91518579D01*
X97623121Y-91505398D01*
X97638886Y-91493706D01*
X97655721Y-91483616D01*
X97673463Y-91475224D01*
X97691943Y-91468612D01*
X97710982Y-91463843D01*
X97730397Y-91460963D01*
X97750000Y-91460000D01*
X98950000Y-91460000D01*
X98969603Y-91460963D01*
G37*
G04 #@! TD.AperFunction*
G04 #@! TA.AperFunction,ComponentPad*
G36*
X98969603Y-88920963D02*
G01*
X98989018Y-88923843D01*
X99008057Y-88928612D01*
X99026537Y-88935224D01*
X99044279Y-88943616D01*
X99061114Y-88953706D01*
X99076879Y-88965398D01*
X99091421Y-88978579D01*
X99104602Y-88993121D01*
X99116294Y-89008886D01*
X99126384Y-89025721D01*
X99134776Y-89043463D01*
X99141388Y-89061943D01*
X99146157Y-89080982D01*
X99149037Y-89100397D01*
X99150000Y-89120000D01*
X99150000Y-90320000D01*
X99149037Y-90339603D01*
X99146157Y-90359018D01*
X99141388Y-90378057D01*
X99134776Y-90396537D01*
X99126384Y-90414279D01*
X99116294Y-90431114D01*
X99104602Y-90446879D01*
X99091421Y-90461421D01*
X99076879Y-90474602D01*
X99061114Y-90486294D01*
X99044279Y-90496384D01*
X99026537Y-90504776D01*
X99008057Y-90511388D01*
X98989018Y-90516157D01*
X98969603Y-90519037D01*
X98950000Y-90520000D01*
X97750000Y-90520000D01*
X97730397Y-90519037D01*
X97710982Y-90516157D01*
X97691943Y-90511388D01*
X97673463Y-90504776D01*
X97655721Y-90496384D01*
X97638886Y-90486294D01*
X97623121Y-90474602D01*
X97608579Y-90461421D01*
X97595398Y-90446879D01*
X97583706Y-90431114D01*
X97573616Y-90414279D01*
X97565224Y-90396537D01*
X97558612Y-90378057D01*
X97553843Y-90359018D01*
X97550963Y-90339603D01*
X97550000Y-90320000D01*
X97550000Y-89120000D01*
X97550963Y-89100397D01*
X97553843Y-89080982D01*
X97558612Y-89061943D01*
X97565224Y-89043463D01*
X97573616Y-89025721D01*
X97583706Y-89008886D01*
X97595398Y-88993121D01*
X97608579Y-88978579D01*
X97623121Y-88965398D01*
X97638886Y-88953706D01*
X97655721Y-88943616D01*
X97673463Y-88935224D01*
X97691943Y-88928612D01*
X97710982Y-88923843D01*
X97730397Y-88920963D01*
X97750000Y-88920000D01*
X98950000Y-88920000D01*
X98969603Y-88920963D01*
G37*
G04 #@! TD.AperFunction*
G04 #@! TA.AperFunction,ComponentPad*
G36*
X98969603Y-86380963D02*
G01*
X98989018Y-86383843D01*
X99008057Y-86388612D01*
X99026537Y-86395224D01*
X99044279Y-86403616D01*
X99061114Y-86413706D01*
X99076879Y-86425398D01*
X99091421Y-86438579D01*
X99104602Y-86453121D01*
X99116294Y-86468886D01*
X99126384Y-86485721D01*
X99134776Y-86503463D01*
X99141388Y-86521943D01*
X99146157Y-86540982D01*
X99149037Y-86560397D01*
X99150000Y-86580000D01*
X99150000Y-87780000D01*
X99149037Y-87799603D01*
X99146157Y-87819018D01*
X99141388Y-87838057D01*
X99134776Y-87856537D01*
X99126384Y-87874279D01*
X99116294Y-87891114D01*
X99104602Y-87906879D01*
X99091421Y-87921421D01*
X99076879Y-87934602D01*
X99061114Y-87946294D01*
X99044279Y-87956384D01*
X99026537Y-87964776D01*
X99008057Y-87971388D01*
X98989018Y-87976157D01*
X98969603Y-87979037D01*
X98950000Y-87980000D01*
X97750000Y-87980000D01*
X97730397Y-87979037D01*
X97710982Y-87976157D01*
X97691943Y-87971388D01*
X97673463Y-87964776D01*
X97655721Y-87956384D01*
X97638886Y-87946294D01*
X97623121Y-87934602D01*
X97608579Y-87921421D01*
X97595398Y-87906879D01*
X97583706Y-87891114D01*
X97573616Y-87874279D01*
X97565224Y-87856537D01*
X97558612Y-87838057D01*
X97553843Y-87819018D01*
X97550963Y-87799603D01*
X97550000Y-87780000D01*
X97550000Y-86580000D01*
X97550963Y-86560397D01*
X97553843Y-86540982D01*
X97558612Y-86521943D01*
X97565224Y-86503463D01*
X97573616Y-86485721D01*
X97583706Y-86468886D01*
X97595398Y-86453121D01*
X97608579Y-86438579D01*
X97623121Y-86425398D01*
X97638886Y-86413706D01*
X97655721Y-86403616D01*
X97673463Y-86395224D01*
X97691943Y-86388612D01*
X97710982Y-86383843D01*
X97730397Y-86380963D01*
X97750000Y-86380000D01*
X98950000Y-86380000D01*
X98969603Y-86380963D01*
G37*
G04 #@! TD.AperFunction*
G04 #@! TA.AperFunction,ComponentPad*
G36*
X98969603Y-83840963D02*
G01*
X98989018Y-83843843D01*
X99008057Y-83848612D01*
X99026537Y-83855224D01*
X99044279Y-83863616D01*
X99061114Y-83873706D01*
X99076879Y-83885398D01*
X99091421Y-83898579D01*
X99104602Y-83913121D01*
X99116294Y-83928886D01*
X99126384Y-83945721D01*
X99134776Y-83963463D01*
X99141388Y-83981943D01*
X99146157Y-84000982D01*
X99149037Y-84020397D01*
X99150000Y-84040000D01*
X99150000Y-85240000D01*
X99149037Y-85259603D01*
X99146157Y-85279018D01*
X99141388Y-85298057D01*
X99134776Y-85316537D01*
X99126384Y-85334279D01*
X99116294Y-85351114D01*
X99104602Y-85366879D01*
X99091421Y-85381421D01*
X99076879Y-85394602D01*
X99061114Y-85406294D01*
X99044279Y-85416384D01*
X99026537Y-85424776D01*
X99008057Y-85431388D01*
X98989018Y-85436157D01*
X98969603Y-85439037D01*
X98950000Y-85440000D01*
X97750000Y-85440000D01*
X97730397Y-85439037D01*
X97710982Y-85436157D01*
X97691943Y-85431388D01*
X97673463Y-85424776D01*
X97655721Y-85416384D01*
X97638886Y-85406294D01*
X97623121Y-85394602D01*
X97608579Y-85381421D01*
X97595398Y-85366879D01*
X97583706Y-85351114D01*
X97573616Y-85334279D01*
X97565224Y-85316537D01*
X97558612Y-85298057D01*
X97553843Y-85279018D01*
X97550963Y-85259603D01*
X97550000Y-85240000D01*
X97550000Y-84040000D01*
X97550963Y-84020397D01*
X97553843Y-84000982D01*
X97558612Y-83981943D01*
X97565224Y-83963463D01*
X97573616Y-83945721D01*
X97583706Y-83928886D01*
X97595398Y-83913121D01*
X97608579Y-83898579D01*
X97623121Y-83885398D01*
X97638886Y-83873706D01*
X97655721Y-83863616D01*
X97673463Y-83855224D01*
X97691943Y-83848612D01*
X97710982Y-83843843D01*
X97730397Y-83840963D01*
X97750000Y-83840000D01*
X98950000Y-83840000D01*
X98969603Y-83840963D01*
G37*
G04 #@! TD.AperFunction*
G04 #@! TA.AperFunction,ComponentPad*
G36*
X98969603Y-81300963D02*
G01*
X98989018Y-81303843D01*
X99008057Y-81308612D01*
X99026537Y-81315224D01*
X99044279Y-81323616D01*
X99061114Y-81333706D01*
X99076879Y-81345398D01*
X99091421Y-81358579D01*
X99104602Y-81373121D01*
X99116294Y-81388886D01*
X99126384Y-81405721D01*
X99134776Y-81423463D01*
X99141388Y-81441943D01*
X99146157Y-81460982D01*
X99149037Y-81480397D01*
X99150000Y-81500000D01*
X99150000Y-82700000D01*
X99149037Y-82719603D01*
X99146157Y-82739018D01*
X99141388Y-82758057D01*
X99134776Y-82776537D01*
X99126384Y-82794279D01*
X99116294Y-82811114D01*
X99104602Y-82826879D01*
X99091421Y-82841421D01*
X99076879Y-82854602D01*
X99061114Y-82866294D01*
X99044279Y-82876384D01*
X99026537Y-82884776D01*
X99008057Y-82891388D01*
X98989018Y-82896157D01*
X98969603Y-82899037D01*
X98950000Y-82900000D01*
X97750000Y-82900000D01*
X97730397Y-82899037D01*
X97710982Y-82896157D01*
X97691943Y-82891388D01*
X97673463Y-82884776D01*
X97655721Y-82876384D01*
X97638886Y-82866294D01*
X97623121Y-82854602D01*
X97608579Y-82841421D01*
X97595398Y-82826879D01*
X97583706Y-82811114D01*
X97573616Y-82794279D01*
X97565224Y-82776537D01*
X97558612Y-82758057D01*
X97553843Y-82739018D01*
X97550963Y-82719603D01*
X97550000Y-82700000D01*
X97550000Y-81500000D01*
X97550963Y-81480397D01*
X97553843Y-81460982D01*
X97558612Y-81441943D01*
X97565224Y-81423463D01*
X97573616Y-81405721D01*
X97583706Y-81388886D01*
X97595398Y-81373121D01*
X97608579Y-81358579D01*
X97623121Y-81345398D01*
X97638886Y-81333706D01*
X97655721Y-81323616D01*
X97673463Y-81315224D01*
X97691943Y-81308612D01*
X97710982Y-81303843D01*
X97730397Y-81300963D01*
X97750000Y-81300000D01*
X98950000Y-81300000D01*
X98969603Y-81300963D01*
G37*
G04 #@! TD.AperFunction*
D12*
X97000000Y-107240000D03*
D13*
X99400000Y-107240000D03*
X98697056Y-108937056D03*
X97000000Y-109640000D03*
X95302944Y-108937056D03*
X94600000Y-107240000D03*
X95302944Y-105542944D03*
X97000000Y-104840000D03*
X98697056Y-105542944D03*
D12*
X87000000Y-107240000D03*
D13*
X89400000Y-107240000D03*
X88697056Y-108937056D03*
X87000000Y-109640000D03*
X85302944Y-108937056D03*
X84600000Y-107240000D03*
X85302944Y-105542944D03*
X87000000Y-104840000D03*
X88697056Y-105542944D03*
D12*
X97000000Y-74740000D03*
D13*
X99400000Y-74740000D03*
X98697056Y-76437056D03*
X97000000Y-77140000D03*
X95302944Y-76437056D03*
X94600000Y-74740000D03*
X95302944Y-73042944D03*
X97000000Y-72340000D03*
X98697056Y-73042944D03*
D12*
X87000000Y-74740000D03*
D13*
X89400000Y-74740000D03*
X88697056Y-76437056D03*
X87000000Y-77140000D03*
X85302944Y-76437056D03*
X84600000Y-74740000D03*
X85302944Y-73042944D03*
X87000000Y-72340000D03*
X88697056Y-73042944D03*
G04 #@! TA.AperFunction,SMDPad,CuDef*
D11*
G36*
X96077579Y-95880963D02*
G01*
X96096996Y-95883843D01*
X96116038Y-95888613D01*
X96134520Y-95895226D01*
X96152265Y-95903619D01*
X96169102Y-95913711D01*
X96184869Y-95925404D01*
X96199413Y-95938587D01*
X96212596Y-95953131D01*
X96224289Y-95968898D01*
X96234381Y-95985735D01*
X96242774Y-96003480D01*
X96249387Y-96021962D01*
X96254157Y-96041004D01*
X96257037Y-96060421D01*
X96258000Y-96080027D01*
X96258000Y-96699973D01*
X96257037Y-96719579D01*
X96254157Y-96738996D01*
X96249387Y-96758038D01*
X96242774Y-96776520D01*
X96234381Y-96794265D01*
X96224289Y-96811102D01*
X96212596Y-96826869D01*
X96199413Y-96841413D01*
X96184869Y-96854596D01*
X96169102Y-96866289D01*
X96152265Y-96876381D01*
X96134520Y-96884774D01*
X96116038Y-96891387D01*
X96096996Y-96896157D01*
X96077579Y-96899037D01*
X96057973Y-96900000D01*
X95668027Y-96900000D01*
X95648421Y-96899037D01*
X95629004Y-96896157D01*
X95609962Y-96891387D01*
X95591480Y-96884774D01*
X95573735Y-96876381D01*
X95556898Y-96866289D01*
X95541131Y-96854596D01*
X95526587Y-96841413D01*
X95513404Y-96826869D01*
X95501711Y-96811102D01*
X95491619Y-96794265D01*
X95483226Y-96776520D01*
X95476613Y-96758038D01*
X95471843Y-96738996D01*
X95468963Y-96719579D01*
X95468000Y-96699973D01*
X95468000Y-96080027D01*
X95468963Y-96060421D01*
X95471843Y-96041004D01*
X95476613Y-96021962D01*
X95483226Y-96003480D01*
X95491619Y-95985735D01*
X95501711Y-95968898D01*
X95513404Y-95953131D01*
X95526587Y-95938587D01*
X95541131Y-95925404D01*
X95556898Y-95913711D01*
X95573735Y-95903619D01*
X95591480Y-95895226D01*
X95609962Y-95888613D01*
X95629004Y-95883843D01*
X95648421Y-95880963D01*
X95668027Y-95880000D01*
X96057973Y-95880000D01*
X96077579Y-95880963D01*
G37*
G04 #@! TD.AperFunction*
G04 #@! TA.AperFunction,SMDPad,CuDef*
G36*
X94447579Y-95880963D02*
G01*
X94466996Y-95883843D01*
X94486038Y-95888613D01*
X94504520Y-95895226D01*
X94522265Y-95903619D01*
X94539102Y-95913711D01*
X94554869Y-95925404D01*
X94569413Y-95938587D01*
X94582596Y-95953131D01*
X94594289Y-95968898D01*
X94604381Y-95985735D01*
X94612774Y-96003480D01*
X94619387Y-96021962D01*
X94624157Y-96041004D01*
X94627037Y-96060421D01*
X94628000Y-96080027D01*
X94628000Y-96699973D01*
X94627037Y-96719579D01*
X94624157Y-96738996D01*
X94619387Y-96758038D01*
X94612774Y-96776520D01*
X94604381Y-96794265D01*
X94594289Y-96811102D01*
X94582596Y-96826869D01*
X94569413Y-96841413D01*
X94554869Y-96854596D01*
X94539102Y-96866289D01*
X94522265Y-96876381D01*
X94504520Y-96884774D01*
X94486038Y-96891387D01*
X94466996Y-96896157D01*
X94447579Y-96899037D01*
X94427973Y-96900000D01*
X94038027Y-96900000D01*
X94018421Y-96899037D01*
X93999004Y-96896157D01*
X93979962Y-96891387D01*
X93961480Y-96884774D01*
X93943735Y-96876381D01*
X93926898Y-96866289D01*
X93911131Y-96854596D01*
X93896587Y-96841413D01*
X93883404Y-96826869D01*
X93871711Y-96811102D01*
X93861619Y-96794265D01*
X93853226Y-96776520D01*
X93846613Y-96758038D01*
X93841843Y-96738996D01*
X93838963Y-96719579D01*
X93838000Y-96699973D01*
X93838000Y-96080027D01*
X93838963Y-96060421D01*
X93841843Y-96041004D01*
X93846613Y-96021962D01*
X93853226Y-96003480D01*
X93861619Y-95985735D01*
X93871711Y-95968898D01*
X93883404Y-95953131D01*
X93896587Y-95938587D01*
X93911131Y-95925404D01*
X93926898Y-95913711D01*
X93943735Y-95903619D01*
X93961480Y-95895226D01*
X93979962Y-95888613D01*
X93999004Y-95883843D01*
X94018421Y-95880963D01*
X94038027Y-95880000D01*
X94427973Y-95880000D01*
X94447579Y-95880963D01*
G37*
G04 #@! TD.AperFunction*
G04 #@! TA.AperFunction,SMDPad,CuDef*
G36*
X94361579Y-80448963D02*
G01*
X94380996Y-80451843D01*
X94400038Y-80456613D01*
X94418520Y-80463226D01*
X94436265Y-80471619D01*
X94453102Y-80481711D01*
X94468869Y-80493404D01*
X94483413Y-80506587D01*
X94496596Y-80521131D01*
X94508289Y-80536898D01*
X94518381Y-80553735D01*
X94526774Y-80571480D01*
X94533387Y-80589962D01*
X94538157Y-80609004D01*
X94541037Y-80628421D01*
X94542000Y-80648027D01*
X94542000Y-81037973D01*
X94541037Y-81057579D01*
X94538157Y-81076996D01*
X94533387Y-81096038D01*
X94526774Y-81114520D01*
X94518381Y-81132265D01*
X94508289Y-81149102D01*
X94496596Y-81164869D01*
X94483413Y-81179413D01*
X94468869Y-81192596D01*
X94453102Y-81204289D01*
X94436265Y-81214381D01*
X94418520Y-81222774D01*
X94400038Y-81229387D01*
X94380996Y-81234157D01*
X94361579Y-81237037D01*
X94341973Y-81238000D01*
X93722027Y-81238000D01*
X93702421Y-81237037D01*
X93683004Y-81234157D01*
X93663962Y-81229387D01*
X93645480Y-81222774D01*
X93627735Y-81214381D01*
X93610898Y-81204289D01*
X93595131Y-81192596D01*
X93580587Y-81179413D01*
X93567404Y-81164869D01*
X93555711Y-81149102D01*
X93545619Y-81132265D01*
X93537226Y-81114520D01*
X93530613Y-81096038D01*
X93525843Y-81076996D01*
X93522963Y-81057579D01*
X93522000Y-81037973D01*
X93522000Y-80648027D01*
X93522963Y-80628421D01*
X93525843Y-80609004D01*
X93530613Y-80589962D01*
X93537226Y-80571480D01*
X93545619Y-80553735D01*
X93555711Y-80536898D01*
X93567404Y-80521131D01*
X93580587Y-80506587D01*
X93595131Y-80493404D01*
X93610898Y-80481711D01*
X93627735Y-80471619D01*
X93645480Y-80463226D01*
X93663962Y-80456613D01*
X93683004Y-80451843D01*
X93702421Y-80448963D01*
X93722027Y-80448000D01*
X94341973Y-80448000D01*
X94361579Y-80448963D01*
G37*
G04 #@! TD.AperFunction*
G04 #@! TA.AperFunction,SMDPad,CuDef*
G36*
X94361579Y-82078963D02*
G01*
X94380996Y-82081843D01*
X94400038Y-82086613D01*
X94418520Y-82093226D01*
X94436265Y-82101619D01*
X94453102Y-82111711D01*
X94468869Y-82123404D01*
X94483413Y-82136587D01*
X94496596Y-82151131D01*
X94508289Y-82166898D01*
X94518381Y-82183735D01*
X94526774Y-82201480D01*
X94533387Y-82219962D01*
X94538157Y-82239004D01*
X94541037Y-82258421D01*
X94542000Y-82278027D01*
X94542000Y-82667973D01*
X94541037Y-82687579D01*
X94538157Y-82706996D01*
X94533387Y-82726038D01*
X94526774Y-82744520D01*
X94518381Y-82762265D01*
X94508289Y-82779102D01*
X94496596Y-82794869D01*
X94483413Y-82809413D01*
X94468869Y-82822596D01*
X94453102Y-82834289D01*
X94436265Y-82844381D01*
X94418520Y-82852774D01*
X94400038Y-82859387D01*
X94380996Y-82864157D01*
X94361579Y-82867037D01*
X94341973Y-82868000D01*
X93722027Y-82868000D01*
X93702421Y-82867037D01*
X93683004Y-82864157D01*
X93663962Y-82859387D01*
X93645480Y-82852774D01*
X93627735Y-82844381D01*
X93610898Y-82834289D01*
X93595131Y-82822596D01*
X93580587Y-82809413D01*
X93567404Y-82794869D01*
X93555711Y-82779102D01*
X93545619Y-82762265D01*
X93537226Y-82744520D01*
X93530613Y-82726038D01*
X93525843Y-82706996D01*
X93522963Y-82687579D01*
X93522000Y-82667973D01*
X93522000Y-82278027D01*
X93522963Y-82258421D01*
X93525843Y-82239004D01*
X93530613Y-82219962D01*
X93537226Y-82201480D01*
X93545619Y-82183735D01*
X93555711Y-82166898D01*
X93567404Y-82151131D01*
X93580587Y-82136587D01*
X93595131Y-82123404D01*
X93610898Y-82111711D01*
X93627735Y-82101619D01*
X93645480Y-82093226D01*
X93663962Y-82086613D01*
X93683004Y-82081843D01*
X93702421Y-82078963D01*
X93722027Y-82078000D01*
X94341973Y-82078000D01*
X94361579Y-82078963D01*
G37*
G04 #@! TD.AperFunction*
G04 #@! TA.AperFunction,SMDPad,CuDef*
G36*
X95885579Y-82078963D02*
G01*
X95904996Y-82081843D01*
X95924038Y-82086613D01*
X95942520Y-82093226D01*
X95960265Y-82101619D01*
X95977102Y-82111711D01*
X95992869Y-82123404D01*
X96007413Y-82136587D01*
X96020596Y-82151131D01*
X96032289Y-82166898D01*
X96042381Y-82183735D01*
X96050774Y-82201480D01*
X96057387Y-82219962D01*
X96062157Y-82239004D01*
X96065037Y-82258421D01*
X96066000Y-82278027D01*
X96066000Y-82667973D01*
X96065037Y-82687579D01*
X96062157Y-82706996D01*
X96057387Y-82726038D01*
X96050774Y-82744520D01*
X96042381Y-82762265D01*
X96032289Y-82779102D01*
X96020596Y-82794869D01*
X96007413Y-82809413D01*
X95992869Y-82822596D01*
X95977102Y-82834289D01*
X95960265Y-82844381D01*
X95942520Y-82852774D01*
X95924038Y-82859387D01*
X95904996Y-82864157D01*
X95885579Y-82867037D01*
X95865973Y-82868000D01*
X95246027Y-82868000D01*
X95226421Y-82867037D01*
X95207004Y-82864157D01*
X95187962Y-82859387D01*
X95169480Y-82852774D01*
X95151735Y-82844381D01*
X95134898Y-82834289D01*
X95119131Y-82822596D01*
X95104587Y-82809413D01*
X95091404Y-82794869D01*
X95079711Y-82779102D01*
X95069619Y-82762265D01*
X95061226Y-82744520D01*
X95054613Y-82726038D01*
X95049843Y-82706996D01*
X95046963Y-82687579D01*
X95046000Y-82667973D01*
X95046000Y-82278027D01*
X95046963Y-82258421D01*
X95049843Y-82239004D01*
X95054613Y-82219962D01*
X95061226Y-82201480D01*
X95069619Y-82183735D01*
X95079711Y-82166898D01*
X95091404Y-82151131D01*
X95104587Y-82136587D01*
X95119131Y-82123404D01*
X95134898Y-82111711D01*
X95151735Y-82101619D01*
X95169480Y-82093226D01*
X95187962Y-82086613D01*
X95207004Y-82081843D01*
X95226421Y-82078963D01*
X95246027Y-82078000D01*
X95865973Y-82078000D01*
X95885579Y-82078963D01*
G37*
G04 #@! TD.AperFunction*
G04 #@! TA.AperFunction,SMDPad,CuDef*
G36*
X95885579Y-80448963D02*
G01*
X95904996Y-80451843D01*
X95924038Y-80456613D01*
X95942520Y-80463226D01*
X95960265Y-80471619D01*
X95977102Y-80481711D01*
X95992869Y-80493404D01*
X96007413Y-80506587D01*
X96020596Y-80521131D01*
X96032289Y-80536898D01*
X96042381Y-80553735D01*
X96050774Y-80571480D01*
X96057387Y-80589962D01*
X96062157Y-80609004D01*
X96065037Y-80628421D01*
X96066000Y-80648027D01*
X96066000Y-81037973D01*
X96065037Y-81057579D01*
X96062157Y-81076996D01*
X96057387Y-81096038D01*
X96050774Y-81114520D01*
X96042381Y-81132265D01*
X96032289Y-81149102D01*
X96020596Y-81164869D01*
X96007413Y-81179413D01*
X95992869Y-81192596D01*
X95977102Y-81204289D01*
X95960265Y-81214381D01*
X95942520Y-81222774D01*
X95924038Y-81229387D01*
X95904996Y-81234157D01*
X95885579Y-81237037D01*
X95865973Y-81238000D01*
X95246027Y-81238000D01*
X95226421Y-81237037D01*
X95207004Y-81234157D01*
X95187962Y-81229387D01*
X95169480Y-81222774D01*
X95151735Y-81214381D01*
X95134898Y-81204289D01*
X95119131Y-81192596D01*
X95104587Y-81179413D01*
X95091404Y-81164869D01*
X95079711Y-81149102D01*
X95069619Y-81132265D01*
X95061226Y-81114520D01*
X95054613Y-81096038D01*
X95049843Y-81076996D01*
X95046963Y-81057579D01*
X95046000Y-81037973D01*
X95046000Y-80648027D01*
X95046963Y-80628421D01*
X95049843Y-80609004D01*
X95054613Y-80589962D01*
X95061226Y-80571480D01*
X95069619Y-80553735D01*
X95079711Y-80536898D01*
X95091404Y-80521131D01*
X95104587Y-80506587D01*
X95119131Y-80493404D01*
X95134898Y-80481711D01*
X95151735Y-80471619D01*
X95169480Y-80463226D01*
X95187962Y-80456613D01*
X95207004Y-80451843D01*
X95226421Y-80448963D01*
X95246027Y-80448000D01*
X95865973Y-80448000D01*
X95885579Y-80448963D01*
G37*
G04 #@! TD.AperFunction*
G04 #@! TA.AperFunction,SMDPad,CuDef*
G36*
X88354703Y-92903722D02*
G01*
X88369264Y-92905882D01*
X88383543Y-92909459D01*
X88397403Y-92914418D01*
X88410710Y-92920712D01*
X88423336Y-92928280D01*
X88435159Y-92937048D01*
X88446066Y-92946934D01*
X88455952Y-92957841D01*
X88464720Y-92969664D01*
X88472288Y-92982290D01*
X88478582Y-92995597D01*
X88483541Y-93009457D01*
X88487118Y-93023736D01*
X88489278Y-93038297D01*
X88490000Y-93053000D01*
X88490000Y-94803000D01*
X88489278Y-94817703D01*
X88487118Y-94832264D01*
X88483541Y-94846543D01*
X88478582Y-94860403D01*
X88472288Y-94873710D01*
X88464720Y-94886336D01*
X88455952Y-94898159D01*
X88446066Y-94909066D01*
X88435159Y-94918952D01*
X88423336Y-94927720D01*
X88410710Y-94935288D01*
X88397403Y-94941582D01*
X88383543Y-94946541D01*
X88369264Y-94950118D01*
X88354703Y-94952278D01*
X88340000Y-94953000D01*
X88040000Y-94953000D01*
X88025297Y-94952278D01*
X88010736Y-94950118D01*
X87996457Y-94946541D01*
X87982597Y-94941582D01*
X87969290Y-94935288D01*
X87956664Y-94927720D01*
X87944841Y-94918952D01*
X87933934Y-94909066D01*
X87924048Y-94898159D01*
X87915280Y-94886336D01*
X87907712Y-94873710D01*
X87901418Y-94860403D01*
X87896459Y-94846543D01*
X87892882Y-94832264D01*
X87890722Y-94817703D01*
X87890000Y-94803000D01*
X87890000Y-93053000D01*
X87890722Y-93038297D01*
X87892882Y-93023736D01*
X87896459Y-93009457D01*
X87901418Y-92995597D01*
X87907712Y-92982290D01*
X87915280Y-92969664D01*
X87924048Y-92957841D01*
X87933934Y-92946934D01*
X87944841Y-92937048D01*
X87956664Y-92928280D01*
X87969290Y-92920712D01*
X87982597Y-92914418D01*
X87996457Y-92909459D01*
X88010736Y-92905882D01*
X88025297Y-92903722D01*
X88040000Y-92903000D01*
X88340000Y-92903000D01*
X88354703Y-92903722D01*
G37*
G04 #@! TD.AperFunction*
G04 #@! TA.AperFunction,SMDPad,CuDef*
G36*
X89624703Y-92903722D02*
G01*
X89639264Y-92905882D01*
X89653543Y-92909459D01*
X89667403Y-92914418D01*
X89680710Y-92920712D01*
X89693336Y-92928280D01*
X89705159Y-92937048D01*
X89716066Y-92946934D01*
X89725952Y-92957841D01*
X89734720Y-92969664D01*
X89742288Y-92982290D01*
X89748582Y-92995597D01*
X89753541Y-93009457D01*
X89757118Y-93023736D01*
X89759278Y-93038297D01*
X89760000Y-93053000D01*
X89760000Y-94803000D01*
X89759278Y-94817703D01*
X89757118Y-94832264D01*
X89753541Y-94846543D01*
X89748582Y-94860403D01*
X89742288Y-94873710D01*
X89734720Y-94886336D01*
X89725952Y-94898159D01*
X89716066Y-94909066D01*
X89705159Y-94918952D01*
X89693336Y-94927720D01*
X89680710Y-94935288D01*
X89667403Y-94941582D01*
X89653543Y-94946541D01*
X89639264Y-94950118D01*
X89624703Y-94952278D01*
X89610000Y-94953000D01*
X89310000Y-94953000D01*
X89295297Y-94952278D01*
X89280736Y-94950118D01*
X89266457Y-94946541D01*
X89252597Y-94941582D01*
X89239290Y-94935288D01*
X89226664Y-94927720D01*
X89214841Y-94918952D01*
X89203934Y-94909066D01*
X89194048Y-94898159D01*
X89185280Y-94886336D01*
X89177712Y-94873710D01*
X89171418Y-94860403D01*
X89166459Y-94846543D01*
X89162882Y-94832264D01*
X89160722Y-94817703D01*
X89160000Y-94803000D01*
X89160000Y-93053000D01*
X89160722Y-93038297D01*
X89162882Y-93023736D01*
X89166459Y-93009457D01*
X89171418Y-92995597D01*
X89177712Y-92982290D01*
X89185280Y-92969664D01*
X89194048Y-92957841D01*
X89203934Y-92946934D01*
X89214841Y-92937048D01*
X89226664Y-92928280D01*
X89239290Y-92920712D01*
X89252597Y-92914418D01*
X89266457Y-92909459D01*
X89280736Y-92905882D01*
X89295297Y-92903722D01*
X89310000Y-92903000D01*
X89610000Y-92903000D01*
X89624703Y-92903722D01*
G37*
G04 #@! TD.AperFunction*
G04 #@! TA.AperFunction,SMDPad,CuDef*
G36*
X90894703Y-92903722D02*
G01*
X90909264Y-92905882D01*
X90923543Y-92909459D01*
X90937403Y-92914418D01*
X90950710Y-92920712D01*
X90963336Y-92928280D01*
X90975159Y-92937048D01*
X90986066Y-92946934D01*
X90995952Y-92957841D01*
X91004720Y-92969664D01*
X91012288Y-92982290D01*
X91018582Y-92995597D01*
X91023541Y-93009457D01*
X91027118Y-93023736D01*
X91029278Y-93038297D01*
X91030000Y-93053000D01*
X91030000Y-94803000D01*
X91029278Y-94817703D01*
X91027118Y-94832264D01*
X91023541Y-94846543D01*
X91018582Y-94860403D01*
X91012288Y-94873710D01*
X91004720Y-94886336D01*
X90995952Y-94898159D01*
X90986066Y-94909066D01*
X90975159Y-94918952D01*
X90963336Y-94927720D01*
X90950710Y-94935288D01*
X90937403Y-94941582D01*
X90923543Y-94946541D01*
X90909264Y-94950118D01*
X90894703Y-94952278D01*
X90880000Y-94953000D01*
X90580000Y-94953000D01*
X90565297Y-94952278D01*
X90550736Y-94950118D01*
X90536457Y-94946541D01*
X90522597Y-94941582D01*
X90509290Y-94935288D01*
X90496664Y-94927720D01*
X90484841Y-94918952D01*
X90473934Y-94909066D01*
X90464048Y-94898159D01*
X90455280Y-94886336D01*
X90447712Y-94873710D01*
X90441418Y-94860403D01*
X90436459Y-94846543D01*
X90432882Y-94832264D01*
X90430722Y-94817703D01*
X90430000Y-94803000D01*
X90430000Y-93053000D01*
X90430722Y-93038297D01*
X90432882Y-93023736D01*
X90436459Y-93009457D01*
X90441418Y-92995597D01*
X90447712Y-92982290D01*
X90455280Y-92969664D01*
X90464048Y-92957841D01*
X90473934Y-92946934D01*
X90484841Y-92937048D01*
X90496664Y-92928280D01*
X90509290Y-92920712D01*
X90522597Y-92914418D01*
X90536457Y-92909459D01*
X90550736Y-92905882D01*
X90565297Y-92903722D01*
X90580000Y-92903000D01*
X90880000Y-92903000D01*
X90894703Y-92903722D01*
G37*
G04 #@! TD.AperFunction*
G04 #@! TA.AperFunction,SMDPad,CuDef*
G36*
X92164703Y-92903722D02*
G01*
X92179264Y-92905882D01*
X92193543Y-92909459D01*
X92207403Y-92914418D01*
X92220710Y-92920712D01*
X92233336Y-92928280D01*
X92245159Y-92937048D01*
X92256066Y-92946934D01*
X92265952Y-92957841D01*
X92274720Y-92969664D01*
X92282288Y-92982290D01*
X92288582Y-92995597D01*
X92293541Y-93009457D01*
X92297118Y-93023736D01*
X92299278Y-93038297D01*
X92300000Y-93053000D01*
X92300000Y-94803000D01*
X92299278Y-94817703D01*
X92297118Y-94832264D01*
X92293541Y-94846543D01*
X92288582Y-94860403D01*
X92282288Y-94873710D01*
X92274720Y-94886336D01*
X92265952Y-94898159D01*
X92256066Y-94909066D01*
X92245159Y-94918952D01*
X92233336Y-94927720D01*
X92220710Y-94935288D01*
X92207403Y-94941582D01*
X92193543Y-94946541D01*
X92179264Y-94950118D01*
X92164703Y-94952278D01*
X92150000Y-94953000D01*
X91850000Y-94953000D01*
X91835297Y-94952278D01*
X91820736Y-94950118D01*
X91806457Y-94946541D01*
X91792597Y-94941582D01*
X91779290Y-94935288D01*
X91766664Y-94927720D01*
X91754841Y-94918952D01*
X91743934Y-94909066D01*
X91734048Y-94898159D01*
X91725280Y-94886336D01*
X91717712Y-94873710D01*
X91711418Y-94860403D01*
X91706459Y-94846543D01*
X91702882Y-94832264D01*
X91700722Y-94817703D01*
X91700000Y-94803000D01*
X91700000Y-93053000D01*
X91700722Y-93038297D01*
X91702882Y-93023736D01*
X91706459Y-93009457D01*
X91711418Y-92995597D01*
X91717712Y-92982290D01*
X91725280Y-92969664D01*
X91734048Y-92957841D01*
X91743934Y-92946934D01*
X91754841Y-92937048D01*
X91766664Y-92928280D01*
X91779290Y-92920712D01*
X91792597Y-92914418D01*
X91806457Y-92909459D01*
X91820736Y-92905882D01*
X91835297Y-92903722D01*
X91850000Y-92903000D01*
X92150000Y-92903000D01*
X92164703Y-92903722D01*
G37*
G04 #@! TD.AperFunction*
G04 #@! TA.AperFunction,SMDPad,CuDef*
G36*
X93434703Y-92903722D02*
G01*
X93449264Y-92905882D01*
X93463543Y-92909459D01*
X93477403Y-92914418D01*
X93490710Y-92920712D01*
X93503336Y-92928280D01*
X93515159Y-92937048D01*
X93526066Y-92946934D01*
X93535952Y-92957841D01*
X93544720Y-92969664D01*
X93552288Y-92982290D01*
X93558582Y-92995597D01*
X93563541Y-93009457D01*
X93567118Y-93023736D01*
X93569278Y-93038297D01*
X93570000Y-93053000D01*
X93570000Y-94803000D01*
X93569278Y-94817703D01*
X93567118Y-94832264D01*
X93563541Y-94846543D01*
X93558582Y-94860403D01*
X93552288Y-94873710D01*
X93544720Y-94886336D01*
X93535952Y-94898159D01*
X93526066Y-94909066D01*
X93515159Y-94918952D01*
X93503336Y-94927720D01*
X93490710Y-94935288D01*
X93477403Y-94941582D01*
X93463543Y-94946541D01*
X93449264Y-94950118D01*
X93434703Y-94952278D01*
X93420000Y-94953000D01*
X93120000Y-94953000D01*
X93105297Y-94952278D01*
X93090736Y-94950118D01*
X93076457Y-94946541D01*
X93062597Y-94941582D01*
X93049290Y-94935288D01*
X93036664Y-94927720D01*
X93024841Y-94918952D01*
X93013934Y-94909066D01*
X93004048Y-94898159D01*
X92995280Y-94886336D01*
X92987712Y-94873710D01*
X92981418Y-94860403D01*
X92976459Y-94846543D01*
X92972882Y-94832264D01*
X92970722Y-94817703D01*
X92970000Y-94803000D01*
X92970000Y-93053000D01*
X92970722Y-93038297D01*
X92972882Y-93023736D01*
X92976459Y-93009457D01*
X92981418Y-92995597D01*
X92987712Y-92982290D01*
X92995280Y-92969664D01*
X93004048Y-92957841D01*
X93013934Y-92946934D01*
X93024841Y-92937048D01*
X93036664Y-92928280D01*
X93049290Y-92920712D01*
X93062597Y-92914418D01*
X93076457Y-92909459D01*
X93090736Y-92905882D01*
X93105297Y-92903722D01*
X93120000Y-92903000D01*
X93420000Y-92903000D01*
X93434703Y-92903722D01*
G37*
G04 #@! TD.AperFunction*
G04 #@! TA.AperFunction,SMDPad,CuDef*
G36*
X94704703Y-92903722D02*
G01*
X94719264Y-92905882D01*
X94733543Y-92909459D01*
X94747403Y-92914418D01*
X94760710Y-92920712D01*
X94773336Y-92928280D01*
X94785159Y-92937048D01*
X94796066Y-92946934D01*
X94805952Y-92957841D01*
X94814720Y-92969664D01*
X94822288Y-92982290D01*
X94828582Y-92995597D01*
X94833541Y-93009457D01*
X94837118Y-93023736D01*
X94839278Y-93038297D01*
X94840000Y-93053000D01*
X94840000Y-94803000D01*
X94839278Y-94817703D01*
X94837118Y-94832264D01*
X94833541Y-94846543D01*
X94828582Y-94860403D01*
X94822288Y-94873710D01*
X94814720Y-94886336D01*
X94805952Y-94898159D01*
X94796066Y-94909066D01*
X94785159Y-94918952D01*
X94773336Y-94927720D01*
X94760710Y-94935288D01*
X94747403Y-94941582D01*
X94733543Y-94946541D01*
X94719264Y-94950118D01*
X94704703Y-94952278D01*
X94690000Y-94953000D01*
X94390000Y-94953000D01*
X94375297Y-94952278D01*
X94360736Y-94950118D01*
X94346457Y-94946541D01*
X94332597Y-94941582D01*
X94319290Y-94935288D01*
X94306664Y-94927720D01*
X94294841Y-94918952D01*
X94283934Y-94909066D01*
X94274048Y-94898159D01*
X94265280Y-94886336D01*
X94257712Y-94873710D01*
X94251418Y-94860403D01*
X94246459Y-94846543D01*
X94242882Y-94832264D01*
X94240722Y-94817703D01*
X94240000Y-94803000D01*
X94240000Y-93053000D01*
X94240722Y-93038297D01*
X94242882Y-93023736D01*
X94246459Y-93009457D01*
X94251418Y-92995597D01*
X94257712Y-92982290D01*
X94265280Y-92969664D01*
X94274048Y-92957841D01*
X94283934Y-92946934D01*
X94294841Y-92937048D01*
X94306664Y-92928280D01*
X94319290Y-92920712D01*
X94332597Y-92914418D01*
X94346457Y-92909459D01*
X94360736Y-92905882D01*
X94375297Y-92903722D01*
X94390000Y-92903000D01*
X94690000Y-92903000D01*
X94704703Y-92903722D01*
G37*
G04 #@! TD.AperFunction*
G04 #@! TA.AperFunction,SMDPad,CuDef*
G36*
X95974703Y-92903722D02*
G01*
X95989264Y-92905882D01*
X96003543Y-92909459D01*
X96017403Y-92914418D01*
X96030710Y-92920712D01*
X96043336Y-92928280D01*
X96055159Y-92937048D01*
X96066066Y-92946934D01*
X96075952Y-92957841D01*
X96084720Y-92969664D01*
X96092288Y-92982290D01*
X96098582Y-92995597D01*
X96103541Y-93009457D01*
X96107118Y-93023736D01*
X96109278Y-93038297D01*
X96110000Y-93053000D01*
X96110000Y-94803000D01*
X96109278Y-94817703D01*
X96107118Y-94832264D01*
X96103541Y-94846543D01*
X96098582Y-94860403D01*
X96092288Y-94873710D01*
X96084720Y-94886336D01*
X96075952Y-94898159D01*
X96066066Y-94909066D01*
X96055159Y-94918952D01*
X96043336Y-94927720D01*
X96030710Y-94935288D01*
X96017403Y-94941582D01*
X96003543Y-94946541D01*
X95989264Y-94950118D01*
X95974703Y-94952278D01*
X95960000Y-94953000D01*
X95660000Y-94953000D01*
X95645297Y-94952278D01*
X95630736Y-94950118D01*
X95616457Y-94946541D01*
X95602597Y-94941582D01*
X95589290Y-94935288D01*
X95576664Y-94927720D01*
X95564841Y-94918952D01*
X95553934Y-94909066D01*
X95544048Y-94898159D01*
X95535280Y-94886336D01*
X95527712Y-94873710D01*
X95521418Y-94860403D01*
X95516459Y-94846543D01*
X95512882Y-94832264D01*
X95510722Y-94817703D01*
X95510000Y-94803000D01*
X95510000Y-93053000D01*
X95510722Y-93038297D01*
X95512882Y-93023736D01*
X95516459Y-93009457D01*
X95521418Y-92995597D01*
X95527712Y-92982290D01*
X95535280Y-92969664D01*
X95544048Y-92957841D01*
X95553934Y-92946934D01*
X95564841Y-92937048D01*
X95576664Y-92928280D01*
X95589290Y-92920712D01*
X95602597Y-92914418D01*
X95616457Y-92909459D01*
X95630736Y-92905882D01*
X95645297Y-92903722D01*
X95660000Y-92903000D01*
X95960000Y-92903000D01*
X95974703Y-92903722D01*
G37*
G04 #@! TD.AperFunction*
G04 #@! TA.AperFunction,SMDPad,CuDef*
G36*
X95974703Y-83603722D02*
G01*
X95989264Y-83605882D01*
X96003543Y-83609459D01*
X96017403Y-83614418D01*
X96030710Y-83620712D01*
X96043336Y-83628280D01*
X96055159Y-83637048D01*
X96066066Y-83646934D01*
X96075952Y-83657841D01*
X96084720Y-83669664D01*
X96092288Y-83682290D01*
X96098582Y-83695597D01*
X96103541Y-83709457D01*
X96107118Y-83723736D01*
X96109278Y-83738297D01*
X96110000Y-83753000D01*
X96110000Y-85503000D01*
X96109278Y-85517703D01*
X96107118Y-85532264D01*
X96103541Y-85546543D01*
X96098582Y-85560403D01*
X96092288Y-85573710D01*
X96084720Y-85586336D01*
X96075952Y-85598159D01*
X96066066Y-85609066D01*
X96055159Y-85618952D01*
X96043336Y-85627720D01*
X96030710Y-85635288D01*
X96017403Y-85641582D01*
X96003543Y-85646541D01*
X95989264Y-85650118D01*
X95974703Y-85652278D01*
X95960000Y-85653000D01*
X95660000Y-85653000D01*
X95645297Y-85652278D01*
X95630736Y-85650118D01*
X95616457Y-85646541D01*
X95602597Y-85641582D01*
X95589290Y-85635288D01*
X95576664Y-85627720D01*
X95564841Y-85618952D01*
X95553934Y-85609066D01*
X95544048Y-85598159D01*
X95535280Y-85586336D01*
X95527712Y-85573710D01*
X95521418Y-85560403D01*
X95516459Y-85546543D01*
X95512882Y-85532264D01*
X95510722Y-85517703D01*
X95510000Y-85503000D01*
X95510000Y-83753000D01*
X95510722Y-83738297D01*
X95512882Y-83723736D01*
X95516459Y-83709457D01*
X95521418Y-83695597D01*
X95527712Y-83682290D01*
X95535280Y-83669664D01*
X95544048Y-83657841D01*
X95553934Y-83646934D01*
X95564841Y-83637048D01*
X95576664Y-83628280D01*
X95589290Y-83620712D01*
X95602597Y-83614418D01*
X95616457Y-83609459D01*
X95630736Y-83605882D01*
X95645297Y-83603722D01*
X95660000Y-83603000D01*
X95960000Y-83603000D01*
X95974703Y-83603722D01*
G37*
G04 #@! TD.AperFunction*
G04 #@! TA.AperFunction,SMDPad,CuDef*
G36*
X94704703Y-83603722D02*
G01*
X94719264Y-83605882D01*
X94733543Y-83609459D01*
X94747403Y-83614418D01*
X94760710Y-83620712D01*
X94773336Y-83628280D01*
X94785159Y-83637048D01*
X94796066Y-83646934D01*
X94805952Y-83657841D01*
X94814720Y-83669664D01*
X94822288Y-83682290D01*
X94828582Y-83695597D01*
X94833541Y-83709457D01*
X94837118Y-83723736D01*
X94839278Y-83738297D01*
X94840000Y-83753000D01*
X94840000Y-85503000D01*
X94839278Y-85517703D01*
X94837118Y-85532264D01*
X94833541Y-85546543D01*
X94828582Y-85560403D01*
X94822288Y-85573710D01*
X94814720Y-85586336D01*
X94805952Y-85598159D01*
X94796066Y-85609066D01*
X94785159Y-85618952D01*
X94773336Y-85627720D01*
X94760710Y-85635288D01*
X94747403Y-85641582D01*
X94733543Y-85646541D01*
X94719264Y-85650118D01*
X94704703Y-85652278D01*
X94690000Y-85653000D01*
X94390000Y-85653000D01*
X94375297Y-85652278D01*
X94360736Y-85650118D01*
X94346457Y-85646541D01*
X94332597Y-85641582D01*
X94319290Y-85635288D01*
X94306664Y-85627720D01*
X94294841Y-85618952D01*
X94283934Y-85609066D01*
X94274048Y-85598159D01*
X94265280Y-85586336D01*
X94257712Y-85573710D01*
X94251418Y-85560403D01*
X94246459Y-85546543D01*
X94242882Y-85532264D01*
X94240722Y-85517703D01*
X94240000Y-85503000D01*
X94240000Y-83753000D01*
X94240722Y-83738297D01*
X94242882Y-83723736D01*
X94246459Y-83709457D01*
X94251418Y-83695597D01*
X94257712Y-83682290D01*
X94265280Y-83669664D01*
X94274048Y-83657841D01*
X94283934Y-83646934D01*
X94294841Y-83637048D01*
X94306664Y-83628280D01*
X94319290Y-83620712D01*
X94332597Y-83614418D01*
X94346457Y-83609459D01*
X94360736Y-83605882D01*
X94375297Y-83603722D01*
X94390000Y-83603000D01*
X94690000Y-83603000D01*
X94704703Y-83603722D01*
G37*
G04 #@! TD.AperFunction*
G04 #@! TA.AperFunction,SMDPad,CuDef*
G36*
X93434703Y-83603722D02*
G01*
X93449264Y-83605882D01*
X93463543Y-83609459D01*
X93477403Y-83614418D01*
X93490710Y-83620712D01*
X93503336Y-83628280D01*
X93515159Y-83637048D01*
X93526066Y-83646934D01*
X93535952Y-83657841D01*
X93544720Y-83669664D01*
X93552288Y-83682290D01*
X93558582Y-83695597D01*
X93563541Y-83709457D01*
X93567118Y-83723736D01*
X93569278Y-83738297D01*
X93570000Y-83753000D01*
X93570000Y-85503000D01*
X93569278Y-85517703D01*
X93567118Y-85532264D01*
X93563541Y-85546543D01*
X93558582Y-85560403D01*
X93552288Y-85573710D01*
X93544720Y-85586336D01*
X93535952Y-85598159D01*
X93526066Y-85609066D01*
X93515159Y-85618952D01*
X93503336Y-85627720D01*
X93490710Y-85635288D01*
X93477403Y-85641582D01*
X93463543Y-85646541D01*
X93449264Y-85650118D01*
X93434703Y-85652278D01*
X93420000Y-85653000D01*
X93120000Y-85653000D01*
X93105297Y-85652278D01*
X93090736Y-85650118D01*
X93076457Y-85646541D01*
X93062597Y-85641582D01*
X93049290Y-85635288D01*
X93036664Y-85627720D01*
X93024841Y-85618952D01*
X93013934Y-85609066D01*
X93004048Y-85598159D01*
X92995280Y-85586336D01*
X92987712Y-85573710D01*
X92981418Y-85560403D01*
X92976459Y-85546543D01*
X92972882Y-85532264D01*
X92970722Y-85517703D01*
X92970000Y-85503000D01*
X92970000Y-83753000D01*
X92970722Y-83738297D01*
X92972882Y-83723736D01*
X92976459Y-83709457D01*
X92981418Y-83695597D01*
X92987712Y-83682290D01*
X92995280Y-83669664D01*
X93004048Y-83657841D01*
X93013934Y-83646934D01*
X93024841Y-83637048D01*
X93036664Y-83628280D01*
X93049290Y-83620712D01*
X93062597Y-83614418D01*
X93076457Y-83609459D01*
X93090736Y-83605882D01*
X93105297Y-83603722D01*
X93120000Y-83603000D01*
X93420000Y-83603000D01*
X93434703Y-83603722D01*
G37*
G04 #@! TD.AperFunction*
G04 #@! TA.AperFunction,SMDPad,CuDef*
G36*
X92164703Y-83603722D02*
G01*
X92179264Y-83605882D01*
X92193543Y-83609459D01*
X92207403Y-83614418D01*
X92220710Y-83620712D01*
X92233336Y-83628280D01*
X92245159Y-83637048D01*
X92256066Y-83646934D01*
X92265952Y-83657841D01*
X92274720Y-83669664D01*
X92282288Y-83682290D01*
X92288582Y-83695597D01*
X92293541Y-83709457D01*
X92297118Y-83723736D01*
X92299278Y-83738297D01*
X92300000Y-83753000D01*
X92300000Y-85503000D01*
X92299278Y-85517703D01*
X92297118Y-85532264D01*
X92293541Y-85546543D01*
X92288582Y-85560403D01*
X92282288Y-85573710D01*
X92274720Y-85586336D01*
X92265952Y-85598159D01*
X92256066Y-85609066D01*
X92245159Y-85618952D01*
X92233336Y-85627720D01*
X92220710Y-85635288D01*
X92207403Y-85641582D01*
X92193543Y-85646541D01*
X92179264Y-85650118D01*
X92164703Y-85652278D01*
X92150000Y-85653000D01*
X91850000Y-85653000D01*
X91835297Y-85652278D01*
X91820736Y-85650118D01*
X91806457Y-85646541D01*
X91792597Y-85641582D01*
X91779290Y-85635288D01*
X91766664Y-85627720D01*
X91754841Y-85618952D01*
X91743934Y-85609066D01*
X91734048Y-85598159D01*
X91725280Y-85586336D01*
X91717712Y-85573710D01*
X91711418Y-85560403D01*
X91706459Y-85546543D01*
X91702882Y-85532264D01*
X91700722Y-85517703D01*
X91700000Y-85503000D01*
X91700000Y-83753000D01*
X91700722Y-83738297D01*
X91702882Y-83723736D01*
X91706459Y-83709457D01*
X91711418Y-83695597D01*
X91717712Y-83682290D01*
X91725280Y-83669664D01*
X91734048Y-83657841D01*
X91743934Y-83646934D01*
X91754841Y-83637048D01*
X91766664Y-83628280D01*
X91779290Y-83620712D01*
X91792597Y-83614418D01*
X91806457Y-83609459D01*
X91820736Y-83605882D01*
X91835297Y-83603722D01*
X91850000Y-83603000D01*
X92150000Y-83603000D01*
X92164703Y-83603722D01*
G37*
G04 #@! TD.AperFunction*
G04 #@! TA.AperFunction,SMDPad,CuDef*
G36*
X90894703Y-83603722D02*
G01*
X90909264Y-83605882D01*
X90923543Y-83609459D01*
X90937403Y-83614418D01*
X90950710Y-83620712D01*
X90963336Y-83628280D01*
X90975159Y-83637048D01*
X90986066Y-83646934D01*
X90995952Y-83657841D01*
X91004720Y-83669664D01*
X91012288Y-83682290D01*
X91018582Y-83695597D01*
X91023541Y-83709457D01*
X91027118Y-83723736D01*
X91029278Y-83738297D01*
X91030000Y-83753000D01*
X91030000Y-85503000D01*
X91029278Y-85517703D01*
X91027118Y-85532264D01*
X91023541Y-85546543D01*
X91018582Y-85560403D01*
X91012288Y-85573710D01*
X91004720Y-85586336D01*
X90995952Y-85598159D01*
X90986066Y-85609066D01*
X90975159Y-85618952D01*
X90963336Y-85627720D01*
X90950710Y-85635288D01*
X90937403Y-85641582D01*
X90923543Y-85646541D01*
X90909264Y-85650118D01*
X90894703Y-85652278D01*
X90880000Y-85653000D01*
X90580000Y-85653000D01*
X90565297Y-85652278D01*
X90550736Y-85650118D01*
X90536457Y-85646541D01*
X90522597Y-85641582D01*
X90509290Y-85635288D01*
X90496664Y-85627720D01*
X90484841Y-85618952D01*
X90473934Y-85609066D01*
X90464048Y-85598159D01*
X90455280Y-85586336D01*
X90447712Y-85573710D01*
X90441418Y-85560403D01*
X90436459Y-85546543D01*
X90432882Y-85532264D01*
X90430722Y-85517703D01*
X90430000Y-85503000D01*
X90430000Y-83753000D01*
X90430722Y-83738297D01*
X90432882Y-83723736D01*
X90436459Y-83709457D01*
X90441418Y-83695597D01*
X90447712Y-83682290D01*
X90455280Y-83669664D01*
X90464048Y-83657841D01*
X90473934Y-83646934D01*
X90484841Y-83637048D01*
X90496664Y-83628280D01*
X90509290Y-83620712D01*
X90522597Y-83614418D01*
X90536457Y-83609459D01*
X90550736Y-83605882D01*
X90565297Y-83603722D01*
X90580000Y-83603000D01*
X90880000Y-83603000D01*
X90894703Y-83603722D01*
G37*
G04 #@! TD.AperFunction*
G04 #@! TA.AperFunction,SMDPad,CuDef*
G36*
X89624703Y-83603722D02*
G01*
X89639264Y-83605882D01*
X89653543Y-83609459D01*
X89667403Y-83614418D01*
X89680710Y-83620712D01*
X89693336Y-83628280D01*
X89705159Y-83637048D01*
X89716066Y-83646934D01*
X89725952Y-83657841D01*
X89734720Y-83669664D01*
X89742288Y-83682290D01*
X89748582Y-83695597D01*
X89753541Y-83709457D01*
X89757118Y-83723736D01*
X89759278Y-83738297D01*
X89760000Y-83753000D01*
X89760000Y-85503000D01*
X89759278Y-85517703D01*
X89757118Y-85532264D01*
X89753541Y-85546543D01*
X89748582Y-85560403D01*
X89742288Y-85573710D01*
X89734720Y-85586336D01*
X89725952Y-85598159D01*
X89716066Y-85609066D01*
X89705159Y-85618952D01*
X89693336Y-85627720D01*
X89680710Y-85635288D01*
X89667403Y-85641582D01*
X89653543Y-85646541D01*
X89639264Y-85650118D01*
X89624703Y-85652278D01*
X89610000Y-85653000D01*
X89310000Y-85653000D01*
X89295297Y-85652278D01*
X89280736Y-85650118D01*
X89266457Y-85646541D01*
X89252597Y-85641582D01*
X89239290Y-85635288D01*
X89226664Y-85627720D01*
X89214841Y-85618952D01*
X89203934Y-85609066D01*
X89194048Y-85598159D01*
X89185280Y-85586336D01*
X89177712Y-85573710D01*
X89171418Y-85560403D01*
X89166459Y-85546543D01*
X89162882Y-85532264D01*
X89160722Y-85517703D01*
X89160000Y-85503000D01*
X89160000Y-83753000D01*
X89160722Y-83738297D01*
X89162882Y-83723736D01*
X89166459Y-83709457D01*
X89171418Y-83695597D01*
X89177712Y-83682290D01*
X89185280Y-83669664D01*
X89194048Y-83657841D01*
X89203934Y-83646934D01*
X89214841Y-83637048D01*
X89226664Y-83628280D01*
X89239290Y-83620712D01*
X89252597Y-83614418D01*
X89266457Y-83609459D01*
X89280736Y-83605882D01*
X89295297Y-83603722D01*
X89310000Y-83603000D01*
X89610000Y-83603000D01*
X89624703Y-83603722D01*
G37*
G04 #@! TD.AperFunction*
G04 #@! TA.AperFunction,SMDPad,CuDef*
G36*
X88354703Y-83603722D02*
G01*
X88369264Y-83605882D01*
X88383543Y-83609459D01*
X88397403Y-83614418D01*
X88410710Y-83620712D01*
X88423336Y-83628280D01*
X88435159Y-83637048D01*
X88446066Y-83646934D01*
X88455952Y-83657841D01*
X88464720Y-83669664D01*
X88472288Y-83682290D01*
X88478582Y-83695597D01*
X88483541Y-83709457D01*
X88487118Y-83723736D01*
X88489278Y-83738297D01*
X88490000Y-83753000D01*
X88490000Y-85503000D01*
X88489278Y-85517703D01*
X88487118Y-85532264D01*
X88483541Y-85546543D01*
X88478582Y-85560403D01*
X88472288Y-85573710D01*
X88464720Y-85586336D01*
X88455952Y-85598159D01*
X88446066Y-85609066D01*
X88435159Y-85618952D01*
X88423336Y-85627720D01*
X88410710Y-85635288D01*
X88397403Y-85641582D01*
X88383543Y-85646541D01*
X88369264Y-85650118D01*
X88354703Y-85652278D01*
X88340000Y-85653000D01*
X88040000Y-85653000D01*
X88025297Y-85652278D01*
X88010736Y-85650118D01*
X87996457Y-85646541D01*
X87982597Y-85641582D01*
X87969290Y-85635288D01*
X87956664Y-85627720D01*
X87944841Y-85618952D01*
X87933934Y-85609066D01*
X87924048Y-85598159D01*
X87915280Y-85586336D01*
X87907712Y-85573710D01*
X87901418Y-85560403D01*
X87896459Y-85546543D01*
X87892882Y-85532264D01*
X87890722Y-85517703D01*
X87890000Y-85503000D01*
X87890000Y-83753000D01*
X87890722Y-83738297D01*
X87892882Y-83723736D01*
X87896459Y-83709457D01*
X87901418Y-83695597D01*
X87907712Y-83682290D01*
X87915280Y-83669664D01*
X87924048Y-83657841D01*
X87933934Y-83646934D01*
X87944841Y-83637048D01*
X87956664Y-83628280D01*
X87969290Y-83620712D01*
X87982597Y-83614418D01*
X87996457Y-83609459D01*
X88010736Y-83605882D01*
X88025297Y-83603722D01*
X88040000Y-83603000D01*
X88340000Y-83603000D01*
X88354703Y-83603722D01*
G37*
G04 #@! TD.AperFunction*
G04 #@! TA.AperFunction,SMDPad,CuDef*
G36*
X90354811Y-97654241D02*
G01*
X90359674Y-97654963D01*
X90364443Y-97656157D01*
X90369072Y-97657814D01*
X90373517Y-97659916D01*
X90377734Y-97662443D01*
X90381683Y-97665372D01*
X90385326Y-97668674D01*
X90388628Y-97672317D01*
X90391557Y-97676266D01*
X90394084Y-97680483D01*
X90396186Y-97684928D01*
X90397843Y-97689557D01*
X90399037Y-97694326D01*
X90399759Y-97699189D01*
X90400000Y-97704100D01*
X90400000Y-98803900D01*
X90399759Y-98808811D01*
X90399037Y-98813674D01*
X90397843Y-98818443D01*
X90396186Y-98823072D01*
X90394084Y-98827517D01*
X90391557Y-98831734D01*
X90388628Y-98835683D01*
X90385326Y-98839326D01*
X90381683Y-98842628D01*
X90377734Y-98845557D01*
X90373517Y-98848084D01*
X90369072Y-98850186D01*
X90364443Y-98851843D01*
X90359674Y-98853037D01*
X90354811Y-98853759D01*
X90349900Y-98854000D01*
X90150100Y-98854000D01*
X90145189Y-98853759D01*
X90140326Y-98853037D01*
X90135557Y-98851843D01*
X90130928Y-98850186D01*
X90126483Y-98848084D01*
X90122266Y-98845557D01*
X90118317Y-98842628D01*
X90114674Y-98839326D01*
X90111372Y-98835683D01*
X90108443Y-98831734D01*
X90105916Y-98827517D01*
X90103814Y-98823072D01*
X90102157Y-98818443D01*
X90100963Y-98813674D01*
X90100241Y-98808811D01*
X90100000Y-98803900D01*
X90100000Y-97704100D01*
X90100241Y-97699189D01*
X90100963Y-97694326D01*
X90102157Y-97689557D01*
X90103814Y-97684928D01*
X90105916Y-97680483D01*
X90108443Y-97676266D01*
X90111372Y-97672317D01*
X90114674Y-97668674D01*
X90118317Y-97665372D01*
X90122266Y-97662443D01*
X90126483Y-97659916D01*
X90130928Y-97657814D01*
X90135557Y-97656157D01*
X90140326Y-97654963D01*
X90145189Y-97654241D01*
X90150100Y-97654000D01*
X90349900Y-97654000D01*
X90354811Y-97654241D01*
G37*
G04 #@! TD.AperFunction*
G04 #@! TA.AperFunction,SMDPad,CuDef*
G36*
X90854811Y-97654241D02*
G01*
X90859674Y-97654963D01*
X90864443Y-97656157D01*
X90869072Y-97657814D01*
X90873517Y-97659916D01*
X90877734Y-97662443D01*
X90881683Y-97665372D01*
X90885326Y-97668674D01*
X90888628Y-97672317D01*
X90891557Y-97676266D01*
X90894084Y-97680483D01*
X90896186Y-97684928D01*
X90897843Y-97689557D01*
X90899037Y-97694326D01*
X90899759Y-97699189D01*
X90900000Y-97704100D01*
X90900000Y-98803900D01*
X90899759Y-98808811D01*
X90899037Y-98813674D01*
X90897843Y-98818443D01*
X90896186Y-98823072D01*
X90894084Y-98827517D01*
X90891557Y-98831734D01*
X90888628Y-98835683D01*
X90885326Y-98839326D01*
X90881683Y-98842628D01*
X90877734Y-98845557D01*
X90873517Y-98848084D01*
X90869072Y-98850186D01*
X90864443Y-98851843D01*
X90859674Y-98853037D01*
X90854811Y-98853759D01*
X90849900Y-98854000D01*
X90650100Y-98854000D01*
X90645189Y-98853759D01*
X90640326Y-98853037D01*
X90635557Y-98851843D01*
X90630928Y-98850186D01*
X90626483Y-98848084D01*
X90622266Y-98845557D01*
X90618317Y-98842628D01*
X90614674Y-98839326D01*
X90611372Y-98835683D01*
X90608443Y-98831734D01*
X90605916Y-98827517D01*
X90603814Y-98823072D01*
X90602157Y-98818443D01*
X90600963Y-98813674D01*
X90600241Y-98808811D01*
X90600000Y-98803900D01*
X90600000Y-97704100D01*
X90600241Y-97699189D01*
X90600963Y-97694326D01*
X90602157Y-97689557D01*
X90603814Y-97684928D01*
X90605916Y-97680483D01*
X90608443Y-97676266D01*
X90611372Y-97672317D01*
X90614674Y-97668674D01*
X90618317Y-97665372D01*
X90622266Y-97662443D01*
X90626483Y-97659916D01*
X90630928Y-97657814D01*
X90635557Y-97656157D01*
X90640326Y-97654963D01*
X90645189Y-97654241D01*
X90650100Y-97654000D01*
X90849900Y-97654000D01*
X90854811Y-97654241D01*
G37*
G04 #@! TD.AperFunction*
G04 #@! TA.AperFunction,SMDPad,CuDef*
G36*
X91354811Y-97654241D02*
G01*
X91359674Y-97654963D01*
X91364443Y-97656157D01*
X91369072Y-97657814D01*
X91373517Y-97659916D01*
X91377734Y-97662443D01*
X91381683Y-97665372D01*
X91385326Y-97668674D01*
X91388628Y-97672317D01*
X91391557Y-97676266D01*
X91394084Y-97680483D01*
X91396186Y-97684928D01*
X91397843Y-97689557D01*
X91399037Y-97694326D01*
X91399759Y-97699189D01*
X91400000Y-97704100D01*
X91400000Y-98803900D01*
X91399759Y-98808811D01*
X91399037Y-98813674D01*
X91397843Y-98818443D01*
X91396186Y-98823072D01*
X91394084Y-98827517D01*
X91391557Y-98831734D01*
X91388628Y-98835683D01*
X91385326Y-98839326D01*
X91381683Y-98842628D01*
X91377734Y-98845557D01*
X91373517Y-98848084D01*
X91369072Y-98850186D01*
X91364443Y-98851843D01*
X91359674Y-98853037D01*
X91354811Y-98853759D01*
X91349900Y-98854000D01*
X91150100Y-98854000D01*
X91145189Y-98853759D01*
X91140326Y-98853037D01*
X91135557Y-98851843D01*
X91130928Y-98850186D01*
X91126483Y-98848084D01*
X91122266Y-98845557D01*
X91118317Y-98842628D01*
X91114674Y-98839326D01*
X91111372Y-98835683D01*
X91108443Y-98831734D01*
X91105916Y-98827517D01*
X91103814Y-98823072D01*
X91102157Y-98818443D01*
X91100963Y-98813674D01*
X91100241Y-98808811D01*
X91100000Y-98803900D01*
X91100000Y-97704100D01*
X91100241Y-97699189D01*
X91100963Y-97694326D01*
X91102157Y-97689557D01*
X91103814Y-97684928D01*
X91105916Y-97680483D01*
X91108443Y-97676266D01*
X91111372Y-97672317D01*
X91114674Y-97668674D01*
X91118317Y-97665372D01*
X91122266Y-97662443D01*
X91126483Y-97659916D01*
X91130928Y-97657814D01*
X91135557Y-97656157D01*
X91140326Y-97654963D01*
X91145189Y-97654241D01*
X91150100Y-97654000D01*
X91349900Y-97654000D01*
X91354811Y-97654241D01*
G37*
G04 #@! TD.AperFunction*
G04 #@! TA.AperFunction,SMDPad,CuDef*
G36*
X91854811Y-97654241D02*
G01*
X91859674Y-97654963D01*
X91864443Y-97656157D01*
X91869072Y-97657814D01*
X91873517Y-97659916D01*
X91877734Y-97662443D01*
X91881683Y-97665372D01*
X91885326Y-97668674D01*
X91888628Y-97672317D01*
X91891557Y-97676266D01*
X91894084Y-97680483D01*
X91896186Y-97684928D01*
X91897843Y-97689557D01*
X91899037Y-97694326D01*
X91899759Y-97699189D01*
X91900000Y-97704100D01*
X91900000Y-98803900D01*
X91899759Y-98808811D01*
X91899037Y-98813674D01*
X91897843Y-98818443D01*
X91896186Y-98823072D01*
X91894084Y-98827517D01*
X91891557Y-98831734D01*
X91888628Y-98835683D01*
X91885326Y-98839326D01*
X91881683Y-98842628D01*
X91877734Y-98845557D01*
X91873517Y-98848084D01*
X91869072Y-98850186D01*
X91864443Y-98851843D01*
X91859674Y-98853037D01*
X91854811Y-98853759D01*
X91849900Y-98854000D01*
X91650100Y-98854000D01*
X91645189Y-98853759D01*
X91640326Y-98853037D01*
X91635557Y-98851843D01*
X91630928Y-98850186D01*
X91626483Y-98848084D01*
X91622266Y-98845557D01*
X91618317Y-98842628D01*
X91614674Y-98839326D01*
X91611372Y-98835683D01*
X91608443Y-98831734D01*
X91605916Y-98827517D01*
X91603814Y-98823072D01*
X91602157Y-98818443D01*
X91600963Y-98813674D01*
X91600241Y-98808811D01*
X91600000Y-98803900D01*
X91600000Y-97704100D01*
X91600241Y-97699189D01*
X91600963Y-97694326D01*
X91602157Y-97689557D01*
X91603814Y-97684928D01*
X91605916Y-97680483D01*
X91608443Y-97676266D01*
X91611372Y-97672317D01*
X91614674Y-97668674D01*
X91618317Y-97665372D01*
X91622266Y-97662443D01*
X91626483Y-97659916D01*
X91630928Y-97657814D01*
X91635557Y-97656157D01*
X91640326Y-97654963D01*
X91645189Y-97654241D01*
X91650100Y-97654000D01*
X91849900Y-97654000D01*
X91854811Y-97654241D01*
G37*
G04 #@! TD.AperFunction*
G04 #@! TA.AperFunction,SMDPad,CuDef*
G36*
X92354811Y-97654241D02*
G01*
X92359674Y-97654963D01*
X92364443Y-97656157D01*
X92369072Y-97657814D01*
X92373517Y-97659916D01*
X92377734Y-97662443D01*
X92381683Y-97665372D01*
X92385326Y-97668674D01*
X92388628Y-97672317D01*
X92391557Y-97676266D01*
X92394084Y-97680483D01*
X92396186Y-97684928D01*
X92397843Y-97689557D01*
X92399037Y-97694326D01*
X92399759Y-97699189D01*
X92400000Y-97704100D01*
X92400000Y-98803900D01*
X92399759Y-98808811D01*
X92399037Y-98813674D01*
X92397843Y-98818443D01*
X92396186Y-98823072D01*
X92394084Y-98827517D01*
X92391557Y-98831734D01*
X92388628Y-98835683D01*
X92385326Y-98839326D01*
X92381683Y-98842628D01*
X92377734Y-98845557D01*
X92373517Y-98848084D01*
X92369072Y-98850186D01*
X92364443Y-98851843D01*
X92359674Y-98853037D01*
X92354811Y-98853759D01*
X92349900Y-98854000D01*
X92150100Y-98854000D01*
X92145189Y-98853759D01*
X92140326Y-98853037D01*
X92135557Y-98851843D01*
X92130928Y-98850186D01*
X92126483Y-98848084D01*
X92122266Y-98845557D01*
X92118317Y-98842628D01*
X92114674Y-98839326D01*
X92111372Y-98835683D01*
X92108443Y-98831734D01*
X92105916Y-98827517D01*
X92103814Y-98823072D01*
X92102157Y-98818443D01*
X92100963Y-98813674D01*
X92100241Y-98808811D01*
X92100000Y-98803900D01*
X92100000Y-97704100D01*
X92100241Y-97699189D01*
X92100963Y-97694326D01*
X92102157Y-97689557D01*
X92103814Y-97684928D01*
X92105916Y-97680483D01*
X92108443Y-97676266D01*
X92111372Y-97672317D01*
X92114674Y-97668674D01*
X92118317Y-97665372D01*
X92122266Y-97662443D01*
X92126483Y-97659916D01*
X92130928Y-97657814D01*
X92135557Y-97656157D01*
X92140326Y-97654963D01*
X92145189Y-97654241D01*
X92150100Y-97654000D01*
X92349900Y-97654000D01*
X92354811Y-97654241D01*
G37*
G04 #@! TD.AperFunction*
G04 #@! TA.AperFunction,SMDPad,CuDef*
G36*
X92854811Y-97654241D02*
G01*
X92859674Y-97654963D01*
X92864443Y-97656157D01*
X92869072Y-97657814D01*
X92873517Y-97659916D01*
X92877734Y-97662443D01*
X92881683Y-97665372D01*
X92885326Y-97668674D01*
X92888628Y-97672317D01*
X92891557Y-97676266D01*
X92894084Y-97680483D01*
X92896186Y-97684928D01*
X92897843Y-97689557D01*
X92899037Y-97694326D01*
X92899759Y-97699189D01*
X92900000Y-97704100D01*
X92900000Y-98803900D01*
X92899759Y-98808811D01*
X92899037Y-98813674D01*
X92897843Y-98818443D01*
X92896186Y-98823072D01*
X92894084Y-98827517D01*
X92891557Y-98831734D01*
X92888628Y-98835683D01*
X92885326Y-98839326D01*
X92881683Y-98842628D01*
X92877734Y-98845557D01*
X92873517Y-98848084D01*
X92869072Y-98850186D01*
X92864443Y-98851843D01*
X92859674Y-98853037D01*
X92854811Y-98853759D01*
X92849900Y-98854000D01*
X92650100Y-98854000D01*
X92645189Y-98853759D01*
X92640326Y-98853037D01*
X92635557Y-98851843D01*
X92630928Y-98850186D01*
X92626483Y-98848084D01*
X92622266Y-98845557D01*
X92618317Y-98842628D01*
X92614674Y-98839326D01*
X92611372Y-98835683D01*
X92608443Y-98831734D01*
X92605916Y-98827517D01*
X92603814Y-98823072D01*
X92602157Y-98818443D01*
X92600963Y-98813674D01*
X92600241Y-98808811D01*
X92600000Y-98803900D01*
X92600000Y-97704100D01*
X92600241Y-97699189D01*
X92600963Y-97694326D01*
X92602157Y-97689557D01*
X92603814Y-97684928D01*
X92605916Y-97680483D01*
X92608443Y-97676266D01*
X92611372Y-97672317D01*
X92614674Y-97668674D01*
X92618317Y-97665372D01*
X92622266Y-97662443D01*
X92626483Y-97659916D01*
X92630928Y-97657814D01*
X92635557Y-97656157D01*
X92640326Y-97654963D01*
X92645189Y-97654241D01*
X92650100Y-97654000D01*
X92849900Y-97654000D01*
X92854811Y-97654241D01*
G37*
G04 #@! TD.AperFunction*
G04 #@! TA.AperFunction,SMDPad,CuDef*
G36*
X93354811Y-97654241D02*
G01*
X93359674Y-97654963D01*
X93364443Y-97656157D01*
X93369072Y-97657814D01*
X93373517Y-97659916D01*
X93377734Y-97662443D01*
X93381683Y-97665372D01*
X93385326Y-97668674D01*
X93388628Y-97672317D01*
X93391557Y-97676266D01*
X93394084Y-97680483D01*
X93396186Y-97684928D01*
X93397843Y-97689557D01*
X93399037Y-97694326D01*
X93399759Y-97699189D01*
X93400000Y-97704100D01*
X93400000Y-98803900D01*
X93399759Y-98808811D01*
X93399037Y-98813674D01*
X93397843Y-98818443D01*
X93396186Y-98823072D01*
X93394084Y-98827517D01*
X93391557Y-98831734D01*
X93388628Y-98835683D01*
X93385326Y-98839326D01*
X93381683Y-98842628D01*
X93377734Y-98845557D01*
X93373517Y-98848084D01*
X93369072Y-98850186D01*
X93364443Y-98851843D01*
X93359674Y-98853037D01*
X93354811Y-98853759D01*
X93349900Y-98854000D01*
X93150100Y-98854000D01*
X93145189Y-98853759D01*
X93140326Y-98853037D01*
X93135557Y-98851843D01*
X93130928Y-98850186D01*
X93126483Y-98848084D01*
X93122266Y-98845557D01*
X93118317Y-98842628D01*
X93114674Y-98839326D01*
X93111372Y-98835683D01*
X93108443Y-98831734D01*
X93105916Y-98827517D01*
X93103814Y-98823072D01*
X93102157Y-98818443D01*
X93100963Y-98813674D01*
X93100241Y-98808811D01*
X93100000Y-98803900D01*
X93100000Y-97704100D01*
X93100241Y-97699189D01*
X93100963Y-97694326D01*
X93102157Y-97689557D01*
X93103814Y-97684928D01*
X93105916Y-97680483D01*
X93108443Y-97676266D01*
X93111372Y-97672317D01*
X93114674Y-97668674D01*
X93118317Y-97665372D01*
X93122266Y-97662443D01*
X93126483Y-97659916D01*
X93130928Y-97657814D01*
X93135557Y-97656157D01*
X93140326Y-97654963D01*
X93145189Y-97654241D01*
X93150100Y-97654000D01*
X93349900Y-97654000D01*
X93354811Y-97654241D01*
G37*
G04 #@! TD.AperFunction*
G04 #@! TA.AperFunction,SMDPad,CuDef*
G36*
X93854811Y-97654241D02*
G01*
X93859674Y-97654963D01*
X93864443Y-97656157D01*
X93869072Y-97657814D01*
X93873517Y-97659916D01*
X93877734Y-97662443D01*
X93881683Y-97665372D01*
X93885326Y-97668674D01*
X93888628Y-97672317D01*
X93891557Y-97676266D01*
X93894084Y-97680483D01*
X93896186Y-97684928D01*
X93897843Y-97689557D01*
X93899037Y-97694326D01*
X93899759Y-97699189D01*
X93900000Y-97704100D01*
X93900000Y-98803900D01*
X93899759Y-98808811D01*
X93899037Y-98813674D01*
X93897843Y-98818443D01*
X93896186Y-98823072D01*
X93894084Y-98827517D01*
X93891557Y-98831734D01*
X93888628Y-98835683D01*
X93885326Y-98839326D01*
X93881683Y-98842628D01*
X93877734Y-98845557D01*
X93873517Y-98848084D01*
X93869072Y-98850186D01*
X93864443Y-98851843D01*
X93859674Y-98853037D01*
X93854811Y-98853759D01*
X93849900Y-98854000D01*
X93650100Y-98854000D01*
X93645189Y-98853759D01*
X93640326Y-98853037D01*
X93635557Y-98851843D01*
X93630928Y-98850186D01*
X93626483Y-98848084D01*
X93622266Y-98845557D01*
X93618317Y-98842628D01*
X93614674Y-98839326D01*
X93611372Y-98835683D01*
X93608443Y-98831734D01*
X93605916Y-98827517D01*
X93603814Y-98823072D01*
X93602157Y-98818443D01*
X93600963Y-98813674D01*
X93600241Y-98808811D01*
X93600000Y-98803900D01*
X93600000Y-97704100D01*
X93600241Y-97699189D01*
X93600963Y-97694326D01*
X93602157Y-97689557D01*
X93603814Y-97684928D01*
X93605916Y-97680483D01*
X93608443Y-97676266D01*
X93611372Y-97672317D01*
X93614674Y-97668674D01*
X93618317Y-97665372D01*
X93622266Y-97662443D01*
X93626483Y-97659916D01*
X93630928Y-97657814D01*
X93635557Y-97656157D01*
X93640326Y-97654963D01*
X93645189Y-97654241D01*
X93650100Y-97654000D01*
X93849900Y-97654000D01*
X93854811Y-97654241D01*
G37*
G04 #@! TD.AperFunction*
G04 #@! TA.AperFunction,SMDPad,CuDef*
G36*
X89660704Y-98774477D02*
G01*
X89670314Y-98775902D01*
X89679738Y-98778263D01*
X89688886Y-98781536D01*
X89697668Y-98785690D01*
X89706001Y-98790685D01*
X89713805Y-98796472D01*
X89721004Y-98802996D01*
X89727528Y-98810195D01*
X89733315Y-98817999D01*
X89738310Y-98826332D01*
X89742464Y-98835114D01*
X89745737Y-98844262D01*
X89748098Y-98853686D01*
X89749523Y-98863296D01*
X89750000Y-98873000D01*
X89750000Y-101975000D01*
X89749523Y-101984704D01*
X89748098Y-101994314D01*
X89745737Y-102003738D01*
X89742464Y-102012886D01*
X89738310Y-102021668D01*
X89733315Y-102030001D01*
X89727528Y-102037805D01*
X89721004Y-102045004D01*
X89713805Y-102051528D01*
X89706001Y-102057315D01*
X89697668Y-102062310D01*
X89688886Y-102066464D01*
X89679738Y-102069737D01*
X89670314Y-102072098D01*
X89660704Y-102073523D01*
X89651000Y-102074000D01*
X87649000Y-102074000D01*
X87639296Y-102073523D01*
X87629686Y-102072098D01*
X87620262Y-102069737D01*
X87611114Y-102066464D01*
X87602332Y-102062310D01*
X87593999Y-102057315D01*
X87586195Y-102051528D01*
X87578996Y-102045004D01*
X87572472Y-102037805D01*
X87566685Y-102030001D01*
X87561690Y-102021668D01*
X87557536Y-102012886D01*
X87554263Y-102003738D01*
X87551902Y-101994314D01*
X87550477Y-101984704D01*
X87550000Y-101975000D01*
X87550000Y-98873000D01*
X87550477Y-98863296D01*
X87551902Y-98853686D01*
X87554263Y-98844262D01*
X87557536Y-98835114D01*
X87561690Y-98826332D01*
X87566685Y-98817999D01*
X87572472Y-98810195D01*
X87578996Y-98802996D01*
X87586195Y-98796472D01*
X87593999Y-98790685D01*
X87602332Y-98785690D01*
X87611114Y-98781536D01*
X87620262Y-98778263D01*
X87629686Y-98775902D01*
X87639296Y-98774477D01*
X87649000Y-98774000D01*
X89651000Y-98774000D01*
X89660704Y-98774477D01*
G37*
G04 #@! TD.AperFunction*
G04 #@! TA.AperFunction,SMDPad,CuDef*
G36*
X96360704Y-98774477D02*
G01*
X96370314Y-98775902D01*
X96379738Y-98778263D01*
X96388886Y-98781536D01*
X96397668Y-98785690D01*
X96406001Y-98790685D01*
X96413805Y-98796472D01*
X96421004Y-98802996D01*
X96427528Y-98810195D01*
X96433315Y-98817999D01*
X96438310Y-98826332D01*
X96442464Y-98835114D01*
X96445737Y-98844262D01*
X96448098Y-98853686D01*
X96449523Y-98863296D01*
X96450000Y-98873000D01*
X96450000Y-101975000D01*
X96449523Y-101984704D01*
X96448098Y-101994314D01*
X96445737Y-102003738D01*
X96442464Y-102012886D01*
X96438310Y-102021668D01*
X96433315Y-102030001D01*
X96427528Y-102037805D01*
X96421004Y-102045004D01*
X96413805Y-102051528D01*
X96406001Y-102057315D01*
X96397668Y-102062310D01*
X96388886Y-102066464D01*
X96379738Y-102069737D01*
X96370314Y-102072098D01*
X96360704Y-102073523D01*
X96351000Y-102074000D01*
X94349000Y-102074000D01*
X94339296Y-102073523D01*
X94329686Y-102072098D01*
X94320262Y-102069737D01*
X94311114Y-102066464D01*
X94302332Y-102062310D01*
X94293999Y-102057315D01*
X94286195Y-102051528D01*
X94278996Y-102045004D01*
X94272472Y-102037805D01*
X94266685Y-102030001D01*
X94261690Y-102021668D01*
X94257536Y-102012886D01*
X94254263Y-102003738D01*
X94251902Y-101994314D01*
X94250477Y-101984704D01*
X94250000Y-101975000D01*
X94250000Y-98873000D01*
X94250477Y-98863296D01*
X94251902Y-98853686D01*
X94254263Y-98844262D01*
X94257536Y-98835114D01*
X94261690Y-98826332D01*
X94266685Y-98817999D01*
X94272472Y-98810195D01*
X94278996Y-98802996D01*
X94286195Y-98796472D01*
X94293999Y-98790685D01*
X94302332Y-98785690D01*
X94311114Y-98781536D01*
X94320262Y-98778263D01*
X94329686Y-98775902D01*
X94339296Y-98774477D01*
X94349000Y-98774000D01*
X96351000Y-98774000D01*
X96360704Y-98774477D01*
G37*
G04 #@! TD.AperFunction*
G04 #@! TA.AperFunction,SMDPad,CuDef*
G36*
X89080000Y-98449000D02*
G01*
X89080000Y-98059000D01*
X89580000Y-98249000D01*
X89580000Y-98259000D01*
X89080000Y-98449000D01*
G37*
G04 #@! TD.AperFunction*
D14*
X95800000Y-97490000D03*
X90300000Y-97090000D03*
X88500000Y-88490000D03*
X88500000Y-90390000D03*
X90000000Y-91310000D03*
X95800000Y-91190000D03*
X95700000Y-88090000D03*
X97000000Y-93990000D03*
X95100000Y-95190000D03*
X91100000Y-100590000D03*
X90400000Y-99990000D03*
X84200000Y-93990000D03*
X92200000Y-100290000D03*
X90500000Y-101390000D03*
X92800000Y-96490000D03*
X92250000Y-99440000D03*
X88700000Y-97090000D03*
X87900000Y-92090000D03*
X90700000Y-89490000D03*
D15*
X90250000Y-98254000D02*
X90250000Y-97140000D01*
X95863000Y-97427000D02*
X95863000Y-96390000D01*
X95800000Y-97490000D02*
X95863000Y-97427000D01*
X90250000Y-97140000D02*
X90300000Y-97090000D01*
X95863000Y-96390000D02*
X95863000Y-95653000D01*
X95810000Y-95600000D02*
X95810000Y-93928000D01*
X95863000Y-95653000D02*
X95810000Y-95600000D01*
X95556000Y-80843000D02*
X98153000Y-80843000D01*
X98350000Y-81040000D02*
X98350000Y-82100000D01*
X98153000Y-80843000D02*
X98350000Y-81040000D01*
X94032000Y-80843000D02*
X95556000Y-80843000D01*
X94032000Y-80843000D02*
X86047000Y-80843000D01*
X85650000Y-81240000D02*
X85650000Y-82100000D01*
X86047000Y-80843000D02*
X85650000Y-81240000D01*
X88500000Y-90390000D02*
X88500000Y-88490000D01*
X90104990Y-91414990D02*
X90000000Y-91310000D01*
X90104990Y-96470726D02*
X90104990Y-91414990D01*
X90300000Y-96665736D02*
X90104990Y-96470726D01*
X90300000Y-97090000D02*
X90300000Y-96665736D01*
X93750000Y-98254000D02*
X93750000Y-97540000D01*
X94233000Y-97057000D02*
X94233000Y-96390000D01*
X93750000Y-97540000D02*
X94233000Y-97057000D01*
X94233000Y-96390000D02*
X94233000Y-95757000D01*
X94540000Y-95450000D02*
X94540000Y-93928000D01*
X94233000Y-95757000D02*
X94540000Y-95450000D01*
X85650000Y-99880000D02*
X85650000Y-101940000D01*
X93750000Y-99740000D02*
X93750000Y-98254000D01*
X90900000Y-102590000D02*
X93750000Y-99740000D01*
X86300000Y-102590000D02*
X90900000Y-102590000D01*
X85650000Y-101940000D02*
X86300000Y-102590000D01*
X98350000Y-99880000D02*
X97190000Y-99880000D01*
X96664000Y-98254000D02*
X93750000Y-98254000D01*
X96900000Y-98490000D02*
X96664000Y-98254000D01*
X96900000Y-99590000D02*
X96900000Y-98490000D01*
X97190000Y-99880000D02*
X96900000Y-99590000D01*
X95800000Y-88190000D02*
X95800000Y-91190000D01*
X95700000Y-88090000D02*
X95800000Y-88190000D01*
X95800000Y-91890000D02*
X95800000Y-91190000D01*
X97000000Y-93090000D02*
X95800000Y-91890000D01*
X97000000Y-93990000D02*
X97000000Y-93090000D01*
X94840000Y-95450000D02*
X95100000Y-95190000D01*
X94540000Y-95450000D02*
X94840000Y-95450000D01*
X95810000Y-84628000D02*
X95810000Y-83500000D01*
X95556000Y-83246000D02*
X95556000Y-82473000D01*
X95810000Y-83500000D02*
X95556000Y-83246000D01*
X95810000Y-84628000D02*
X95810000Y-86890000D01*
X95810000Y-86890000D02*
X95810000Y-86900000D01*
X96090000Y-87180000D02*
X98350000Y-87180000D01*
X95810000Y-86900000D02*
X96090000Y-87180000D01*
X85650000Y-87180000D02*
X95530000Y-87180000D01*
X95530000Y-87180000D02*
X95810000Y-86900000D01*
X91100000Y-100590000D02*
X91250000Y-100640000D01*
X91250000Y-100640000D02*
X91250000Y-100540000D01*
X91250000Y-100540000D02*
X91250000Y-98254000D01*
X94540000Y-84628000D02*
X94540000Y-83530000D01*
X94032000Y-83022000D02*
X94032000Y-82473000D01*
X94540000Y-83530000D02*
X94032000Y-83022000D01*
X94032000Y-82473000D02*
X94032000Y-81858000D01*
X96950000Y-84640000D02*
X98350000Y-84640000D01*
X96900000Y-84590000D02*
X96950000Y-84640000D01*
X96900000Y-81890000D02*
X96900000Y-84590000D01*
X96600000Y-81590000D02*
X96900000Y-81890000D01*
X94300000Y-81590000D02*
X96600000Y-81590000D01*
X94032000Y-81858000D02*
X94300000Y-81590000D01*
X94032000Y-82473000D02*
X87617000Y-82473000D01*
X86850000Y-84640000D02*
X85650000Y-84640000D01*
X87000000Y-84490000D02*
X86850000Y-84640000D01*
X87000000Y-83090000D02*
X87000000Y-84490000D01*
X87617000Y-82473000D02*
X87000000Y-83090000D01*
X90750000Y-98254000D02*
X90750000Y-99640000D01*
X90750000Y-99640000D02*
X90400000Y-99990000D01*
X84850000Y-84640000D02*
X85650000Y-84640000D01*
X84200000Y-85290000D02*
X84850000Y-84640000D01*
X84200000Y-93990000D02*
X84200000Y-85290000D01*
X92325002Y-100290000D02*
X92925002Y-99690000D01*
X92200000Y-100290000D02*
X92325002Y-100290000D01*
X93274990Y-98278990D02*
X93250000Y-98254000D01*
X93274990Y-98915010D02*
X93274990Y-98278990D01*
X92925002Y-99264998D02*
X93274990Y-98915010D01*
X92925002Y-99690000D02*
X92925002Y-99264998D01*
X91900001Y-100589999D02*
X91900001Y-100689999D01*
X92200000Y-100290000D02*
X91900001Y-100589999D01*
X91900001Y-100689999D02*
X91200000Y-101390000D01*
X91200000Y-101390000D02*
X90500000Y-101390000D01*
X92750000Y-98254000D02*
X92750000Y-96540000D01*
X92750000Y-96540000D02*
X92800000Y-96490000D01*
X92250000Y-98254000D02*
X92250000Y-99440000D01*
X88815010Y-94999758D02*
X88815010Y-92305010D01*
X88700000Y-95114768D02*
X88815010Y-94999758D01*
X88700000Y-97090000D02*
X88700000Y-95114768D01*
X88600000Y-92090000D02*
X87900000Y-92090000D01*
X88815010Y-92305010D02*
X88600000Y-92090000D01*
X91725010Y-98215010D02*
X91725010Y-96415010D01*
X91750000Y-98240000D02*
X91725010Y-98215010D01*
X91750000Y-98254000D02*
X91750000Y-98240000D01*
X91374990Y-96064990D02*
X91374990Y-90464990D01*
X91725010Y-96415010D02*
X91374990Y-96064990D01*
X91374990Y-90464990D02*
X90700000Y-89790000D01*
X90700000Y-89790000D02*
X90700000Y-89490000D01*
M02*
