G04 #@! TF.GenerationSoftware,KiCad,Pcbnew,(5.1.5-0-10_14)*
G04 #@! TF.CreationDate,2020-04-10T20:26:08+03:00*
G04 #@! TF.ProjectId,connector-breakout-a1,636f6e6e-6563-4746-9f72-2d627265616b,rev?*
G04 #@! TF.SameCoordinates,Original*
G04 #@! TF.FileFunction,Copper,L2,Bot*
G04 #@! TF.FilePolarity,Positive*
%FSLAX46Y46*%
G04 Gerber Fmt 4.6, Leading zero omitted, Abs format (unit mm)*
G04 Created by KiCad (PCBNEW (5.1.5-0-10_14)) date 2020-04-10 20:26:08*
%MOMM*%
%LPD*%
G04 APERTURE LIST*
%ADD10C,0.010000*%
%ADD11C,0.100000*%
%ADD12C,5.500000*%
%ADD13C,0.700000*%
%ADD14C,0.600000*%
%ADD15C,0.250000*%
G04 APERTURE END LIST*
D10*
X100749999Y-110990000D02*
X83250001Y-110990000D01*
X83250001Y-110990000D02*
X83250000Y-70990000D01*
X100750001Y-70990000D02*
X100749999Y-110990000D01*
X83250000Y-70990000D02*
X100750000Y-70990000D01*
G04 #@! TA.AperFunction,ComponentPad*
D11*
G36*
X86269603Y-99080963D02*
G01*
X86289018Y-99083843D01*
X86308057Y-99088612D01*
X86326537Y-99095224D01*
X86344279Y-99103616D01*
X86361114Y-99113706D01*
X86376879Y-99125398D01*
X86391421Y-99138579D01*
X86404602Y-99153121D01*
X86416294Y-99168886D01*
X86426384Y-99185721D01*
X86434776Y-99203463D01*
X86441388Y-99221943D01*
X86446157Y-99240982D01*
X86449037Y-99260397D01*
X86450000Y-99280000D01*
X86450000Y-100480000D01*
X86449037Y-100499603D01*
X86446157Y-100519018D01*
X86441388Y-100538057D01*
X86434776Y-100556537D01*
X86426384Y-100574279D01*
X86416294Y-100591114D01*
X86404602Y-100606879D01*
X86391421Y-100621421D01*
X86376879Y-100634602D01*
X86361114Y-100646294D01*
X86344279Y-100656384D01*
X86326537Y-100664776D01*
X86308057Y-100671388D01*
X86289018Y-100676157D01*
X86269603Y-100679037D01*
X86250000Y-100680000D01*
X85050000Y-100680000D01*
X85030397Y-100679037D01*
X85010982Y-100676157D01*
X84991943Y-100671388D01*
X84973463Y-100664776D01*
X84955721Y-100656384D01*
X84938886Y-100646294D01*
X84923121Y-100634602D01*
X84908579Y-100621421D01*
X84895398Y-100606879D01*
X84883706Y-100591114D01*
X84873616Y-100574279D01*
X84865224Y-100556537D01*
X84858612Y-100538057D01*
X84853843Y-100519018D01*
X84850963Y-100499603D01*
X84850000Y-100480000D01*
X84850000Y-99280000D01*
X84850963Y-99260397D01*
X84853843Y-99240982D01*
X84858612Y-99221943D01*
X84865224Y-99203463D01*
X84873616Y-99185721D01*
X84883706Y-99168886D01*
X84895398Y-99153121D01*
X84908579Y-99138579D01*
X84923121Y-99125398D01*
X84938886Y-99113706D01*
X84955721Y-99103616D01*
X84973463Y-99095224D01*
X84991943Y-99088612D01*
X85010982Y-99083843D01*
X85030397Y-99080963D01*
X85050000Y-99080000D01*
X86250000Y-99080000D01*
X86269603Y-99080963D01*
G37*
G04 #@! TD.AperFunction*
G04 #@! TA.AperFunction,ComponentPad*
G36*
X86269603Y-96540963D02*
G01*
X86289018Y-96543843D01*
X86308057Y-96548612D01*
X86326537Y-96555224D01*
X86344279Y-96563616D01*
X86361114Y-96573706D01*
X86376879Y-96585398D01*
X86391421Y-96598579D01*
X86404602Y-96613121D01*
X86416294Y-96628886D01*
X86426384Y-96645721D01*
X86434776Y-96663463D01*
X86441388Y-96681943D01*
X86446157Y-96700982D01*
X86449037Y-96720397D01*
X86450000Y-96740000D01*
X86450000Y-97940000D01*
X86449037Y-97959603D01*
X86446157Y-97979018D01*
X86441388Y-97998057D01*
X86434776Y-98016537D01*
X86426384Y-98034279D01*
X86416294Y-98051114D01*
X86404602Y-98066879D01*
X86391421Y-98081421D01*
X86376879Y-98094602D01*
X86361114Y-98106294D01*
X86344279Y-98116384D01*
X86326537Y-98124776D01*
X86308057Y-98131388D01*
X86289018Y-98136157D01*
X86269603Y-98139037D01*
X86250000Y-98140000D01*
X85050000Y-98140000D01*
X85030397Y-98139037D01*
X85010982Y-98136157D01*
X84991943Y-98131388D01*
X84973463Y-98124776D01*
X84955721Y-98116384D01*
X84938886Y-98106294D01*
X84923121Y-98094602D01*
X84908579Y-98081421D01*
X84895398Y-98066879D01*
X84883706Y-98051114D01*
X84873616Y-98034279D01*
X84865224Y-98016537D01*
X84858612Y-97998057D01*
X84853843Y-97979018D01*
X84850963Y-97959603D01*
X84850000Y-97940000D01*
X84850000Y-96740000D01*
X84850963Y-96720397D01*
X84853843Y-96700982D01*
X84858612Y-96681943D01*
X84865224Y-96663463D01*
X84873616Y-96645721D01*
X84883706Y-96628886D01*
X84895398Y-96613121D01*
X84908579Y-96598579D01*
X84923121Y-96585398D01*
X84938886Y-96573706D01*
X84955721Y-96563616D01*
X84973463Y-96555224D01*
X84991943Y-96548612D01*
X85010982Y-96543843D01*
X85030397Y-96540963D01*
X85050000Y-96540000D01*
X86250000Y-96540000D01*
X86269603Y-96540963D01*
G37*
G04 #@! TD.AperFunction*
G04 #@! TA.AperFunction,ComponentPad*
G36*
X86269603Y-94000963D02*
G01*
X86289018Y-94003843D01*
X86308057Y-94008612D01*
X86326537Y-94015224D01*
X86344279Y-94023616D01*
X86361114Y-94033706D01*
X86376879Y-94045398D01*
X86391421Y-94058579D01*
X86404602Y-94073121D01*
X86416294Y-94088886D01*
X86426384Y-94105721D01*
X86434776Y-94123463D01*
X86441388Y-94141943D01*
X86446157Y-94160982D01*
X86449037Y-94180397D01*
X86450000Y-94200000D01*
X86450000Y-95400000D01*
X86449037Y-95419603D01*
X86446157Y-95439018D01*
X86441388Y-95458057D01*
X86434776Y-95476537D01*
X86426384Y-95494279D01*
X86416294Y-95511114D01*
X86404602Y-95526879D01*
X86391421Y-95541421D01*
X86376879Y-95554602D01*
X86361114Y-95566294D01*
X86344279Y-95576384D01*
X86326537Y-95584776D01*
X86308057Y-95591388D01*
X86289018Y-95596157D01*
X86269603Y-95599037D01*
X86250000Y-95600000D01*
X85050000Y-95600000D01*
X85030397Y-95599037D01*
X85010982Y-95596157D01*
X84991943Y-95591388D01*
X84973463Y-95584776D01*
X84955721Y-95576384D01*
X84938886Y-95566294D01*
X84923121Y-95554602D01*
X84908579Y-95541421D01*
X84895398Y-95526879D01*
X84883706Y-95511114D01*
X84873616Y-95494279D01*
X84865224Y-95476537D01*
X84858612Y-95458057D01*
X84853843Y-95439018D01*
X84850963Y-95419603D01*
X84850000Y-95400000D01*
X84850000Y-94200000D01*
X84850963Y-94180397D01*
X84853843Y-94160982D01*
X84858612Y-94141943D01*
X84865224Y-94123463D01*
X84873616Y-94105721D01*
X84883706Y-94088886D01*
X84895398Y-94073121D01*
X84908579Y-94058579D01*
X84923121Y-94045398D01*
X84938886Y-94033706D01*
X84955721Y-94023616D01*
X84973463Y-94015224D01*
X84991943Y-94008612D01*
X85010982Y-94003843D01*
X85030397Y-94000963D01*
X85050000Y-94000000D01*
X86250000Y-94000000D01*
X86269603Y-94000963D01*
G37*
G04 #@! TD.AperFunction*
G04 #@! TA.AperFunction,ComponentPad*
G36*
X86269603Y-91460963D02*
G01*
X86289018Y-91463843D01*
X86308057Y-91468612D01*
X86326537Y-91475224D01*
X86344279Y-91483616D01*
X86361114Y-91493706D01*
X86376879Y-91505398D01*
X86391421Y-91518579D01*
X86404602Y-91533121D01*
X86416294Y-91548886D01*
X86426384Y-91565721D01*
X86434776Y-91583463D01*
X86441388Y-91601943D01*
X86446157Y-91620982D01*
X86449037Y-91640397D01*
X86450000Y-91660000D01*
X86450000Y-92860000D01*
X86449037Y-92879603D01*
X86446157Y-92899018D01*
X86441388Y-92918057D01*
X86434776Y-92936537D01*
X86426384Y-92954279D01*
X86416294Y-92971114D01*
X86404602Y-92986879D01*
X86391421Y-93001421D01*
X86376879Y-93014602D01*
X86361114Y-93026294D01*
X86344279Y-93036384D01*
X86326537Y-93044776D01*
X86308057Y-93051388D01*
X86289018Y-93056157D01*
X86269603Y-93059037D01*
X86250000Y-93060000D01*
X85050000Y-93060000D01*
X85030397Y-93059037D01*
X85010982Y-93056157D01*
X84991943Y-93051388D01*
X84973463Y-93044776D01*
X84955721Y-93036384D01*
X84938886Y-93026294D01*
X84923121Y-93014602D01*
X84908579Y-93001421D01*
X84895398Y-92986879D01*
X84883706Y-92971114D01*
X84873616Y-92954279D01*
X84865224Y-92936537D01*
X84858612Y-92918057D01*
X84853843Y-92899018D01*
X84850963Y-92879603D01*
X84850000Y-92860000D01*
X84850000Y-91660000D01*
X84850963Y-91640397D01*
X84853843Y-91620982D01*
X84858612Y-91601943D01*
X84865224Y-91583463D01*
X84873616Y-91565721D01*
X84883706Y-91548886D01*
X84895398Y-91533121D01*
X84908579Y-91518579D01*
X84923121Y-91505398D01*
X84938886Y-91493706D01*
X84955721Y-91483616D01*
X84973463Y-91475224D01*
X84991943Y-91468612D01*
X85010982Y-91463843D01*
X85030397Y-91460963D01*
X85050000Y-91460000D01*
X86250000Y-91460000D01*
X86269603Y-91460963D01*
G37*
G04 #@! TD.AperFunction*
G04 #@! TA.AperFunction,ComponentPad*
G36*
X86269603Y-88920963D02*
G01*
X86289018Y-88923843D01*
X86308057Y-88928612D01*
X86326537Y-88935224D01*
X86344279Y-88943616D01*
X86361114Y-88953706D01*
X86376879Y-88965398D01*
X86391421Y-88978579D01*
X86404602Y-88993121D01*
X86416294Y-89008886D01*
X86426384Y-89025721D01*
X86434776Y-89043463D01*
X86441388Y-89061943D01*
X86446157Y-89080982D01*
X86449037Y-89100397D01*
X86450000Y-89120000D01*
X86450000Y-90320000D01*
X86449037Y-90339603D01*
X86446157Y-90359018D01*
X86441388Y-90378057D01*
X86434776Y-90396537D01*
X86426384Y-90414279D01*
X86416294Y-90431114D01*
X86404602Y-90446879D01*
X86391421Y-90461421D01*
X86376879Y-90474602D01*
X86361114Y-90486294D01*
X86344279Y-90496384D01*
X86326537Y-90504776D01*
X86308057Y-90511388D01*
X86289018Y-90516157D01*
X86269603Y-90519037D01*
X86250000Y-90520000D01*
X85050000Y-90520000D01*
X85030397Y-90519037D01*
X85010982Y-90516157D01*
X84991943Y-90511388D01*
X84973463Y-90504776D01*
X84955721Y-90496384D01*
X84938886Y-90486294D01*
X84923121Y-90474602D01*
X84908579Y-90461421D01*
X84895398Y-90446879D01*
X84883706Y-90431114D01*
X84873616Y-90414279D01*
X84865224Y-90396537D01*
X84858612Y-90378057D01*
X84853843Y-90359018D01*
X84850963Y-90339603D01*
X84850000Y-90320000D01*
X84850000Y-89120000D01*
X84850963Y-89100397D01*
X84853843Y-89080982D01*
X84858612Y-89061943D01*
X84865224Y-89043463D01*
X84873616Y-89025721D01*
X84883706Y-89008886D01*
X84895398Y-88993121D01*
X84908579Y-88978579D01*
X84923121Y-88965398D01*
X84938886Y-88953706D01*
X84955721Y-88943616D01*
X84973463Y-88935224D01*
X84991943Y-88928612D01*
X85010982Y-88923843D01*
X85030397Y-88920963D01*
X85050000Y-88920000D01*
X86250000Y-88920000D01*
X86269603Y-88920963D01*
G37*
G04 #@! TD.AperFunction*
G04 #@! TA.AperFunction,ComponentPad*
G36*
X86269603Y-86380963D02*
G01*
X86289018Y-86383843D01*
X86308057Y-86388612D01*
X86326537Y-86395224D01*
X86344279Y-86403616D01*
X86361114Y-86413706D01*
X86376879Y-86425398D01*
X86391421Y-86438579D01*
X86404602Y-86453121D01*
X86416294Y-86468886D01*
X86426384Y-86485721D01*
X86434776Y-86503463D01*
X86441388Y-86521943D01*
X86446157Y-86540982D01*
X86449037Y-86560397D01*
X86450000Y-86580000D01*
X86450000Y-87780000D01*
X86449037Y-87799603D01*
X86446157Y-87819018D01*
X86441388Y-87838057D01*
X86434776Y-87856537D01*
X86426384Y-87874279D01*
X86416294Y-87891114D01*
X86404602Y-87906879D01*
X86391421Y-87921421D01*
X86376879Y-87934602D01*
X86361114Y-87946294D01*
X86344279Y-87956384D01*
X86326537Y-87964776D01*
X86308057Y-87971388D01*
X86289018Y-87976157D01*
X86269603Y-87979037D01*
X86250000Y-87980000D01*
X85050000Y-87980000D01*
X85030397Y-87979037D01*
X85010982Y-87976157D01*
X84991943Y-87971388D01*
X84973463Y-87964776D01*
X84955721Y-87956384D01*
X84938886Y-87946294D01*
X84923121Y-87934602D01*
X84908579Y-87921421D01*
X84895398Y-87906879D01*
X84883706Y-87891114D01*
X84873616Y-87874279D01*
X84865224Y-87856537D01*
X84858612Y-87838057D01*
X84853843Y-87819018D01*
X84850963Y-87799603D01*
X84850000Y-87780000D01*
X84850000Y-86580000D01*
X84850963Y-86560397D01*
X84853843Y-86540982D01*
X84858612Y-86521943D01*
X84865224Y-86503463D01*
X84873616Y-86485721D01*
X84883706Y-86468886D01*
X84895398Y-86453121D01*
X84908579Y-86438579D01*
X84923121Y-86425398D01*
X84938886Y-86413706D01*
X84955721Y-86403616D01*
X84973463Y-86395224D01*
X84991943Y-86388612D01*
X85010982Y-86383843D01*
X85030397Y-86380963D01*
X85050000Y-86380000D01*
X86250000Y-86380000D01*
X86269603Y-86380963D01*
G37*
G04 #@! TD.AperFunction*
G04 #@! TA.AperFunction,ComponentPad*
G36*
X86269603Y-83840963D02*
G01*
X86289018Y-83843843D01*
X86308057Y-83848612D01*
X86326537Y-83855224D01*
X86344279Y-83863616D01*
X86361114Y-83873706D01*
X86376879Y-83885398D01*
X86391421Y-83898579D01*
X86404602Y-83913121D01*
X86416294Y-83928886D01*
X86426384Y-83945721D01*
X86434776Y-83963463D01*
X86441388Y-83981943D01*
X86446157Y-84000982D01*
X86449037Y-84020397D01*
X86450000Y-84040000D01*
X86450000Y-85240000D01*
X86449037Y-85259603D01*
X86446157Y-85279018D01*
X86441388Y-85298057D01*
X86434776Y-85316537D01*
X86426384Y-85334279D01*
X86416294Y-85351114D01*
X86404602Y-85366879D01*
X86391421Y-85381421D01*
X86376879Y-85394602D01*
X86361114Y-85406294D01*
X86344279Y-85416384D01*
X86326537Y-85424776D01*
X86308057Y-85431388D01*
X86289018Y-85436157D01*
X86269603Y-85439037D01*
X86250000Y-85440000D01*
X85050000Y-85440000D01*
X85030397Y-85439037D01*
X85010982Y-85436157D01*
X84991943Y-85431388D01*
X84973463Y-85424776D01*
X84955721Y-85416384D01*
X84938886Y-85406294D01*
X84923121Y-85394602D01*
X84908579Y-85381421D01*
X84895398Y-85366879D01*
X84883706Y-85351114D01*
X84873616Y-85334279D01*
X84865224Y-85316537D01*
X84858612Y-85298057D01*
X84853843Y-85279018D01*
X84850963Y-85259603D01*
X84850000Y-85240000D01*
X84850000Y-84040000D01*
X84850963Y-84020397D01*
X84853843Y-84000982D01*
X84858612Y-83981943D01*
X84865224Y-83963463D01*
X84873616Y-83945721D01*
X84883706Y-83928886D01*
X84895398Y-83913121D01*
X84908579Y-83898579D01*
X84923121Y-83885398D01*
X84938886Y-83873706D01*
X84955721Y-83863616D01*
X84973463Y-83855224D01*
X84991943Y-83848612D01*
X85010982Y-83843843D01*
X85030397Y-83840963D01*
X85050000Y-83840000D01*
X86250000Y-83840000D01*
X86269603Y-83840963D01*
G37*
G04 #@! TD.AperFunction*
G04 #@! TA.AperFunction,ComponentPad*
G36*
X86269603Y-81300963D02*
G01*
X86289018Y-81303843D01*
X86308057Y-81308612D01*
X86326537Y-81315224D01*
X86344279Y-81323616D01*
X86361114Y-81333706D01*
X86376879Y-81345398D01*
X86391421Y-81358579D01*
X86404602Y-81373121D01*
X86416294Y-81388886D01*
X86426384Y-81405721D01*
X86434776Y-81423463D01*
X86441388Y-81441943D01*
X86446157Y-81460982D01*
X86449037Y-81480397D01*
X86450000Y-81500000D01*
X86450000Y-82700000D01*
X86449037Y-82719603D01*
X86446157Y-82739018D01*
X86441388Y-82758057D01*
X86434776Y-82776537D01*
X86426384Y-82794279D01*
X86416294Y-82811114D01*
X86404602Y-82826879D01*
X86391421Y-82841421D01*
X86376879Y-82854602D01*
X86361114Y-82866294D01*
X86344279Y-82876384D01*
X86326537Y-82884776D01*
X86308057Y-82891388D01*
X86289018Y-82896157D01*
X86269603Y-82899037D01*
X86250000Y-82900000D01*
X85050000Y-82900000D01*
X85030397Y-82899037D01*
X85010982Y-82896157D01*
X84991943Y-82891388D01*
X84973463Y-82884776D01*
X84955721Y-82876384D01*
X84938886Y-82866294D01*
X84923121Y-82854602D01*
X84908579Y-82841421D01*
X84895398Y-82826879D01*
X84883706Y-82811114D01*
X84873616Y-82794279D01*
X84865224Y-82776537D01*
X84858612Y-82758057D01*
X84853843Y-82739018D01*
X84850963Y-82719603D01*
X84850000Y-82700000D01*
X84850000Y-81500000D01*
X84850963Y-81480397D01*
X84853843Y-81460982D01*
X84858612Y-81441943D01*
X84865224Y-81423463D01*
X84873616Y-81405721D01*
X84883706Y-81388886D01*
X84895398Y-81373121D01*
X84908579Y-81358579D01*
X84923121Y-81345398D01*
X84938886Y-81333706D01*
X84955721Y-81323616D01*
X84973463Y-81315224D01*
X84991943Y-81308612D01*
X85010982Y-81303843D01*
X85030397Y-81300963D01*
X85050000Y-81300000D01*
X86250000Y-81300000D01*
X86269603Y-81300963D01*
G37*
G04 #@! TD.AperFunction*
G04 #@! TA.AperFunction,ComponentPad*
G36*
X98969603Y-99080963D02*
G01*
X98989018Y-99083843D01*
X99008057Y-99088612D01*
X99026537Y-99095224D01*
X99044279Y-99103616D01*
X99061114Y-99113706D01*
X99076879Y-99125398D01*
X99091421Y-99138579D01*
X99104602Y-99153121D01*
X99116294Y-99168886D01*
X99126384Y-99185721D01*
X99134776Y-99203463D01*
X99141388Y-99221943D01*
X99146157Y-99240982D01*
X99149037Y-99260397D01*
X99150000Y-99280000D01*
X99150000Y-100480000D01*
X99149037Y-100499603D01*
X99146157Y-100519018D01*
X99141388Y-100538057D01*
X99134776Y-100556537D01*
X99126384Y-100574279D01*
X99116294Y-100591114D01*
X99104602Y-100606879D01*
X99091421Y-100621421D01*
X99076879Y-100634602D01*
X99061114Y-100646294D01*
X99044279Y-100656384D01*
X99026537Y-100664776D01*
X99008057Y-100671388D01*
X98989018Y-100676157D01*
X98969603Y-100679037D01*
X98950000Y-100680000D01*
X97750000Y-100680000D01*
X97730397Y-100679037D01*
X97710982Y-100676157D01*
X97691943Y-100671388D01*
X97673463Y-100664776D01*
X97655721Y-100656384D01*
X97638886Y-100646294D01*
X97623121Y-100634602D01*
X97608579Y-100621421D01*
X97595398Y-100606879D01*
X97583706Y-100591114D01*
X97573616Y-100574279D01*
X97565224Y-100556537D01*
X97558612Y-100538057D01*
X97553843Y-100519018D01*
X97550963Y-100499603D01*
X97550000Y-100480000D01*
X97550000Y-99280000D01*
X97550963Y-99260397D01*
X97553843Y-99240982D01*
X97558612Y-99221943D01*
X97565224Y-99203463D01*
X97573616Y-99185721D01*
X97583706Y-99168886D01*
X97595398Y-99153121D01*
X97608579Y-99138579D01*
X97623121Y-99125398D01*
X97638886Y-99113706D01*
X97655721Y-99103616D01*
X97673463Y-99095224D01*
X97691943Y-99088612D01*
X97710982Y-99083843D01*
X97730397Y-99080963D01*
X97750000Y-99080000D01*
X98950000Y-99080000D01*
X98969603Y-99080963D01*
G37*
G04 #@! TD.AperFunction*
G04 #@! TA.AperFunction,ComponentPad*
G36*
X98969603Y-96540963D02*
G01*
X98989018Y-96543843D01*
X99008057Y-96548612D01*
X99026537Y-96555224D01*
X99044279Y-96563616D01*
X99061114Y-96573706D01*
X99076879Y-96585398D01*
X99091421Y-96598579D01*
X99104602Y-96613121D01*
X99116294Y-96628886D01*
X99126384Y-96645721D01*
X99134776Y-96663463D01*
X99141388Y-96681943D01*
X99146157Y-96700982D01*
X99149037Y-96720397D01*
X99150000Y-96740000D01*
X99150000Y-97940000D01*
X99149037Y-97959603D01*
X99146157Y-97979018D01*
X99141388Y-97998057D01*
X99134776Y-98016537D01*
X99126384Y-98034279D01*
X99116294Y-98051114D01*
X99104602Y-98066879D01*
X99091421Y-98081421D01*
X99076879Y-98094602D01*
X99061114Y-98106294D01*
X99044279Y-98116384D01*
X99026537Y-98124776D01*
X99008057Y-98131388D01*
X98989018Y-98136157D01*
X98969603Y-98139037D01*
X98950000Y-98140000D01*
X97750000Y-98140000D01*
X97730397Y-98139037D01*
X97710982Y-98136157D01*
X97691943Y-98131388D01*
X97673463Y-98124776D01*
X97655721Y-98116384D01*
X97638886Y-98106294D01*
X97623121Y-98094602D01*
X97608579Y-98081421D01*
X97595398Y-98066879D01*
X97583706Y-98051114D01*
X97573616Y-98034279D01*
X97565224Y-98016537D01*
X97558612Y-97998057D01*
X97553843Y-97979018D01*
X97550963Y-97959603D01*
X97550000Y-97940000D01*
X97550000Y-96740000D01*
X97550963Y-96720397D01*
X97553843Y-96700982D01*
X97558612Y-96681943D01*
X97565224Y-96663463D01*
X97573616Y-96645721D01*
X97583706Y-96628886D01*
X97595398Y-96613121D01*
X97608579Y-96598579D01*
X97623121Y-96585398D01*
X97638886Y-96573706D01*
X97655721Y-96563616D01*
X97673463Y-96555224D01*
X97691943Y-96548612D01*
X97710982Y-96543843D01*
X97730397Y-96540963D01*
X97750000Y-96540000D01*
X98950000Y-96540000D01*
X98969603Y-96540963D01*
G37*
G04 #@! TD.AperFunction*
G04 #@! TA.AperFunction,ComponentPad*
G36*
X98969603Y-94000963D02*
G01*
X98989018Y-94003843D01*
X99008057Y-94008612D01*
X99026537Y-94015224D01*
X99044279Y-94023616D01*
X99061114Y-94033706D01*
X99076879Y-94045398D01*
X99091421Y-94058579D01*
X99104602Y-94073121D01*
X99116294Y-94088886D01*
X99126384Y-94105721D01*
X99134776Y-94123463D01*
X99141388Y-94141943D01*
X99146157Y-94160982D01*
X99149037Y-94180397D01*
X99150000Y-94200000D01*
X99150000Y-95400000D01*
X99149037Y-95419603D01*
X99146157Y-95439018D01*
X99141388Y-95458057D01*
X99134776Y-95476537D01*
X99126384Y-95494279D01*
X99116294Y-95511114D01*
X99104602Y-95526879D01*
X99091421Y-95541421D01*
X99076879Y-95554602D01*
X99061114Y-95566294D01*
X99044279Y-95576384D01*
X99026537Y-95584776D01*
X99008057Y-95591388D01*
X98989018Y-95596157D01*
X98969603Y-95599037D01*
X98950000Y-95600000D01*
X97750000Y-95600000D01*
X97730397Y-95599037D01*
X97710982Y-95596157D01*
X97691943Y-95591388D01*
X97673463Y-95584776D01*
X97655721Y-95576384D01*
X97638886Y-95566294D01*
X97623121Y-95554602D01*
X97608579Y-95541421D01*
X97595398Y-95526879D01*
X97583706Y-95511114D01*
X97573616Y-95494279D01*
X97565224Y-95476537D01*
X97558612Y-95458057D01*
X97553843Y-95439018D01*
X97550963Y-95419603D01*
X97550000Y-95400000D01*
X97550000Y-94200000D01*
X97550963Y-94180397D01*
X97553843Y-94160982D01*
X97558612Y-94141943D01*
X97565224Y-94123463D01*
X97573616Y-94105721D01*
X97583706Y-94088886D01*
X97595398Y-94073121D01*
X97608579Y-94058579D01*
X97623121Y-94045398D01*
X97638886Y-94033706D01*
X97655721Y-94023616D01*
X97673463Y-94015224D01*
X97691943Y-94008612D01*
X97710982Y-94003843D01*
X97730397Y-94000963D01*
X97750000Y-94000000D01*
X98950000Y-94000000D01*
X98969603Y-94000963D01*
G37*
G04 #@! TD.AperFunction*
G04 #@! TA.AperFunction,ComponentPad*
G36*
X98969603Y-91460963D02*
G01*
X98989018Y-91463843D01*
X99008057Y-91468612D01*
X99026537Y-91475224D01*
X99044279Y-91483616D01*
X99061114Y-91493706D01*
X99076879Y-91505398D01*
X99091421Y-91518579D01*
X99104602Y-91533121D01*
X99116294Y-91548886D01*
X99126384Y-91565721D01*
X99134776Y-91583463D01*
X99141388Y-91601943D01*
X99146157Y-91620982D01*
X99149037Y-91640397D01*
X99150000Y-91660000D01*
X99150000Y-92860000D01*
X99149037Y-92879603D01*
X99146157Y-92899018D01*
X99141388Y-92918057D01*
X99134776Y-92936537D01*
X99126384Y-92954279D01*
X99116294Y-92971114D01*
X99104602Y-92986879D01*
X99091421Y-93001421D01*
X99076879Y-93014602D01*
X99061114Y-93026294D01*
X99044279Y-93036384D01*
X99026537Y-93044776D01*
X99008057Y-93051388D01*
X98989018Y-93056157D01*
X98969603Y-93059037D01*
X98950000Y-93060000D01*
X97750000Y-93060000D01*
X97730397Y-93059037D01*
X97710982Y-93056157D01*
X97691943Y-93051388D01*
X97673463Y-93044776D01*
X97655721Y-93036384D01*
X97638886Y-93026294D01*
X97623121Y-93014602D01*
X97608579Y-93001421D01*
X97595398Y-92986879D01*
X97583706Y-92971114D01*
X97573616Y-92954279D01*
X97565224Y-92936537D01*
X97558612Y-92918057D01*
X97553843Y-92899018D01*
X97550963Y-92879603D01*
X97550000Y-92860000D01*
X97550000Y-91660000D01*
X97550963Y-91640397D01*
X97553843Y-91620982D01*
X97558612Y-91601943D01*
X97565224Y-91583463D01*
X97573616Y-91565721D01*
X97583706Y-91548886D01*
X97595398Y-91533121D01*
X97608579Y-91518579D01*
X97623121Y-91505398D01*
X97638886Y-91493706D01*
X97655721Y-91483616D01*
X97673463Y-91475224D01*
X97691943Y-91468612D01*
X97710982Y-91463843D01*
X97730397Y-91460963D01*
X97750000Y-91460000D01*
X98950000Y-91460000D01*
X98969603Y-91460963D01*
G37*
G04 #@! TD.AperFunction*
G04 #@! TA.AperFunction,ComponentPad*
G36*
X98969603Y-88920963D02*
G01*
X98989018Y-88923843D01*
X99008057Y-88928612D01*
X99026537Y-88935224D01*
X99044279Y-88943616D01*
X99061114Y-88953706D01*
X99076879Y-88965398D01*
X99091421Y-88978579D01*
X99104602Y-88993121D01*
X99116294Y-89008886D01*
X99126384Y-89025721D01*
X99134776Y-89043463D01*
X99141388Y-89061943D01*
X99146157Y-89080982D01*
X99149037Y-89100397D01*
X99150000Y-89120000D01*
X99150000Y-90320000D01*
X99149037Y-90339603D01*
X99146157Y-90359018D01*
X99141388Y-90378057D01*
X99134776Y-90396537D01*
X99126384Y-90414279D01*
X99116294Y-90431114D01*
X99104602Y-90446879D01*
X99091421Y-90461421D01*
X99076879Y-90474602D01*
X99061114Y-90486294D01*
X99044279Y-90496384D01*
X99026537Y-90504776D01*
X99008057Y-90511388D01*
X98989018Y-90516157D01*
X98969603Y-90519037D01*
X98950000Y-90520000D01*
X97750000Y-90520000D01*
X97730397Y-90519037D01*
X97710982Y-90516157D01*
X97691943Y-90511388D01*
X97673463Y-90504776D01*
X97655721Y-90496384D01*
X97638886Y-90486294D01*
X97623121Y-90474602D01*
X97608579Y-90461421D01*
X97595398Y-90446879D01*
X97583706Y-90431114D01*
X97573616Y-90414279D01*
X97565224Y-90396537D01*
X97558612Y-90378057D01*
X97553843Y-90359018D01*
X97550963Y-90339603D01*
X97550000Y-90320000D01*
X97550000Y-89120000D01*
X97550963Y-89100397D01*
X97553843Y-89080982D01*
X97558612Y-89061943D01*
X97565224Y-89043463D01*
X97573616Y-89025721D01*
X97583706Y-89008886D01*
X97595398Y-88993121D01*
X97608579Y-88978579D01*
X97623121Y-88965398D01*
X97638886Y-88953706D01*
X97655721Y-88943616D01*
X97673463Y-88935224D01*
X97691943Y-88928612D01*
X97710982Y-88923843D01*
X97730397Y-88920963D01*
X97750000Y-88920000D01*
X98950000Y-88920000D01*
X98969603Y-88920963D01*
G37*
G04 #@! TD.AperFunction*
G04 #@! TA.AperFunction,ComponentPad*
G36*
X98969603Y-86380963D02*
G01*
X98989018Y-86383843D01*
X99008057Y-86388612D01*
X99026537Y-86395224D01*
X99044279Y-86403616D01*
X99061114Y-86413706D01*
X99076879Y-86425398D01*
X99091421Y-86438579D01*
X99104602Y-86453121D01*
X99116294Y-86468886D01*
X99126384Y-86485721D01*
X99134776Y-86503463D01*
X99141388Y-86521943D01*
X99146157Y-86540982D01*
X99149037Y-86560397D01*
X99150000Y-86580000D01*
X99150000Y-87780000D01*
X99149037Y-87799603D01*
X99146157Y-87819018D01*
X99141388Y-87838057D01*
X99134776Y-87856537D01*
X99126384Y-87874279D01*
X99116294Y-87891114D01*
X99104602Y-87906879D01*
X99091421Y-87921421D01*
X99076879Y-87934602D01*
X99061114Y-87946294D01*
X99044279Y-87956384D01*
X99026537Y-87964776D01*
X99008057Y-87971388D01*
X98989018Y-87976157D01*
X98969603Y-87979037D01*
X98950000Y-87980000D01*
X97750000Y-87980000D01*
X97730397Y-87979037D01*
X97710982Y-87976157D01*
X97691943Y-87971388D01*
X97673463Y-87964776D01*
X97655721Y-87956384D01*
X97638886Y-87946294D01*
X97623121Y-87934602D01*
X97608579Y-87921421D01*
X97595398Y-87906879D01*
X97583706Y-87891114D01*
X97573616Y-87874279D01*
X97565224Y-87856537D01*
X97558612Y-87838057D01*
X97553843Y-87819018D01*
X97550963Y-87799603D01*
X97550000Y-87780000D01*
X97550000Y-86580000D01*
X97550963Y-86560397D01*
X97553843Y-86540982D01*
X97558612Y-86521943D01*
X97565224Y-86503463D01*
X97573616Y-86485721D01*
X97583706Y-86468886D01*
X97595398Y-86453121D01*
X97608579Y-86438579D01*
X97623121Y-86425398D01*
X97638886Y-86413706D01*
X97655721Y-86403616D01*
X97673463Y-86395224D01*
X97691943Y-86388612D01*
X97710982Y-86383843D01*
X97730397Y-86380963D01*
X97750000Y-86380000D01*
X98950000Y-86380000D01*
X98969603Y-86380963D01*
G37*
G04 #@! TD.AperFunction*
G04 #@! TA.AperFunction,ComponentPad*
G36*
X98969603Y-83840963D02*
G01*
X98989018Y-83843843D01*
X99008057Y-83848612D01*
X99026537Y-83855224D01*
X99044279Y-83863616D01*
X99061114Y-83873706D01*
X99076879Y-83885398D01*
X99091421Y-83898579D01*
X99104602Y-83913121D01*
X99116294Y-83928886D01*
X99126384Y-83945721D01*
X99134776Y-83963463D01*
X99141388Y-83981943D01*
X99146157Y-84000982D01*
X99149037Y-84020397D01*
X99150000Y-84040000D01*
X99150000Y-85240000D01*
X99149037Y-85259603D01*
X99146157Y-85279018D01*
X99141388Y-85298057D01*
X99134776Y-85316537D01*
X99126384Y-85334279D01*
X99116294Y-85351114D01*
X99104602Y-85366879D01*
X99091421Y-85381421D01*
X99076879Y-85394602D01*
X99061114Y-85406294D01*
X99044279Y-85416384D01*
X99026537Y-85424776D01*
X99008057Y-85431388D01*
X98989018Y-85436157D01*
X98969603Y-85439037D01*
X98950000Y-85440000D01*
X97750000Y-85440000D01*
X97730397Y-85439037D01*
X97710982Y-85436157D01*
X97691943Y-85431388D01*
X97673463Y-85424776D01*
X97655721Y-85416384D01*
X97638886Y-85406294D01*
X97623121Y-85394602D01*
X97608579Y-85381421D01*
X97595398Y-85366879D01*
X97583706Y-85351114D01*
X97573616Y-85334279D01*
X97565224Y-85316537D01*
X97558612Y-85298057D01*
X97553843Y-85279018D01*
X97550963Y-85259603D01*
X97550000Y-85240000D01*
X97550000Y-84040000D01*
X97550963Y-84020397D01*
X97553843Y-84000982D01*
X97558612Y-83981943D01*
X97565224Y-83963463D01*
X97573616Y-83945721D01*
X97583706Y-83928886D01*
X97595398Y-83913121D01*
X97608579Y-83898579D01*
X97623121Y-83885398D01*
X97638886Y-83873706D01*
X97655721Y-83863616D01*
X97673463Y-83855224D01*
X97691943Y-83848612D01*
X97710982Y-83843843D01*
X97730397Y-83840963D01*
X97750000Y-83840000D01*
X98950000Y-83840000D01*
X98969603Y-83840963D01*
G37*
G04 #@! TD.AperFunction*
G04 #@! TA.AperFunction,ComponentPad*
G36*
X98969603Y-81300963D02*
G01*
X98989018Y-81303843D01*
X99008057Y-81308612D01*
X99026537Y-81315224D01*
X99044279Y-81323616D01*
X99061114Y-81333706D01*
X99076879Y-81345398D01*
X99091421Y-81358579D01*
X99104602Y-81373121D01*
X99116294Y-81388886D01*
X99126384Y-81405721D01*
X99134776Y-81423463D01*
X99141388Y-81441943D01*
X99146157Y-81460982D01*
X99149037Y-81480397D01*
X99150000Y-81500000D01*
X99150000Y-82700000D01*
X99149037Y-82719603D01*
X99146157Y-82739018D01*
X99141388Y-82758057D01*
X99134776Y-82776537D01*
X99126384Y-82794279D01*
X99116294Y-82811114D01*
X99104602Y-82826879D01*
X99091421Y-82841421D01*
X99076879Y-82854602D01*
X99061114Y-82866294D01*
X99044279Y-82876384D01*
X99026537Y-82884776D01*
X99008057Y-82891388D01*
X98989018Y-82896157D01*
X98969603Y-82899037D01*
X98950000Y-82900000D01*
X97750000Y-82900000D01*
X97730397Y-82899037D01*
X97710982Y-82896157D01*
X97691943Y-82891388D01*
X97673463Y-82884776D01*
X97655721Y-82876384D01*
X97638886Y-82866294D01*
X97623121Y-82854602D01*
X97608579Y-82841421D01*
X97595398Y-82826879D01*
X97583706Y-82811114D01*
X97573616Y-82794279D01*
X97565224Y-82776537D01*
X97558612Y-82758057D01*
X97553843Y-82739018D01*
X97550963Y-82719603D01*
X97550000Y-82700000D01*
X97550000Y-81500000D01*
X97550963Y-81480397D01*
X97553843Y-81460982D01*
X97558612Y-81441943D01*
X97565224Y-81423463D01*
X97573616Y-81405721D01*
X97583706Y-81388886D01*
X97595398Y-81373121D01*
X97608579Y-81358579D01*
X97623121Y-81345398D01*
X97638886Y-81333706D01*
X97655721Y-81323616D01*
X97673463Y-81315224D01*
X97691943Y-81308612D01*
X97710982Y-81303843D01*
X97730397Y-81300963D01*
X97750000Y-81300000D01*
X98950000Y-81300000D01*
X98969603Y-81300963D01*
G37*
G04 #@! TD.AperFunction*
D12*
X97000000Y-107240000D03*
D13*
X99400000Y-107240000D03*
X98697056Y-108937056D03*
X97000000Y-109640000D03*
X95302944Y-108937056D03*
X94600000Y-107240000D03*
X95302944Y-105542944D03*
X97000000Y-104840000D03*
X98697056Y-105542944D03*
D12*
X87000000Y-107240000D03*
D13*
X89400000Y-107240000D03*
X88697056Y-108937056D03*
X87000000Y-109640000D03*
X85302944Y-108937056D03*
X84600000Y-107240000D03*
X85302944Y-105542944D03*
X87000000Y-104840000D03*
X88697056Y-105542944D03*
D12*
X97000000Y-74740000D03*
D13*
X99400000Y-74740000D03*
X98697056Y-76437056D03*
X97000000Y-77140000D03*
X95302944Y-76437056D03*
X94600000Y-74740000D03*
X95302944Y-73042944D03*
X97000000Y-72340000D03*
X98697056Y-73042944D03*
D12*
X87000000Y-74740000D03*
D13*
X89400000Y-74740000D03*
X88697056Y-76437056D03*
X87000000Y-77140000D03*
X85302944Y-76437056D03*
X84600000Y-74740000D03*
X85302944Y-73042944D03*
X87000000Y-72340000D03*
X88697056Y-73042944D03*
G04 #@! TA.AperFunction,SMDPad,CuDef*
D11*
G36*
X93000000Y-87500000D02*
G01*
X93500000Y-86750000D01*
X94500000Y-86750000D01*
X94500000Y-88250000D01*
X93500000Y-88250000D01*
X93000000Y-87500000D01*
G37*
G04 #@! TD.AperFunction*
G04 #@! TA.AperFunction,Conductor*
G36*
X91300000Y-87500000D02*
G01*
X90800000Y-86750000D01*
X93200000Y-86750000D01*
X92700000Y-87500000D01*
X93200000Y-88250000D01*
X90800000Y-88250000D01*
X91300000Y-87500000D01*
G37*
G04 #@! TD.AperFunction*
G04 #@! TA.AperFunction,SMDPad,CuDef*
G36*
X91000000Y-87500000D02*
G01*
X90500000Y-88250000D01*
X89500000Y-88250000D01*
X89500000Y-86750000D01*
X90500000Y-86750000D01*
X91000000Y-87500000D01*
G37*
G04 #@! TD.AperFunction*
G04 #@! TA.AperFunction,SMDPad,CuDef*
G36*
X91000000Y-91310000D02*
G01*
X90500000Y-92060000D01*
X89500000Y-92060000D01*
X89500000Y-90560000D01*
X90500000Y-90560000D01*
X91000000Y-91310000D01*
G37*
G04 #@! TD.AperFunction*
G04 #@! TA.AperFunction,Conductor*
G36*
X91300000Y-91310000D02*
G01*
X90800000Y-90560000D01*
X93200000Y-90560000D01*
X92700000Y-91310000D01*
X93200000Y-92060000D01*
X90800000Y-92060000D01*
X91300000Y-91310000D01*
G37*
G04 #@! TD.AperFunction*
G04 #@! TA.AperFunction,SMDPad,CuDef*
G36*
X93000000Y-91310000D02*
G01*
X93500000Y-90560000D01*
X94500000Y-90560000D01*
X94500000Y-92060000D01*
X93500000Y-92060000D01*
X93000000Y-91310000D01*
G37*
G04 #@! TD.AperFunction*
G04 #@! TA.AperFunction,SMDPad,CuDef*
G36*
X93000000Y-95120000D02*
G01*
X93500000Y-94370000D01*
X94500000Y-94370000D01*
X94500000Y-95870000D01*
X93500000Y-95870000D01*
X93000000Y-95120000D01*
G37*
G04 #@! TD.AperFunction*
G04 #@! TA.AperFunction,Conductor*
G36*
X91300000Y-95120000D02*
G01*
X90800000Y-94370000D01*
X93200000Y-94370000D01*
X92700000Y-95120000D01*
X93200000Y-95870000D01*
X90800000Y-95870000D01*
X91300000Y-95120000D01*
G37*
G04 #@! TD.AperFunction*
G04 #@! TA.AperFunction,SMDPad,CuDef*
G36*
X91000000Y-95120000D02*
G01*
X90500000Y-95870000D01*
X89500000Y-95870000D01*
X89500000Y-94370000D01*
X90500000Y-94370000D01*
X91000000Y-95120000D01*
G37*
G04 #@! TD.AperFunction*
D14*
X95800000Y-97490000D03*
X90300000Y-97090000D03*
X88500000Y-88490000D03*
X88500000Y-90390000D03*
X90000000Y-91310000D03*
X95800000Y-91190000D03*
X95700000Y-88090000D03*
X97000000Y-93990000D03*
X95100000Y-95190000D03*
X91100000Y-100590000D03*
X90400000Y-99990000D03*
X84200000Y-93990000D03*
X92200000Y-100290000D03*
X90500000Y-101390000D03*
X92800000Y-96490000D03*
X92250000Y-99440000D03*
X88700000Y-97090000D03*
X87900000Y-92090000D03*
X90700000Y-89490000D03*
D15*
X95600000Y-97290000D02*
X95800000Y-97490000D01*
X90500000Y-97290000D02*
X95600000Y-97290000D01*
X90300000Y-97090000D02*
X90500000Y-97290000D01*
X90000000Y-87500000D02*
X90000000Y-83290000D01*
X88810000Y-82100000D02*
X85650000Y-82100000D01*
X90000000Y-83290000D02*
X88810000Y-82100000D01*
X90000000Y-91310000D02*
X89420000Y-91310000D01*
X88790000Y-87500000D02*
X90000000Y-87500000D01*
X88500000Y-87790000D02*
X88790000Y-87500000D01*
X88500000Y-88490000D02*
X88500000Y-87790000D01*
X89420000Y-91310000D02*
X88500000Y-90390000D01*
X89500000Y-95120000D02*
X88470000Y-94090000D01*
X90000000Y-95120000D02*
X89500000Y-95120000D01*
X88470000Y-94090000D02*
X87300000Y-94090000D01*
X87300000Y-94090000D02*
X86800000Y-93590000D01*
X85037522Y-93590000D02*
X84500000Y-93052478D01*
X86800000Y-93590000D02*
X85037522Y-93590000D01*
X84500000Y-91467522D02*
X84977522Y-90990000D01*
X84500000Y-93052478D02*
X84500000Y-91467522D01*
X87900000Y-90990000D02*
X88500000Y-90390000D01*
X84977522Y-90990000D02*
X87900000Y-90990000D01*
X94000000Y-87500000D02*
X95110000Y-87500000D01*
X95680000Y-91310000D02*
X94000000Y-91310000D01*
X95800000Y-91190000D02*
X95680000Y-91310000D01*
X95110000Y-87500000D02*
X95700000Y-88090000D01*
X96100000Y-93990000D02*
X97000000Y-93990000D01*
X94000000Y-95120000D02*
X94970000Y-95120000D01*
X95100000Y-95190000D02*
X96100000Y-93990000D01*
X94970000Y-95120000D02*
X95100000Y-95190000D01*
X99150000Y-87180000D02*
X98350000Y-87180000D01*
X99700000Y-87730000D02*
X99150000Y-87180000D01*
X99700000Y-91690000D02*
X99700000Y-87730000D01*
X99800000Y-91790000D02*
X99700000Y-91690000D01*
X99800000Y-97832478D02*
X99800000Y-91790000D01*
X98942478Y-98690000D02*
X99800000Y-97832478D01*
X96900000Y-98690000D02*
X98942478Y-98690000D01*
X94500001Y-101089999D02*
X96900000Y-98690000D01*
X91100000Y-100590000D02*
X91699999Y-101089999D01*
X91699999Y-101089999D02*
X94500001Y-101089999D01*
X90400000Y-99990000D02*
X87100000Y-96690000D01*
X87100000Y-96690000D02*
X86500000Y-96090000D01*
X84200000Y-95292478D02*
X84200000Y-93990000D01*
X84997522Y-96090000D02*
X84200000Y-95292478D01*
X86500000Y-96090000D02*
X84997522Y-96090000D01*
X98350000Y-97340000D02*
X97150000Y-97340000D01*
X94200000Y-100290000D02*
X92200000Y-100290000D01*
X97150000Y-97340000D02*
X94200000Y-100290000D01*
X86450000Y-97340000D02*
X87200000Y-98090000D01*
X85650000Y-97340000D02*
X86450000Y-97340000D01*
X87200000Y-98090000D02*
X87200000Y-99190000D01*
X90200001Y-101090001D02*
X89100001Y-101090001D01*
X89100001Y-101090001D02*
X87200000Y-99190000D01*
X90500000Y-101390000D02*
X90200001Y-101090001D01*
X92000000Y-95120000D02*
X92000000Y-96190000D01*
X97090000Y-94800000D02*
X98350000Y-94800000D01*
X95400000Y-96490000D02*
X97090000Y-94800000D01*
X92300000Y-96490000D02*
X92800000Y-96490000D01*
X92800000Y-96490000D02*
X95400000Y-96490000D01*
X92000000Y-96190000D02*
X92300000Y-96490000D01*
X85650000Y-94800000D02*
X86910000Y-94800000D01*
X91800000Y-96390000D02*
X92000000Y-96190000D01*
X88500000Y-96390000D02*
X91800000Y-96390000D01*
X86910000Y-94800000D02*
X88500000Y-96390000D01*
X98350000Y-92260000D02*
X96530000Y-92260000D01*
X92000000Y-92690000D02*
X92000000Y-91310000D01*
X92500000Y-93190000D02*
X92000000Y-92690000D01*
X95600000Y-93190000D02*
X92500000Y-93190000D01*
X96530000Y-92260000D02*
X95600000Y-93190000D01*
X85650000Y-92260000D02*
X86670000Y-92260000D01*
X91400000Y-93290000D02*
X92000000Y-92690000D01*
X87700000Y-93290000D02*
X91400000Y-93290000D01*
X91825736Y-99440000D02*
X90475736Y-98090000D01*
X92250000Y-99440000D02*
X91825736Y-99440000D01*
X90475736Y-98090000D02*
X89700000Y-98090000D01*
X89700000Y-98090000D02*
X88700000Y-97090000D01*
X87900000Y-92090000D02*
X87200000Y-92790000D01*
X87200000Y-92790000D02*
X87700000Y-93290000D01*
X86670000Y-92260000D02*
X87200000Y-92790000D01*
X92000000Y-87500000D02*
X92000000Y-88890000D01*
X96730000Y-89720000D02*
X98350000Y-89720000D01*
X96500000Y-89490000D02*
X96730000Y-89720000D01*
X92600000Y-89490000D02*
X96500000Y-89490000D01*
X92000000Y-88890000D02*
X92600000Y-89490000D01*
X85650000Y-89720000D02*
X87870000Y-89720000D01*
X91400000Y-89490000D02*
X92000000Y-88890000D01*
X87870000Y-89720000D02*
X88100000Y-89490000D01*
X90700000Y-89490000D02*
X91400000Y-89490000D01*
X88100000Y-89490000D02*
X90700000Y-89490000D01*
M02*
