G04 #@! TF.GenerationSoftware,KiCad,Pcbnew,(5.1.5-0-10_14)*
G04 #@! TF.CreationDate,2020-04-10T20:26:08+03:00*
G04 #@! TF.ProjectId,connector-breakout-a1,636f6e6e-6563-4746-9f72-2d627265616b,rev?*
G04 #@! TF.SameCoordinates,Original*
G04 #@! TF.FileFunction,Legend,Top*
G04 #@! TF.FilePolarity,Positive*
%FSLAX46Y46*%
G04 Gerber Fmt 4.6, Leading zero omitted, Abs format (unit mm)*
G04 Created by KiCad (PCBNEW (5.1.5-0-10_14)) date 2020-04-10 20:26:08*
%MOMM*%
%LPD*%
G04 APERTURE LIST*
%ADD10C,0.150000*%
%ADD11C,0.300000*%
%ADD12C,0.010000*%
%ADD13C,0.120000*%
G04 APERTURE END LIST*
D10*
X83776761Y-99826952D02*
X83681523Y-99779333D01*
X83633904Y-99731714D01*
X83586285Y-99636476D01*
X83586285Y-99588857D01*
X83633904Y-99493619D01*
X83681523Y-99446000D01*
X83776761Y-99398380D01*
X83967238Y-99398380D01*
X84062476Y-99446000D01*
X84110095Y-99493619D01*
X84157714Y-99588857D01*
X84157714Y-99636476D01*
X84110095Y-99731714D01*
X84062476Y-99779333D01*
X83967238Y-99826952D01*
X83776761Y-99826952D01*
X83681523Y-99874571D01*
X83633904Y-99922190D01*
X83586285Y-100017428D01*
X83586285Y-100207904D01*
X83633904Y-100303142D01*
X83681523Y-100350761D01*
X83776761Y-100398380D01*
X83967238Y-100398380D01*
X84062476Y-100350761D01*
X84110095Y-100303142D01*
X84157714Y-100207904D01*
X84157714Y-100017428D01*
X84110095Y-99922190D01*
X84062476Y-99874571D01*
X83967238Y-99826952D01*
X83538666Y-96858380D02*
X84205333Y-96858380D01*
X83776761Y-97858380D01*
X84062476Y-94318380D02*
X83872000Y-94318380D01*
X83776761Y-94366000D01*
X83729142Y-94413619D01*
X83633904Y-94556476D01*
X83586285Y-94746952D01*
X83586285Y-95127904D01*
X83633904Y-95223142D01*
X83681523Y-95270761D01*
X83776761Y-95318380D01*
X83967238Y-95318380D01*
X84062476Y-95270761D01*
X84110095Y-95223142D01*
X84157714Y-95127904D01*
X84157714Y-94889809D01*
X84110095Y-94794571D01*
X84062476Y-94746952D01*
X83967238Y-94699333D01*
X83776761Y-94699333D01*
X83681523Y-94746952D01*
X83633904Y-94794571D01*
X83586285Y-94889809D01*
X84110095Y-91778380D02*
X83633904Y-91778380D01*
X83586285Y-92254571D01*
X83633904Y-92206952D01*
X83729142Y-92159333D01*
X83967238Y-92159333D01*
X84062476Y-92206952D01*
X84110095Y-92254571D01*
X84157714Y-92349809D01*
X84157714Y-92587904D01*
X84110095Y-92683142D01*
X84062476Y-92730761D01*
X83967238Y-92778380D01*
X83729142Y-92778380D01*
X83633904Y-92730761D01*
X83586285Y-92683142D01*
X84062476Y-89571714D02*
X84062476Y-90238380D01*
X83824380Y-89190761D02*
X83586285Y-89905047D01*
X84205333Y-89905047D01*
X83538666Y-86698380D02*
X84157714Y-86698380D01*
X83824380Y-87079333D01*
X83967238Y-87079333D01*
X84062476Y-87126952D01*
X84110095Y-87174571D01*
X84157714Y-87269809D01*
X84157714Y-87507904D01*
X84110095Y-87603142D01*
X84062476Y-87650761D01*
X83967238Y-87698380D01*
X83681523Y-87698380D01*
X83586285Y-87650761D01*
X83538666Y-87603142D01*
X83586285Y-84253619D02*
X83633904Y-84206000D01*
X83729142Y-84158380D01*
X83967238Y-84158380D01*
X84062476Y-84206000D01*
X84110095Y-84253619D01*
X84157714Y-84348857D01*
X84157714Y-84444095D01*
X84110095Y-84586952D01*
X83538666Y-85158380D01*
X84157714Y-85158380D01*
X84157714Y-82618380D02*
X83586285Y-82618380D01*
X83872000Y-82618380D02*
X83872000Y-81618380D01*
X83776761Y-81761238D01*
X83681523Y-81856476D01*
X83586285Y-81904095D01*
X100032761Y-99826952D02*
X99937523Y-99779333D01*
X99889904Y-99731714D01*
X99842285Y-99636476D01*
X99842285Y-99588857D01*
X99889904Y-99493619D01*
X99937523Y-99446000D01*
X100032761Y-99398380D01*
X100223238Y-99398380D01*
X100318476Y-99446000D01*
X100366095Y-99493619D01*
X100413714Y-99588857D01*
X100413714Y-99636476D01*
X100366095Y-99731714D01*
X100318476Y-99779333D01*
X100223238Y-99826952D01*
X100032761Y-99826952D01*
X99937523Y-99874571D01*
X99889904Y-99922190D01*
X99842285Y-100017428D01*
X99842285Y-100207904D01*
X99889904Y-100303142D01*
X99937523Y-100350761D01*
X100032761Y-100398380D01*
X100223238Y-100398380D01*
X100318476Y-100350761D01*
X100366095Y-100303142D01*
X100413714Y-100207904D01*
X100413714Y-100017428D01*
X100366095Y-99922190D01*
X100318476Y-99874571D01*
X100223238Y-99826952D01*
X99794666Y-96858380D02*
X100461333Y-96858380D01*
X100032761Y-97858380D01*
X100318476Y-94318380D02*
X100128000Y-94318380D01*
X100032761Y-94366000D01*
X99985142Y-94413619D01*
X99889904Y-94556476D01*
X99842285Y-94746952D01*
X99842285Y-95127904D01*
X99889904Y-95223142D01*
X99937523Y-95270761D01*
X100032761Y-95318380D01*
X100223238Y-95318380D01*
X100318476Y-95270761D01*
X100366095Y-95223142D01*
X100413714Y-95127904D01*
X100413714Y-94889809D01*
X100366095Y-94794571D01*
X100318476Y-94746952D01*
X100223238Y-94699333D01*
X100032761Y-94699333D01*
X99937523Y-94746952D01*
X99889904Y-94794571D01*
X99842285Y-94889809D01*
X100366095Y-91778380D02*
X99889904Y-91778380D01*
X99842285Y-92254571D01*
X99889904Y-92206952D01*
X99985142Y-92159333D01*
X100223238Y-92159333D01*
X100318476Y-92206952D01*
X100366095Y-92254571D01*
X100413714Y-92349809D01*
X100413714Y-92587904D01*
X100366095Y-92683142D01*
X100318476Y-92730761D01*
X100223238Y-92778380D01*
X99985142Y-92778380D01*
X99889904Y-92730761D01*
X99842285Y-92683142D01*
X100318476Y-89571714D02*
X100318476Y-90238380D01*
X100080380Y-89190761D02*
X99842285Y-89905047D01*
X100461333Y-89905047D01*
X99794666Y-86698380D02*
X100413714Y-86698380D01*
X100080380Y-87079333D01*
X100223238Y-87079333D01*
X100318476Y-87126952D01*
X100366095Y-87174571D01*
X100413714Y-87269809D01*
X100413714Y-87507904D01*
X100366095Y-87603142D01*
X100318476Y-87650761D01*
X100223238Y-87698380D01*
X99937523Y-87698380D01*
X99842285Y-87650761D01*
X99794666Y-87603142D01*
X99842285Y-84253619D02*
X99889904Y-84206000D01*
X99985142Y-84158380D01*
X100223238Y-84158380D01*
X100318476Y-84206000D01*
X100366095Y-84253619D01*
X100413714Y-84348857D01*
X100413714Y-84444095D01*
X100366095Y-84586952D01*
X99794666Y-85158380D01*
X100413714Y-85158380D01*
X100413714Y-82442380D02*
X99842285Y-82442380D01*
X100128000Y-82442380D02*
X100128000Y-81442380D01*
X100032761Y-81585238D01*
X99937523Y-81680476D01*
X99842285Y-81728095D01*
D11*
X84878571Y-80768571D02*
X84378571Y-80054285D01*
X84021428Y-80768571D02*
X84021428Y-79268571D01*
X84592857Y-79268571D01*
X84735714Y-79340000D01*
X84807142Y-79411428D01*
X84878571Y-79554285D01*
X84878571Y-79768571D01*
X84807142Y-79911428D01*
X84735714Y-79982857D01*
X84592857Y-80054285D01*
X84021428Y-80054285D01*
X86164285Y-79768571D02*
X86164285Y-80768571D01*
X85521428Y-79768571D02*
X85521428Y-80554285D01*
X85592857Y-80697142D01*
X85735714Y-80768571D01*
X85950000Y-80768571D01*
X86092857Y-80697142D01*
X86164285Y-80625714D01*
X87521428Y-79768571D02*
X87521428Y-80768571D01*
X86878571Y-79768571D02*
X86878571Y-80554285D01*
X86950000Y-80697142D01*
X87092857Y-80768571D01*
X87307142Y-80768571D01*
X87450000Y-80697142D01*
X87521428Y-80625714D01*
X88092857Y-79768571D02*
X88450000Y-80768571D01*
X88807142Y-79768571D01*
X89378571Y-80768571D02*
X89378571Y-79768571D01*
X89378571Y-79268571D02*
X89307142Y-79340000D01*
X89378571Y-79411428D01*
X89450000Y-79340000D01*
X89378571Y-79268571D01*
X89378571Y-79411428D01*
D12*
X100749999Y-110990000D02*
X83250001Y-110990000D01*
X83250001Y-110990000D02*
X83250000Y-70990000D01*
X100750001Y-70990000D02*
X100749999Y-110990000D01*
X83250000Y-70990000D02*
X100750000Y-70990000D01*
G36*
X91041029Y-79183433D02*
G01*
X91088542Y-79187481D01*
X91135936Y-79193919D01*
X91183122Y-79202758D01*
X91230010Y-79214010D01*
X91276512Y-79227684D01*
X91322539Y-79243792D01*
X91358650Y-79258306D01*
X91402226Y-79278222D01*
X91444801Y-79300431D01*
X91486270Y-79324852D01*
X91526527Y-79351400D01*
X91565466Y-79379993D01*
X91602981Y-79410548D01*
X91638968Y-79442981D01*
X91673320Y-79477210D01*
X91705932Y-79513152D01*
X91736699Y-79550723D01*
X91746181Y-79563135D01*
X91774415Y-79602834D01*
X91800544Y-79643905D01*
X91824519Y-79686238D01*
X91846291Y-79729721D01*
X91865810Y-79774244D01*
X91883028Y-79819696D01*
X91897896Y-79865968D01*
X91910363Y-79912947D01*
X91918605Y-79951120D01*
X91926650Y-79999128D01*
X91932241Y-80047518D01*
X91935380Y-80096138D01*
X91936071Y-80144837D01*
X91934315Y-80193460D01*
X91930115Y-80241856D01*
X91923475Y-80289874D01*
X91914396Y-80337359D01*
X91911706Y-80349303D01*
X91899370Y-80396854D01*
X91884689Y-80443478D01*
X91867706Y-80489108D01*
X91848465Y-80533676D01*
X91827012Y-80577112D01*
X91803391Y-80619350D01*
X91777645Y-80660321D01*
X91749821Y-80699957D01*
X91719961Y-80738189D01*
X91688111Y-80774950D01*
X91654315Y-80810171D01*
X91618617Y-80843785D01*
X91581063Y-80875722D01*
X91554809Y-80896205D01*
X91515501Y-80924235D01*
X91474764Y-80950203D01*
X91432722Y-80974058D01*
X91389499Y-80995747D01*
X91345216Y-81015221D01*
X91299999Y-81032428D01*
X91253969Y-81047317D01*
X91207250Y-81059836D01*
X91159966Y-81069935D01*
X91121160Y-81076331D01*
X91090216Y-81080227D01*
X91058606Y-81083196D01*
X91026970Y-81085204D01*
X90995949Y-81086216D01*
X90966182Y-81086198D01*
X90948440Y-81085646D01*
X90934003Y-81084889D01*
X90918486Y-81083868D01*
X90902818Y-81082654D01*
X90887930Y-81081317D01*
X90876050Y-81080079D01*
X90827616Y-81073339D01*
X90779832Y-81064168D01*
X90732773Y-81052611D01*
X90686517Y-81038712D01*
X90641142Y-81022516D01*
X90596725Y-81004067D01*
X90553344Y-80983409D01*
X90511076Y-80960588D01*
X90469998Y-80935647D01*
X90430189Y-80908631D01*
X90391725Y-80879584D01*
X90354684Y-80848551D01*
X90319144Y-80815577D01*
X90285182Y-80780705D01*
X90252875Y-80743980D01*
X90222301Y-80705446D01*
X90221864Y-80704865D01*
X90193747Y-80665366D01*
X90167655Y-80624402D01*
X90143672Y-80582129D01*
X90121879Y-80538704D01*
X90102361Y-80494286D01*
X90085202Y-80449031D01*
X90082766Y-80441975D01*
X90068149Y-80395154D01*
X90055995Y-80347808D01*
X90046304Y-80300034D01*
X90039076Y-80251929D01*
X90034310Y-80203588D01*
X90032007Y-80155108D01*
X90032034Y-80146906D01*
X90211163Y-80146906D01*
X90213114Y-80190913D01*
X90217536Y-80234677D01*
X90224419Y-80278079D01*
X90233756Y-80320999D01*
X90245536Y-80363319D01*
X90245634Y-80363634D01*
X90259715Y-80404770D01*
X90276138Y-80445024D01*
X90294829Y-80484287D01*
X90315709Y-80522451D01*
X90338705Y-80559410D01*
X90363738Y-80595054D01*
X90390734Y-80629276D01*
X90419615Y-80661968D01*
X90450307Y-80693023D01*
X90482732Y-80722332D01*
X90516815Y-80749788D01*
X90519815Y-80752054D01*
X90555414Y-80777259D01*
X90592325Y-80800375D01*
X90630415Y-80821353D01*
X90669557Y-80840144D01*
X90709618Y-80856699D01*
X90750471Y-80870970D01*
X90791983Y-80882907D01*
X90834027Y-80892463D01*
X90876470Y-80899589D01*
X90919185Y-80904235D01*
X90927485Y-80904845D01*
X90943667Y-80905869D01*
X90957909Y-80906600D01*
X90970795Y-80907045D01*
X90982906Y-80907212D01*
X90994825Y-80907109D01*
X91007134Y-80906746D01*
X91020195Y-80906141D01*
X91053478Y-80903817D01*
X91085105Y-80900410D01*
X91115761Y-80895821D01*
X91146131Y-80889948D01*
X91172018Y-80883926D01*
X91214283Y-80872073D01*
X91255654Y-80857869D01*
X91296047Y-80841370D01*
X91335375Y-80822635D01*
X91373553Y-80801719D01*
X91410496Y-80778679D01*
X91446118Y-80753573D01*
X91480334Y-80726457D01*
X91513058Y-80697389D01*
X91544205Y-80666425D01*
X91573689Y-80633622D01*
X91601425Y-80599037D01*
X91603026Y-80596915D01*
X91628152Y-80561380D01*
X91651219Y-80524427D01*
X91672167Y-80486199D01*
X91690935Y-80446838D01*
X91707464Y-80406486D01*
X91721692Y-80365288D01*
X91733561Y-80323385D01*
X91743010Y-80280920D01*
X91747780Y-80253380D01*
X91753292Y-80209359D01*
X91756308Y-80165223D01*
X91756836Y-80121093D01*
X91754885Y-80077086D01*
X91750463Y-80033322D01*
X91743580Y-79989920D01*
X91734243Y-79947000D01*
X91722463Y-79904680D01*
X91722365Y-79904365D01*
X91708280Y-79863211D01*
X91691873Y-79822988D01*
X91673220Y-79783795D01*
X91652398Y-79745729D01*
X91629485Y-79708888D01*
X91604557Y-79673371D01*
X91577691Y-79639276D01*
X91548965Y-79606700D01*
X91518455Y-79575742D01*
X91486238Y-79546500D01*
X91452392Y-79519072D01*
X91416992Y-79493556D01*
X91382793Y-79471656D01*
X91344433Y-79449982D01*
X91305069Y-79430618D01*
X91264796Y-79413584D01*
X91223709Y-79398900D01*
X91181901Y-79386587D01*
X91139468Y-79376663D01*
X91096504Y-79369150D01*
X91053104Y-79364066D01*
X91009362Y-79361433D01*
X90965372Y-79361269D01*
X90921231Y-79363596D01*
X90887510Y-79367057D01*
X90844012Y-79373743D01*
X90801038Y-79382899D01*
X90758687Y-79394490D01*
X90717060Y-79408482D01*
X90676255Y-79424840D01*
X90636372Y-79443529D01*
X90597511Y-79464516D01*
X90584537Y-79472175D01*
X90548108Y-79495628D01*
X90512903Y-79521250D01*
X90479066Y-79548909D01*
X90446741Y-79578475D01*
X90416073Y-79609817D01*
X90387207Y-79642804D01*
X90364910Y-79671085D01*
X90339805Y-79706605D01*
X90316754Y-79743551D01*
X90295818Y-79781780D01*
X90277057Y-79821145D01*
X90260533Y-79861502D01*
X90246306Y-79902706D01*
X90234438Y-79944612D01*
X90224990Y-79987076D01*
X90220219Y-80014620D01*
X90214707Y-80058640D01*
X90211691Y-80102776D01*
X90211163Y-80146906D01*
X90032034Y-80146906D01*
X90032167Y-80106587D01*
X90034790Y-80058120D01*
X90039876Y-80009804D01*
X90047424Y-79961736D01*
X90057435Y-79914012D01*
X90069909Y-79866729D01*
X90082766Y-79826025D01*
X90099620Y-79780465D01*
X90118783Y-79735899D01*
X90140191Y-79692416D01*
X90163780Y-79650103D01*
X90189486Y-79609048D01*
X90217245Y-79569339D01*
X90246993Y-79531063D01*
X90278667Y-79494310D01*
X90312202Y-79459165D01*
X90347535Y-79425718D01*
X90384602Y-79394056D01*
X90413135Y-79371809D01*
X90452977Y-79343508D01*
X90493946Y-79317449D01*
X90535952Y-79293641D01*
X90578906Y-79272096D01*
X90622720Y-79252824D01*
X90667303Y-79235836D01*
X90712569Y-79221143D01*
X90758426Y-79208755D01*
X90804787Y-79198682D01*
X90851562Y-79190937D01*
X90898663Y-79185528D01*
X90946001Y-79182468D01*
X90993486Y-79181766D01*
X91041029Y-79183433D01*
G37*
X91041029Y-79183433D02*
X91088542Y-79187481D01*
X91135936Y-79193919D01*
X91183122Y-79202758D01*
X91230010Y-79214010D01*
X91276512Y-79227684D01*
X91322539Y-79243792D01*
X91358650Y-79258306D01*
X91402226Y-79278222D01*
X91444801Y-79300431D01*
X91486270Y-79324852D01*
X91526527Y-79351400D01*
X91565466Y-79379993D01*
X91602981Y-79410548D01*
X91638968Y-79442981D01*
X91673320Y-79477210D01*
X91705932Y-79513152D01*
X91736699Y-79550723D01*
X91746181Y-79563135D01*
X91774415Y-79602834D01*
X91800544Y-79643905D01*
X91824519Y-79686238D01*
X91846291Y-79729721D01*
X91865810Y-79774244D01*
X91883028Y-79819696D01*
X91897896Y-79865968D01*
X91910363Y-79912947D01*
X91918605Y-79951120D01*
X91926650Y-79999128D01*
X91932241Y-80047518D01*
X91935380Y-80096138D01*
X91936071Y-80144837D01*
X91934315Y-80193460D01*
X91930115Y-80241856D01*
X91923475Y-80289874D01*
X91914396Y-80337359D01*
X91911706Y-80349303D01*
X91899370Y-80396854D01*
X91884689Y-80443478D01*
X91867706Y-80489108D01*
X91848465Y-80533676D01*
X91827012Y-80577112D01*
X91803391Y-80619350D01*
X91777645Y-80660321D01*
X91749821Y-80699957D01*
X91719961Y-80738189D01*
X91688111Y-80774950D01*
X91654315Y-80810171D01*
X91618617Y-80843785D01*
X91581063Y-80875722D01*
X91554809Y-80896205D01*
X91515501Y-80924235D01*
X91474764Y-80950203D01*
X91432722Y-80974058D01*
X91389499Y-80995747D01*
X91345216Y-81015221D01*
X91299999Y-81032428D01*
X91253969Y-81047317D01*
X91207250Y-81059836D01*
X91159966Y-81069935D01*
X91121160Y-81076331D01*
X91090216Y-81080227D01*
X91058606Y-81083196D01*
X91026970Y-81085204D01*
X90995949Y-81086216D01*
X90966182Y-81086198D01*
X90948440Y-81085646D01*
X90934003Y-81084889D01*
X90918486Y-81083868D01*
X90902818Y-81082654D01*
X90887930Y-81081317D01*
X90876050Y-81080079D01*
X90827616Y-81073339D01*
X90779832Y-81064168D01*
X90732773Y-81052611D01*
X90686517Y-81038712D01*
X90641142Y-81022516D01*
X90596725Y-81004067D01*
X90553344Y-80983409D01*
X90511076Y-80960588D01*
X90469998Y-80935647D01*
X90430189Y-80908631D01*
X90391725Y-80879584D01*
X90354684Y-80848551D01*
X90319144Y-80815577D01*
X90285182Y-80780705D01*
X90252875Y-80743980D01*
X90222301Y-80705446D01*
X90221864Y-80704865D01*
X90193747Y-80665366D01*
X90167655Y-80624402D01*
X90143672Y-80582129D01*
X90121879Y-80538704D01*
X90102361Y-80494286D01*
X90085202Y-80449031D01*
X90082766Y-80441975D01*
X90068149Y-80395154D01*
X90055995Y-80347808D01*
X90046304Y-80300034D01*
X90039076Y-80251929D01*
X90034310Y-80203588D01*
X90032007Y-80155108D01*
X90032034Y-80146906D01*
X90211163Y-80146906D01*
X90213114Y-80190913D01*
X90217536Y-80234677D01*
X90224419Y-80278079D01*
X90233756Y-80320999D01*
X90245536Y-80363319D01*
X90245634Y-80363634D01*
X90259715Y-80404770D01*
X90276138Y-80445024D01*
X90294829Y-80484287D01*
X90315709Y-80522451D01*
X90338705Y-80559410D01*
X90363738Y-80595054D01*
X90390734Y-80629276D01*
X90419615Y-80661968D01*
X90450307Y-80693023D01*
X90482732Y-80722332D01*
X90516815Y-80749788D01*
X90519815Y-80752054D01*
X90555414Y-80777259D01*
X90592325Y-80800375D01*
X90630415Y-80821353D01*
X90669557Y-80840144D01*
X90709618Y-80856699D01*
X90750471Y-80870970D01*
X90791983Y-80882907D01*
X90834027Y-80892463D01*
X90876470Y-80899589D01*
X90919185Y-80904235D01*
X90927485Y-80904845D01*
X90943667Y-80905869D01*
X90957909Y-80906600D01*
X90970795Y-80907045D01*
X90982906Y-80907212D01*
X90994825Y-80907109D01*
X91007134Y-80906746D01*
X91020195Y-80906141D01*
X91053478Y-80903817D01*
X91085105Y-80900410D01*
X91115761Y-80895821D01*
X91146131Y-80889948D01*
X91172018Y-80883926D01*
X91214283Y-80872073D01*
X91255654Y-80857869D01*
X91296047Y-80841370D01*
X91335375Y-80822635D01*
X91373553Y-80801719D01*
X91410496Y-80778679D01*
X91446118Y-80753573D01*
X91480334Y-80726457D01*
X91513058Y-80697389D01*
X91544205Y-80666425D01*
X91573689Y-80633622D01*
X91601425Y-80599037D01*
X91603026Y-80596915D01*
X91628152Y-80561380D01*
X91651219Y-80524427D01*
X91672167Y-80486199D01*
X91690935Y-80446838D01*
X91707464Y-80406486D01*
X91721692Y-80365288D01*
X91733561Y-80323385D01*
X91743010Y-80280920D01*
X91747780Y-80253380D01*
X91753292Y-80209359D01*
X91756308Y-80165223D01*
X91756836Y-80121093D01*
X91754885Y-80077086D01*
X91750463Y-80033322D01*
X91743580Y-79989920D01*
X91734243Y-79947000D01*
X91722463Y-79904680D01*
X91722365Y-79904365D01*
X91708280Y-79863211D01*
X91691873Y-79822988D01*
X91673220Y-79783795D01*
X91652398Y-79745729D01*
X91629485Y-79708888D01*
X91604557Y-79673371D01*
X91577691Y-79639276D01*
X91548965Y-79606700D01*
X91518455Y-79575742D01*
X91486238Y-79546500D01*
X91452392Y-79519072D01*
X91416992Y-79493556D01*
X91382793Y-79471656D01*
X91344433Y-79449982D01*
X91305069Y-79430618D01*
X91264796Y-79413584D01*
X91223709Y-79398900D01*
X91181901Y-79386587D01*
X91139468Y-79376663D01*
X91096504Y-79369150D01*
X91053104Y-79364066D01*
X91009362Y-79361433D01*
X90965372Y-79361269D01*
X90921231Y-79363596D01*
X90887510Y-79367057D01*
X90844012Y-79373743D01*
X90801038Y-79382899D01*
X90758687Y-79394490D01*
X90717060Y-79408482D01*
X90676255Y-79424840D01*
X90636372Y-79443529D01*
X90597511Y-79464516D01*
X90584537Y-79472175D01*
X90548108Y-79495628D01*
X90512903Y-79521250D01*
X90479066Y-79548909D01*
X90446741Y-79578475D01*
X90416073Y-79609817D01*
X90387207Y-79642804D01*
X90364910Y-79671085D01*
X90339805Y-79706605D01*
X90316754Y-79743551D01*
X90295818Y-79781780D01*
X90277057Y-79821145D01*
X90260533Y-79861502D01*
X90246306Y-79902706D01*
X90234438Y-79944612D01*
X90224990Y-79987076D01*
X90220219Y-80014620D01*
X90214707Y-80058640D01*
X90211691Y-80102776D01*
X90211163Y-80146906D01*
X90032034Y-80146906D01*
X90032167Y-80106587D01*
X90034790Y-80058120D01*
X90039876Y-80009804D01*
X90047424Y-79961736D01*
X90057435Y-79914012D01*
X90069909Y-79866729D01*
X90082766Y-79826025D01*
X90099620Y-79780465D01*
X90118783Y-79735899D01*
X90140191Y-79692416D01*
X90163780Y-79650103D01*
X90189486Y-79609048D01*
X90217245Y-79569339D01*
X90246993Y-79531063D01*
X90278667Y-79494310D01*
X90312202Y-79459165D01*
X90347535Y-79425718D01*
X90384602Y-79394056D01*
X90413135Y-79371809D01*
X90452977Y-79343508D01*
X90493946Y-79317449D01*
X90535952Y-79293641D01*
X90578906Y-79272096D01*
X90622720Y-79252824D01*
X90667303Y-79235836D01*
X90712569Y-79221143D01*
X90758426Y-79208755D01*
X90804787Y-79198682D01*
X90851562Y-79190937D01*
X90898663Y-79185528D01*
X90946001Y-79182468D01*
X90993486Y-79181766D01*
X91041029Y-79183433D01*
G36*
X91152652Y-79644463D02*
G01*
X91165793Y-79644832D01*
X91177759Y-79645415D01*
X91188021Y-79646210D01*
X91192915Y-79646760D01*
X91215595Y-79650067D01*
X91236565Y-79653926D01*
X91256626Y-79658511D01*
X91276581Y-79664000D01*
X91289563Y-79668035D01*
X91322986Y-79680162D01*
X91355182Y-79694491D01*
X91386073Y-79710963D01*
X91415581Y-79729514D01*
X91443625Y-79750083D01*
X91470127Y-79772609D01*
X91495009Y-79797030D01*
X91518191Y-79823285D01*
X91539594Y-79851311D01*
X91555969Y-79875903D01*
X91573275Y-79905497D01*
X91588175Y-79935090D01*
X91600782Y-79964998D01*
X91611209Y-79995538D01*
X91619572Y-80027027D01*
X91625982Y-80059781D01*
X91628756Y-80078755D01*
X91629476Y-80085943D01*
X91630073Y-80095162D01*
X91630544Y-80105961D01*
X91630887Y-80117890D01*
X91631100Y-80130501D01*
X91631179Y-80143344D01*
X91631124Y-80155969D01*
X91630930Y-80167927D01*
X91630596Y-80178768D01*
X91630120Y-80188043D01*
X91629499Y-80195303D01*
X91629388Y-80196230D01*
X91625405Y-80223443D01*
X91620466Y-80248861D01*
X91614404Y-80273101D01*
X91607055Y-80296781D01*
X91598251Y-80320520D01*
X91592096Y-80335295D01*
X91578279Y-80364924D01*
X91563266Y-80392575D01*
X91546795Y-80418628D01*
X91528604Y-80443466D01*
X91508431Y-80467467D01*
X91486015Y-80491014D01*
X91482902Y-80494082D01*
X91456394Y-80518330D01*
X91428727Y-80540328D01*
X91399883Y-80560083D01*
X91369845Y-80577604D01*
X91338597Y-80592900D01*
X91306122Y-80605978D01*
X91272401Y-80616847D01*
X91237419Y-80625515D01*
X91201158Y-80631991D01*
X91197360Y-80632532D01*
X91190510Y-80633269D01*
X91181627Y-80633896D01*
X91171168Y-80634406D01*
X91159589Y-80634796D01*
X91147348Y-80635061D01*
X91134902Y-80635195D01*
X91122707Y-80635193D01*
X91111221Y-80635051D01*
X91100900Y-80634764D01*
X91092202Y-80634327D01*
X91085600Y-80633736D01*
X91049053Y-80628118D01*
X91013969Y-80620453D01*
X90980259Y-80610706D01*
X90947833Y-80598841D01*
X90916600Y-80584821D01*
X90886471Y-80568610D01*
X90857356Y-80550171D01*
X90831244Y-80531098D01*
X90804505Y-80508684D01*
X90779485Y-80484488D01*
X90756265Y-80458647D01*
X90734926Y-80431294D01*
X90715549Y-80402565D01*
X90698216Y-80372595D01*
X90683007Y-80341519D01*
X90670004Y-80309472D01*
X90659288Y-80276589D01*
X90650940Y-80243005D01*
X90647584Y-80225440D01*
X90646245Y-80216902D01*
X90644971Y-80207410D01*
X90643788Y-80197303D01*
X90642721Y-80186916D01*
X90641794Y-80176587D01*
X90641034Y-80166653D01*
X90640465Y-80157452D01*
X90640112Y-80149320D01*
X90640000Y-80142595D01*
X90640155Y-80137614D01*
X90640602Y-80134714D01*
X90640796Y-80134301D01*
X90641750Y-80133718D01*
X90643783Y-80133527D01*
X90647253Y-80133749D01*
X90652517Y-80134408D01*
X90659599Y-80135472D01*
X90678212Y-80137591D01*
X90698369Y-80138435D01*
X90719431Y-80138027D01*
X90740760Y-80136390D01*
X90761716Y-80133546D01*
X90773180Y-80131409D01*
X90800816Y-80124429D01*
X90827430Y-80115133D01*
X90852952Y-80103557D01*
X90877317Y-80089736D01*
X90900456Y-80073707D01*
X90922303Y-80055507D01*
X90933359Y-80044968D01*
X90953026Y-80023589D01*
X90970552Y-80000849D01*
X90985920Y-79976781D01*
X90999115Y-79951415D01*
X91010119Y-79924784D01*
X91018916Y-79896918D01*
X91025475Y-79867935D01*
X91026150Y-79863906D01*
X91026685Y-79859739D01*
X91027095Y-79855083D01*
X91027393Y-79849590D01*
X91027596Y-79842910D01*
X91027718Y-79834694D01*
X91027774Y-79824593D01*
X91027781Y-79813960D01*
X91027747Y-79772685D01*
X91023654Y-79753300D01*
X91019748Y-79737007D01*
X91014845Y-79720073D01*
X91009245Y-79703427D01*
X91003247Y-79687995D01*
X91000625Y-79681973D01*
X90998144Y-79676280D01*
X90996154Y-79671312D01*
X90994849Y-79667582D01*
X90994421Y-79665601D01*
X90994429Y-79665542D01*
X90995813Y-79664419D01*
X90999400Y-79662968D01*
X91004882Y-79661260D01*
X91011953Y-79659362D01*
X91020307Y-79657343D01*
X91029636Y-79655271D01*
X91039635Y-79653215D01*
X91049997Y-79651245D01*
X91060414Y-79649427D01*
X91070581Y-79647831D01*
X91078615Y-79646723D01*
X91087746Y-79645812D01*
X91098864Y-79645115D01*
X91111440Y-79644632D01*
X91124948Y-79644362D01*
X91138861Y-79644306D01*
X91152652Y-79644463D01*
G37*
X91152652Y-79644463D02*
X91165793Y-79644832D01*
X91177759Y-79645415D01*
X91188021Y-79646210D01*
X91192915Y-79646760D01*
X91215595Y-79650067D01*
X91236565Y-79653926D01*
X91256626Y-79658511D01*
X91276581Y-79664000D01*
X91289563Y-79668035D01*
X91322986Y-79680162D01*
X91355182Y-79694491D01*
X91386073Y-79710963D01*
X91415581Y-79729514D01*
X91443625Y-79750083D01*
X91470127Y-79772609D01*
X91495009Y-79797030D01*
X91518191Y-79823285D01*
X91539594Y-79851311D01*
X91555969Y-79875903D01*
X91573275Y-79905497D01*
X91588175Y-79935090D01*
X91600782Y-79964998D01*
X91611209Y-79995538D01*
X91619572Y-80027027D01*
X91625982Y-80059781D01*
X91628756Y-80078755D01*
X91629476Y-80085943D01*
X91630073Y-80095162D01*
X91630544Y-80105961D01*
X91630887Y-80117890D01*
X91631100Y-80130501D01*
X91631179Y-80143344D01*
X91631124Y-80155969D01*
X91630930Y-80167927D01*
X91630596Y-80178768D01*
X91630120Y-80188043D01*
X91629499Y-80195303D01*
X91629388Y-80196230D01*
X91625405Y-80223443D01*
X91620466Y-80248861D01*
X91614404Y-80273101D01*
X91607055Y-80296781D01*
X91598251Y-80320520D01*
X91592096Y-80335295D01*
X91578279Y-80364924D01*
X91563266Y-80392575D01*
X91546795Y-80418628D01*
X91528604Y-80443466D01*
X91508431Y-80467467D01*
X91486015Y-80491014D01*
X91482902Y-80494082D01*
X91456394Y-80518330D01*
X91428727Y-80540328D01*
X91399883Y-80560083D01*
X91369845Y-80577604D01*
X91338597Y-80592900D01*
X91306122Y-80605978D01*
X91272401Y-80616847D01*
X91237419Y-80625515D01*
X91201158Y-80631991D01*
X91197360Y-80632532D01*
X91190510Y-80633269D01*
X91181627Y-80633896D01*
X91171168Y-80634406D01*
X91159589Y-80634796D01*
X91147348Y-80635061D01*
X91134902Y-80635195D01*
X91122707Y-80635193D01*
X91111221Y-80635051D01*
X91100900Y-80634764D01*
X91092202Y-80634327D01*
X91085600Y-80633736D01*
X91049053Y-80628118D01*
X91013969Y-80620453D01*
X90980259Y-80610706D01*
X90947833Y-80598841D01*
X90916600Y-80584821D01*
X90886471Y-80568610D01*
X90857356Y-80550171D01*
X90831244Y-80531098D01*
X90804505Y-80508684D01*
X90779485Y-80484488D01*
X90756265Y-80458647D01*
X90734926Y-80431294D01*
X90715549Y-80402565D01*
X90698216Y-80372595D01*
X90683007Y-80341519D01*
X90670004Y-80309472D01*
X90659288Y-80276589D01*
X90650940Y-80243005D01*
X90647584Y-80225440D01*
X90646245Y-80216902D01*
X90644971Y-80207410D01*
X90643788Y-80197303D01*
X90642721Y-80186916D01*
X90641794Y-80176587D01*
X90641034Y-80166653D01*
X90640465Y-80157452D01*
X90640112Y-80149320D01*
X90640000Y-80142595D01*
X90640155Y-80137614D01*
X90640602Y-80134714D01*
X90640796Y-80134301D01*
X90641750Y-80133718D01*
X90643783Y-80133527D01*
X90647253Y-80133749D01*
X90652517Y-80134408D01*
X90659599Y-80135472D01*
X90678212Y-80137591D01*
X90698369Y-80138435D01*
X90719431Y-80138027D01*
X90740760Y-80136390D01*
X90761716Y-80133546D01*
X90773180Y-80131409D01*
X90800816Y-80124429D01*
X90827430Y-80115133D01*
X90852952Y-80103557D01*
X90877317Y-80089736D01*
X90900456Y-80073707D01*
X90922303Y-80055507D01*
X90933359Y-80044968D01*
X90953026Y-80023589D01*
X90970552Y-80000849D01*
X90985920Y-79976781D01*
X90999115Y-79951415D01*
X91010119Y-79924784D01*
X91018916Y-79896918D01*
X91025475Y-79867935D01*
X91026150Y-79863906D01*
X91026685Y-79859739D01*
X91027095Y-79855083D01*
X91027393Y-79849590D01*
X91027596Y-79842910D01*
X91027718Y-79834694D01*
X91027774Y-79824593D01*
X91027781Y-79813960D01*
X91027747Y-79772685D01*
X91023654Y-79753300D01*
X91019748Y-79737007D01*
X91014845Y-79720073D01*
X91009245Y-79703427D01*
X91003247Y-79687995D01*
X91000625Y-79681973D01*
X90998144Y-79676280D01*
X90996154Y-79671312D01*
X90994849Y-79667582D01*
X90994421Y-79665601D01*
X90994429Y-79665542D01*
X90995813Y-79664419D01*
X90999400Y-79662968D01*
X91004882Y-79661260D01*
X91011953Y-79659362D01*
X91020307Y-79657343D01*
X91029636Y-79655271D01*
X91039635Y-79653215D01*
X91049997Y-79651245D01*
X91060414Y-79649427D01*
X91070581Y-79647831D01*
X91078615Y-79646723D01*
X91087746Y-79645812D01*
X91098864Y-79645115D01*
X91111440Y-79644632D01*
X91124948Y-79644362D01*
X91138861Y-79644306D01*
X91152652Y-79644463D01*
D13*
X94808000Y-96890000D02*
X95288000Y-96890000D01*
X94808000Y-95890000D02*
X95288000Y-95890000D01*
X94532000Y-81418000D02*
X94532000Y-81898000D01*
X93532000Y-81418000D02*
X93532000Y-81898000D01*
X95056000Y-81418000D02*
X95056000Y-81898000D01*
X96056000Y-81418000D02*
X96056000Y-81898000D01*
X96610000Y-89278000D02*
X96610000Y-85418000D01*
X96610000Y-85418000D02*
X96370000Y-85418000D01*
X96610000Y-89278000D02*
X96610000Y-93138000D01*
X96610000Y-93138000D02*
X96370000Y-93138000D01*
X87390000Y-89278000D02*
X87390000Y-85418000D01*
X87390000Y-85418000D02*
X87630000Y-85418000D01*
X87390000Y-89278000D02*
X87390000Y-93138000D01*
X87390000Y-93138000D02*
X87630000Y-93138000D01*
X87630000Y-93138000D02*
X87630000Y-94953000D01*
M02*
