M48
; DRILL file {KiCad (5.1.5-0-10_14)} date Friday, 10 April 2020 at 20:26:35
; FORMAT={-:-/ absolute / metric / decimal}
; #@! TF.CreationDate,2020-04-10T20:26:35+03:00
; #@! TF.GenerationSoftware,Kicad,Pcbnew,(5.1.5-0-10_14)
; #@! TF.FileFunction,Plated,1,2,PTH
FMAT,2
METRIC
T1C0.300
T2C0.400
T3C1.000
T4C3.200
%
G90
G05
T1
X84.2Y-93.99
X87.9Y-92.09
X88.5Y-88.49
X88.5Y-90.39
X88.7Y-97.09
X90.0Y-91.31
X90.3Y-97.09
X90.4Y-99.99
X90.5Y-101.39
X90.7Y-89.49
X91.1Y-100.59
X92.2Y-100.29
X92.25Y-99.44
X92.8Y-96.49
X95.1Y-95.19
X95.7Y-88.09
X95.8Y-91.19
X95.8Y-97.49
X97.0Y-93.99
T2
X94.6Y-107.24
X95.303Y-105.543
X95.303Y-108.937
X97.0Y-104.84
X97.0Y-109.64
X98.697Y-105.543
X98.697Y-108.937
X99.4Y-107.24
X94.6Y-74.74
X95.303Y-73.043
X95.303Y-76.437
X97.0Y-72.34
X97.0Y-77.14
X98.697Y-73.043
X98.697Y-76.437
X99.4Y-74.74
X84.6Y-107.24
X85.303Y-105.543
X85.303Y-108.937
X87.0Y-104.84
X87.0Y-109.64
X88.697Y-105.543
X88.697Y-108.937
X89.4Y-107.24
X84.6Y-74.74
X85.303Y-73.043
X85.303Y-76.437
X87.0Y-72.34
X87.0Y-77.14
X88.697Y-73.043
X88.697Y-76.437
X89.4Y-74.74
T3
X85.65Y-82.1
X85.65Y-84.64
X85.65Y-87.18
X85.65Y-89.72
X85.65Y-92.26
X85.65Y-94.8
X85.65Y-97.34
X85.65Y-99.88
X98.35Y-82.1
X98.35Y-84.64
X98.35Y-87.18
X98.35Y-89.72
X98.35Y-92.26
X98.35Y-94.8
X98.35Y-97.34
X98.35Y-99.88
T4
X97.0Y-107.24
X97.0Y-74.74
X87.0Y-107.24
X87.0Y-74.74
T0
M30
