G04 #@! TF.GenerationSoftware,KiCad,Pcbnew,(5.1.5-0-10_14)*
G04 #@! TF.CreationDate,2020-04-10T20:26:08+03:00*
G04 #@! TF.ProjectId,connector-breakout-a1,636f6e6e-6563-4746-9f72-2d627265616b,rev?*
G04 #@! TF.SameCoordinates,Original*
G04 #@! TF.FileFunction,Legend,Bot*
G04 #@! TF.FilePolarity,Positive*
%FSLAX46Y46*%
G04 Gerber Fmt 4.6, Leading zero omitted, Abs format (unit mm)*
G04 Created by KiCad (PCBNEW (5.1.5-0-10_14)) date 2020-04-10 20:26:08*
%MOMM*%
%LPD*%
G04 APERTURE LIST*
%ADD10C,0.010000*%
%ADD11C,0.120000*%
%ADD12C,0.150000*%
G04 APERTURE END LIST*
D10*
X100749999Y-110990000D02*
X83250001Y-110990000D01*
X83250001Y-110990000D02*
X83250000Y-70990000D01*
X100750001Y-70990000D02*
X100749999Y-110990000D01*
X83250000Y-70990000D02*
X100750000Y-70990000D01*
D11*
X94750000Y-88450000D02*
X94750000Y-86500000D01*
X89250000Y-88450000D02*
X94750000Y-88450000D01*
X89250000Y-86500000D02*
X89250000Y-88450000D01*
X94750000Y-86500000D02*
X89250000Y-86500000D01*
X94750000Y-90310000D02*
X89250000Y-90310000D01*
X89250000Y-90310000D02*
X89250000Y-92260000D01*
X89250000Y-92260000D02*
X94750000Y-92260000D01*
X94750000Y-92260000D02*
X94750000Y-90310000D01*
X94750000Y-96070000D02*
X94750000Y-94120000D01*
X89250000Y-96070000D02*
X94750000Y-96070000D01*
X89250000Y-94120000D02*
X89250000Y-96070000D01*
X94750000Y-94120000D02*
X89250000Y-94120000D01*
D12*
X88933333Y-86952380D02*
X88314285Y-86952380D01*
X88647619Y-87333333D01*
X88504761Y-87333333D01*
X88409523Y-87380952D01*
X88361904Y-87428571D01*
X88314285Y-87523809D01*
X88314285Y-87761904D01*
X88361904Y-87857142D01*
X88409523Y-87904761D01*
X88504761Y-87952380D01*
X88790476Y-87952380D01*
X88885714Y-87904761D01*
X88933333Y-87857142D01*
X95064285Y-87952380D02*
X95635714Y-87952380D01*
X95350000Y-87952380D02*
X95350000Y-86952380D01*
X95445238Y-87095238D01*
X95540476Y-87190476D01*
X95635714Y-87238095D01*
X95064285Y-91762380D02*
X95635714Y-91762380D01*
X95350000Y-91762380D02*
X95350000Y-90762380D01*
X95445238Y-90905238D01*
X95540476Y-91000476D01*
X95635714Y-91048095D01*
X88933333Y-90762380D02*
X88314285Y-90762380D01*
X88647619Y-91143333D01*
X88504761Y-91143333D01*
X88409523Y-91190952D01*
X88361904Y-91238571D01*
X88314285Y-91333809D01*
X88314285Y-91571904D01*
X88361904Y-91667142D01*
X88409523Y-91714761D01*
X88504761Y-91762380D01*
X88790476Y-91762380D01*
X88885714Y-91714761D01*
X88933333Y-91667142D01*
X88933333Y-94572380D02*
X88314285Y-94572380D01*
X88647619Y-94953333D01*
X88504761Y-94953333D01*
X88409523Y-95000952D01*
X88361904Y-95048571D01*
X88314285Y-95143809D01*
X88314285Y-95381904D01*
X88361904Y-95477142D01*
X88409523Y-95524761D01*
X88504761Y-95572380D01*
X88790476Y-95572380D01*
X88885714Y-95524761D01*
X88933333Y-95477142D01*
X95064285Y-95572380D02*
X95635714Y-95572380D01*
X95350000Y-95572380D02*
X95350000Y-94572380D01*
X95445238Y-94715238D01*
X95540476Y-94810476D01*
X95635714Y-94858095D01*
M02*
