G04 #@! TF.GenerationSoftware,KiCad,Pcbnew,(5.1.5-0-10_14)*
G04 #@! TF.CreationDate,2020-04-13T12:38:15+03:00*
G04 #@! TF.ProjectId,npa700-breakout-b1,6e706137-3030-42d6-9272-65616b6f7574,rev?*
G04 #@! TF.SameCoordinates,Original*
G04 #@! TF.FileFunction,Paste,Bot*
G04 #@! TF.FilePolarity,Positive*
%FSLAX46Y46*%
G04 Gerber Fmt 4.6, Leading zero omitted, Abs format (unit mm)*
G04 Created by KiCad (PCBNEW (5.1.5-0-10_14)) date 2020-04-13 12:38:15*
%MOMM*%
%LPD*%
G04 APERTURE LIST*
%ADD10C,0.010000*%
%ADD11C,0.100000*%
G04 APERTURE END LIST*
D10*
X83250001Y-111000000D02*
X83250000Y-78490000D01*
X100750000Y-78490000D02*
X100749999Y-111000000D01*
X100750000Y-78490000D02*
X83250000Y-78490000D01*
X100749999Y-111000000D02*
X83250001Y-111000000D01*
D11*
G36*
X86269603Y-96550963D02*
G01*
X86289018Y-96553843D01*
X86308057Y-96558612D01*
X86326537Y-96565224D01*
X86344279Y-96573616D01*
X86361114Y-96583706D01*
X86376879Y-96595398D01*
X86391421Y-96608579D01*
X86404602Y-96623121D01*
X86416294Y-96638886D01*
X86426384Y-96655721D01*
X86434776Y-96673463D01*
X86441388Y-96691943D01*
X86446157Y-96710982D01*
X86449037Y-96730397D01*
X86450000Y-96750000D01*
X86450000Y-97950000D01*
X86449037Y-97969603D01*
X86446157Y-97989018D01*
X86441388Y-98008057D01*
X86434776Y-98026537D01*
X86426384Y-98044279D01*
X86416294Y-98061114D01*
X86404602Y-98076879D01*
X86391421Y-98091421D01*
X86376879Y-98104602D01*
X86361114Y-98116294D01*
X86344279Y-98126384D01*
X86326537Y-98134776D01*
X86308057Y-98141388D01*
X86289018Y-98146157D01*
X86269603Y-98149037D01*
X86250000Y-98150000D01*
X85050000Y-98150000D01*
X85030397Y-98149037D01*
X85010982Y-98146157D01*
X84991943Y-98141388D01*
X84973463Y-98134776D01*
X84955721Y-98126384D01*
X84938886Y-98116294D01*
X84923121Y-98104602D01*
X84908579Y-98091421D01*
X84895398Y-98076879D01*
X84883706Y-98061114D01*
X84873616Y-98044279D01*
X84865224Y-98026537D01*
X84858612Y-98008057D01*
X84853843Y-97989018D01*
X84850963Y-97969603D01*
X84850000Y-97950000D01*
X84850000Y-96750000D01*
X84850963Y-96730397D01*
X84853843Y-96710982D01*
X84858612Y-96691943D01*
X84865224Y-96673463D01*
X84873616Y-96655721D01*
X84883706Y-96638886D01*
X84895398Y-96623121D01*
X84908579Y-96608579D01*
X84923121Y-96595398D01*
X84938886Y-96583706D01*
X84955721Y-96573616D01*
X84973463Y-96565224D01*
X84991943Y-96558612D01*
X85010982Y-96553843D01*
X85030397Y-96550963D01*
X85050000Y-96550000D01*
X86250000Y-96550000D01*
X86269603Y-96550963D01*
G37*
G36*
X98969603Y-96550963D02*
G01*
X98989018Y-96553843D01*
X99008057Y-96558612D01*
X99026537Y-96565224D01*
X99044279Y-96573616D01*
X99061114Y-96583706D01*
X99076879Y-96595398D01*
X99091421Y-96608579D01*
X99104602Y-96623121D01*
X99116294Y-96638886D01*
X99126384Y-96655721D01*
X99134776Y-96673463D01*
X99141388Y-96691943D01*
X99146157Y-96710982D01*
X99149037Y-96730397D01*
X99150000Y-96750000D01*
X99150000Y-97950000D01*
X99149037Y-97969603D01*
X99146157Y-97989018D01*
X99141388Y-98008057D01*
X99134776Y-98026537D01*
X99126384Y-98044279D01*
X99116294Y-98061114D01*
X99104602Y-98076879D01*
X99091421Y-98091421D01*
X99076879Y-98104602D01*
X99061114Y-98116294D01*
X99044279Y-98126384D01*
X99026537Y-98134776D01*
X99008057Y-98141388D01*
X98989018Y-98146157D01*
X98969603Y-98149037D01*
X98950000Y-98150000D01*
X97750000Y-98150000D01*
X97730397Y-98149037D01*
X97710982Y-98146157D01*
X97691943Y-98141388D01*
X97673463Y-98134776D01*
X97655721Y-98126384D01*
X97638886Y-98116294D01*
X97623121Y-98104602D01*
X97608579Y-98091421D01*
X97595398Y-98076879D01*
X97583706Y-98061114D01*
X97573616Y-98044279D01*
X97565224Y-98026537D01*
X97558612Y-98008057D01*
X97553843Y-97989018D01*
X97550963Y-97969603D01*
X97550000Y-97950000D01*
X97550000Y-96750000D01*
X97550963Y-96730397D01*
X97553843Y-96710982D01*
X97558612Y-96691943D01*
X97565224Y-96673463D01*
X97573616Y-96655721D01*
X97583706Y-96638886D01*
X97595398Y-96623121D01*
X97608579Y-96608579D01*
X97623121Y-96595398D01*
X97638886Y-96583706D01*
X97655721Y-96573616D01*
X97673463Y-96565224D01*
X97691943Y-96558612D01*
X97710982Y-96553843D01*
X97730397Y-96550963D01*
X97750000Y-96550000D01*
X98950000Y-96550000D01*
X98969603Y-96550963D01*
G37*
M02*
