G04 #@! TF.GenerationSoftware,KiCad,Pcbnew,(5.1.5-0-10_14)*
G04 #@! TF.CreationDate,2020-04-13T12:38:15+03:00*
G04 #@! TF.ProjectId,npa700-breakout-b1,6e706137-3030-42d6-9272-65616b6f7574,rev?*
G04 #@! TF.SameCoordinates,Original*
G04 #@! TF.FileFunction,Paste,Top*
G04 #@! TF.FilePolarity,Positive*
%FSLAX46Y46*%
G04 Gerber Fmt 4.6, Leading zero omitted, Abs format (unit mm)*
G04 Created by KiCad (PCBNEW (5.1.5-0-10_14)) date 2020-04-13 12:38:15*
%MOMM*%
%LPD*%
G04 APERTURE LIST*
%ADD10C,0.010000*%
%ADD11C,0.100000*%
G04 APERTURE END LIST*
D10*
X83250001Y-111000000D02*
X83250000Y-78490000D01*
X100750000Y-78490000D02*
X100749999Y-111000000D01*
X100750000Y-78490000D02*
X83250000Y-78490000D01*
X100749999Y-111000000D02*
X83250001Y-111000000D01*
D11*
G36*
X96077579Y-95890963D02*
G01*
X96096996Y-95893843D01*
X96116038Y-95898613D01*
X96134520Y-95905226D01*
X96152265Y-95913619D01*
X96169102Y-95923711D01*
X96184869Y-95935404D01*
X96199413Y-95948587D01*
X96212596Y-95963131D01*
X96224289Y-95978898D01*
X96234381Y-95995735D01*
X96242774Y-96013480D01*
X96249387Y-96031962D01*
X96254157Y-96051004D01*
X96257037Y-96070421D01*
X96258000Y-96090027D01*
X96258000Y-96709973D01*
X96257037Y-96729579D01*
X96254157Y-96748996D01*
X96249387Y-96768038D01*
X96242774Y-96786520D01*
X96234381Y-96804265D01*
X96224289Y-96821102D01*
X96212596Y-96836869D01*
X96199413Y-96851413D01*
X96184869Y-96864596D01*
X96169102Y-96876289D01*
X96152265Y-96886381D01*
X96134520Y-96894774D01*
X96116038Y-96901387D01*
X96096996Y-96906157D01*
X96077579Y-96909037D01*
X96057973Y-96910000D01*
X95668027Y-96910000D01*
X95648421Y-96909037D01*
X95629004Y-96906157D01*
X95609962Y-96901387D01*
X95591480Y-96894774D01*
X95573735Y-96886381D01*
X95556898Y-96876289D01*
X95541131Y-96864596D01*
X95526587Y-96851413D01*
X95513404Y-96836869D01*
X95501711Y-96821102D01*
X95491619Y-96804265D01*
X95483226Y-96786520D01*
X95476613Y-96768038D01*
X95471843Y-96748996D01*
X95468963Y-96729579D01*
X95468000Y-96709973D01*
X95468000Y-96090027D01*
X95468963Y-96070421D01*
X95471843Y-96051004D01*
X95476613Y-96031962D01*
X95483226Y-96013480D01*
X95491619Y-95995735D01*
X95501711Y-95978898D01*
X95513404Y-95963131D01*
X95526587Y-95948587D01*
X95541131Y-95935404D01*
X95556898Y-95923711D01*
X95573735Y-95913619D01*
X95591480Y-95905226D01*
X95609962Y-95898613D01*
X95629004Y-95893843D01*
X95648421Y-95890963D01*
X95668027Y-95890000D01*
X96057973Y-95890000D01*
X96077579Y-95890963D01*
G37*
G36*
X94447579Y-95890963D02*
G01*
X94466996Y-95893843D01*
X94486038Y-95898613D01*
X94504520Y-95905226D01*
X94522265Y-95913619D01*
X94539102Y-95923711D01*
X94554869Y-95935404D01*
X94569413Y-95948587D01*
X94582596Y-95963131D01*
X94594289Y-95978898D01*
X94604381Y-95995735D01*
X94612774Y-96013480D01*
X94619387Y-96031962D01*
X94624157Y-96051004D01*
X94627037Y-96070421D01*
X94628000Y-96090027D01*
X94628000Y-96709973D01*
X94627037Y-96729579D01*
X94624157Y-96748996D01*
X94619387Y-96768038D01*
X94612774Y-96786520D01*
X94604381Y-96804265D01*
X94594289Y-96821102D01*
X94582596Y-96836869D01*
X94569413Y-96851413D01*
X94554869Y-96864596D01*
X94539102Y-96876289D01*
X94522265Y-96886381D01*
X94504520Y-96894774D01*
X94486038Y-96901387D01*
X94466996Y-96906157D01*
X94447579Y-96909037D01*
X94427973Y-96910000D01*
X94038027Y-96910000D01*
X94018421Y-96909037D01*
X93999004Y-96906157D01*
X93979962Y-96901387D01*
X93961480Y-96894774D01*
X93943735Y-96886381D01*
X93926898Y-96876289D01*
X93911131Y-96864596D01*
X93896587Y-96851413D01*
X93883404Y-96836869D01*
X93871711Y-96821102D01*
X93861619Y-96804265D01*
X93853226Y-96786520D01*
X93846613Y-96768038D01*
X93841843Y-96748996D01*
X93838963Y-96729579D01*
X93838000Y-96709973D01*
X93838000Y-96090027D01*
X93838963Y-96070421D01*
X93841843Y-96051004D01*
X93846613Y-96031962D01*
X93853226Y-96013480D01*
X93861619Y-95995735D01*
X93871711Y-95978898D01*
X93883404Y-95963131D01*
X93896587Y-95948587D01*
X93911131Y-95935404D01*
X93926898Y-95923711D01*
X93943735Y-95913619D01*
X93961480Y-95905226D01*
X93979962Y-95898613D01*
X93999004Y-95893843D01*
X94018421Y-95890963D01*
X94038027Y-95890000D01*
X94427973Y-95890000D01*
X94447579Y-95890963D01*
G37*
G36*
X94361579Y-80458963D02*
G01*
X94380996Y-80461843D01*
X94400038Y-80466613D01*
X94418520Y-80473226D01*
X94436265Y-80481619D01*
X94453102Y-80491711D01*
X94468869Y-80503404D01*
X94483413Y-80516587D01*
X94496596Y-80531131D01*
X94508289Y-80546898D01*
X94518381Y-80563735D01*
X94526774Y-80581480D01*
X94533387Y-80599962D01*
X94538157Y-80619004D01*
X94541037Y-80638421D01*
X94542000Y-80658027D01*
X94542000Y-81047973D01*
X94541037Y-81067579D01*
X94538157Y-81086996D01*
X94533387Y-81106038D01*
X94526774Y-81124520D01*
X94518381Y-81142265D01*
X94508289Y-81159102D01*
X94496596Y-81174869D01*
X94483413Y-81189413D01*
X94468869Y-81202596D01*
X94453102Y-81214289D01*
X94436265Y-81224381D01*
X94418520Y-81232774D01*
X94400038Y-81239387D01*
X94380996Y-81244157D01*
X94361579Y-81247037D01*
X94341973Y-81248000D01*
X93722027Y-81248000D01*
X93702421Y-81247037D01*
X93683004Y-81244157D01*
X93663962Y-81239387D01*
X93645480Y-81232774D01*
X93627735Y-81224381D01*
X93610898Y-81214289D01*
X93595131Y-81202596D01*
X93580587Y-81189413D01*
X93567404Y-81174869D01*
X93555711Y-81159102D01*
X93545619Y-81142265D01*
X93537226Y-81124520D01*
X93530613Y-81106038D01*
X93525843Y-81086996D01*
X93522963Y-81067579D01*
X93522000Y-81047973D01*
X93522000Y-80658027D01*
X93522963Y-80638421D01*
X93525843Y-80619004D01*
X93530613Y-80599962D01*
X93537226Y-80581480D01*
X93545619Y-80563735D01*
X93555711Y-80546898D01*
X93567404Y-80531131D01*
X93580587Y-80516587D01*
X93595131Y-80503404D01*
X93610898Y-80491711D01*
X93627735Y-80481619D01*
X93645480Y-80473226D01*
X93663962Y-80466613D01*
X93683004Y-80461843D01*
X93702421Y-80458963D01*
X93722027Y-80458000D01*
X94341973Y-80458000D01*
X94361579Y-80458963D01*
G37*
G36*
X94361579Y-82088963D02*
G01*
X94380996Y-82091843D01*
X94400038Y-82096613D01*
X94418520Y-82103226D01*
X94436265Y-82111619D01*
X94453102Y-82121711D01*
X94468869Y-82133404D01*
X94483413Y-82146587D01*
X94496596Y-82161131D01*
X94508289Y-82176898D01*
X94518381Y-82193735D01*
X94526774Y-82211480D01*
X94533387Y-82229962D01*
X94538157Y-82249004D01*
X94541037Y-82268421D01*
X94542000Y-82288027D01*
X94542000Y-82677973D01*
X94541037Y-82697579D01*
X94538157Y-82716996D01*
X94533387Y-82736038D01*
X94526774Y-82754520D01*
X94518381Y-82772265D01*
X94508289Y-82789102D01*
X94496596Y-82804869D01*
X94483413Y-82819413D01*
X94468869Y-82832596D01*
X94453102Y-82844289D01*
X94436265Y-82854381D01*
X94418520Y-82862774D01*
X94400038Y-82869387D01*
X94380996Y-82874157D01*
X94361579Y-82877037D01*
X94341973Y-82878000D01*
X93722027Y-82878000D01*
X93702421Y-82877037D01*
X93683004Y-82874157D01*
X93663962Y-82869387D01*
X93645480Y-82862774D01*
X93627735Y-82854381D01*
X93610898Y-82844289D01*
X93595131Y-82832596D01*
X93580587Y-82819413D01*
X93567404Y-82804869D01*
X93555711Y-82789102D01*
X93545619Y-82772265D01*
X93537226Y-82754520D01*
X93530613Y-82736038D01*
X93525843Y-82716996D01*
X93522963Y-82697579D01*
X93522000Y-82677973D01*
X93522000Y-82288027D01*
X93522963Y-82268421D01*
X93525843Y-82249004D01*
X93530613Y-82229962D01*
X93537226Y-82211480D01*
X93545619Y-82193735D01*
X93555711Y-82176898D01*
X93567404Y-82161131D01*
X93580587Y-82146587D01*
X93595131Y-82133404D01*
X93610898Y-82121711D01*
X93627735Y-82111619D01*
X93645480Y-82103226D01*
X93663962Y-82096613D01*
X93683004Y-82091843D01*
X93702421Y-82088963D01*
X93722027Y-82088000D01*
X94341973Y-82088000D01*
X94361579Y-82088963D01*
G37*
G36*
X95885579Y-82088963D02*
G01*
X95904996Y-82091843D01*
X95924038Y-82096613D01*
X95942520Y-82103226D01*
X95960265Y-82111619D01*
X95977102Y-82121711D01*
X95992869Y-82133404D01*
X96007413Y-82146587D01*
X96020596Y-82161131D01*
X96032289Y-82176898D01*
X96042381Y-82193735D01*
X96050774Y-82211480D01*
X96057387Y-82229962D01*
X96062157Y-82249004D01*
X96065037Y-82268421D01*
X96066000Y-82288027D01*
X96066000Y-82677973D01*
X96065037Y-82697579D01*
X96062157Y-82716996D01*
X96057387Y-82736038D01*
X96050774Y-82754520D01*
X96042381Y-82772265D01*
X96032289Y-82789102D01*
X96020596Y-82804869D01*
X96007413Y-82819413D01*
X95992869Y-82832596D01*
X95977102Y-82844289D01*
X95960265Y-82854381D01*
X95942520Y-82862774D01*
X95924038Y-82869387D01*
X95904996Y-82874157D01*
X95885579Y-82877037D01*
X95865973Y-82878000D01*
X95246027Y-82878000D01*
X95226421Y-82877037D01*
X95207004Y-82874157D01*
X95187962Y-82869387D01*
X95169480Y-82862774D01*
X95151735Y-82854381D01*
X95134898Y-82844289D01*
X95119131Y-82832596D01*
X95104587Y-82819413D01*
X95091404Y-82804869D01*
X95079711Y-82789102D01*
X95069619Y-82772265D01*
X95061226Y-82754520D01*
X95054613Y-82736038D01*
X95049843Y-82716996D01*
X95046963Y-82697579D01*
X95046000Y-82677973D01*
X95046000Y-82288027D01*
X95046963Y-82268421D01*
X95049843Y-82249004D01*
X95054613Y-82229962D01*
X95061226Y-82211480D01*
X95069619Y-82193735D01*
X95079711Y-82176898D01*
X95091404Y-82161131D01*
X95104587Y-82146587D01*
X95119131Y-82133404D01*
X95134898Y-82121711D01*
X95151735Y-82111619D01*
X95169480Y-82103226D01*
X95187962Y-82096613D01*
X95207004Y-82091843D01*
X95226421Y-82088963D01*
X95246027Y-82088000D01*
X95865973Y-82088000D01*
X95885579Y-82088963D01*
G37*
G36*
X95885579Y-80458963D02*
G01*
X95904996Y-80461843D01*
X95924038Y-80466613D01*
X95942520Y-80473226D01*
X95960265Y-80481619D01*
X95977102Y-80491711D01*
X95992869Y-80503404D01*
X96007413Y-80516587D01*
X96020596Y-80531131D01*
X96032289Y-80546898D01*
X96042381Y-80563735D01*
X96050774Y-80581480D01*
X96057387Y-80599962D01*
X96062157Y-80619004D01*
X96065037Y-80638421D01*
X96066000Y-80658027D01*
X96066000Y-81047973D01*
X96065037Y-81067579D01*
X96062157Y-81086996D01*
X96057387Y-81106038D01*
X96050774Y-81124520D01*
X96042381Y-81142265D01*
X96032289Y-81159102D01*
X96020596Y-81174869D01*
X96007413Y-81189413D01*
X95992869Y-81202596D01*
X95977102Y-81214289D01*
X95960265Y-81224381D01*
X95942520Y-81232774D01*
X95924038Y-81239387D01*
X95904996Y-81244157D01*
X95885579Y-81247037D01*
X95865973Y-81248000D01*
X95246027Y-81248000D01*
X95226421Y-81247037D01*
X95207004Y-81244157D01*
X95187962Y-81239387D01*
X95169480Y-81232774D01*
X95151735Y-81224381D01*
X95134898Y-81214289D01*
X95119131Y-81202596D01*
X95104587Y-81189413D01*
X95091404Y-81174869D01*
X95079711Y-81159102D01*
X95069619Y-81142265D01*
X95061226Y-81124520D01*
X95054613Y-81106038D01*
X95049843Y-81086996D01*
X95046963Y-81067579D01*
X95046000Y-81047973D01*
X95046000Y-80658027D01*
X95046963Y-80638421D01*
X95049843Y-80619004D01*
X95054613Y-80599962D01*
X95061226Y-80581480D01*
X95069619Y-80563735D01*
X95079711Y-80546898D01*
X95091404Y-80531131D01*
X95104587Y-80516587D01*
X95119131Y-80503404D01*
X95134898Y-80491711D01*
X95151735Y-80481619D01*
X95169480Y-80473226D01*
X95187962Y-80466613D01*
X95207004Y-80461843D01*
X95226421Y-80458963D01*
X95246027Y-80458000D01*
X95865973Y-80458000D01*
X95885579Y-80458963D01*
G37*
G36*
X88354703Y-92913722D02*
G01*
X88369264Y-92915882D01*
X88383543Y-92919459D01*
X88397403Y-92924418D01*
X88410710Y-92930712D01*
X88423336Y-92938280D01*
X88435159Y-92947048D01*
X88446066Y-92956934D01*
X88455952Y-92967841D01*
X88464720Y-92979664D01*
X88472288Y-92992290D01*
X88478582Y-93005597D01*
X88483541Y-93019457D01*
X88487118Y-93033736D01*
X88489278Y-93048297D01*
X88490000Y-93063000D01*
X88490000Y-94813000D01*
X88489278Y-94827703D01*
X88487118Y-94842264D01*
X88483541Y-94856543D01*
X88478582Y-94870403D01*
X88472288Y-94883710D01*
X88464720Y-94896336D01*
X88455952Y-94908159D01*
X88446066Y-94919066D01*
X88435159Y-94928952D01*
X88423336Y-94937720D01*
X88410710Y-94945288D01*
X88397403Y-94951582D01*
X88383543Y-94956541D01*
X88369264Y-94960118D01*
X88354703Y-94962278D01*
X88340000Y-94963000D01*
X88040000Y-94963000D01*
X88025297Y-94962278D01*
X88010736Y-94960118D01*
X87996457Y-94956541D01*
X87982597Y-94951582D01*
X87969290Y-94945288D01*
X87956664Y-94937720D01*
X87944841Y-94928952D01*
X87933934Y-94919066D01*
X87924048Y-94908159D01*
X87915280Y-94896336D01*
X87907712Y-94883710D01*
X87901418Y-94870403D01*
X87896459Y-94856543D01*
X87892882Y-94842264D01*
X87890722Y-94827703D01*
X87890000Y-94813000D01*
X87890000Y-93063000D01*
X87890722Y-93048297D01*
X87892882Y-93033736D01*
X87896459Y-93019457D01*
X87901418Y-93005597D01*
X87907712Y-92992290D01*
X87915280Y-92979664D01*
X87924048Y-92967841D01*
X87933934Y-92956934D01*
X87944841Y-92947048D01*
X87956664Y-92938280D01*
X87969290Y-92930712D01*
X87982597Y-92924418D01*
X87996457Y-92919459D01*
X88010736Y-92915882D01*
X88025297Y-92913722D01*
X88040000Y-92913000D01*
X88340000Y-92913000D01*
X88354703Y-92913722D01*
G37*
G36*
X89624703Y-92913722D02*
G01*
X89639264Y-92915882D01*
X89653543Y-92919459D01*
X89667403Y-92924418D01*
X89680710Y-92930712D01*
X89693336Y-92938280D01*
X89705159Y-92947048D01*
X89716066Y-92956934D01*
X89725952Y-92967841D01*
X89734720Y-92979664D01*
X89742288Y-92992290D01*
X89748582Y-93005597D01*
X89753541Y-93019457D01*
X89757118Y-93033736D01*
X89759278Y-93048297D01*
X89760000Y-93063000D01*
X89760000Y-94813000D01*
X89759278Y-94827703D01*
X89757118Y-94842264D01*
X89753541Y-94856543D01*
X89748582Y-94870403D01*
X89742288Y-94883710D01*
X89734720Y-94896336D01*
X89725952Y-94908159D01*
X89716066Y-94919066D01*
X89705159Y-94928952D01*
X89693336Y-94937720D01*
X89680710Y-94945288D01*
X89667403Y-94951582D01*
X89653543Y-94956541D01*
X89639264Y-94960118D01*
X89624703Y-94962278D01*
X89610000Y-94963000D01*
X89310000Y-94963000D01*
X89295297Y-94962278D01*
X89280736Y-94960118D01*
X89266457Y-94956541D01*
X89252597Y-94951582D01*
X89239290Y-94945288D01*
X89226664Y-94937720D01*
X89214841Y-94928952D01*
X89203934Y-94919066D01*
X89194048Y-94908159D01*
X89185280Y-94896336D01*
X89177712Y-94883710D01*
X89171418Y-94870403D01*
X89166459Y-94856543D01*
X89162882Y-94842264D01*
X89160722Y-94827703D01*
X89160000Y-94813000D01*
X89160000Y-93063000D01*
X89160722Y-93048297D01*
X89162882Y-93033736D01*
X89166459Y-93019457D01*
X89171418Y-93005597D01*
X89177712Y-92992290D01*
X89185280Y-92979664D01*
X89194048Y-92967841D01*
X89203934Y-92956934D01*
X89214841Y-92947048D01*
X89226664Y-92938280D01*
X89239290Y-92930712D01*
X89252597Y-92924418D01*
X89266457Y-92919459D01*
X89280736Y-92915882D01*
X89295297Y-92913722D01*
X89310000Y-92913000D01*
X89610000Y-92913000D01*
X89624703Y-92913722D01*
G37*
G36*
X90894703Y-92913722D02*
G01*
X90909264Y-92915882D01*
X90923543Y-92919459D01*
X90937403Y-92924418D01*
X90950710Y-92930712D01*
X90963336Y-92938280D01*
X90975159Y-92947048D01*
X90986066Y-92956934D01*
X90995952Y-92967841D01*
X91004720Y-92979664D01*
X91012288Y-92992290D01*
X91018582Y-93005597D01*
X91023541Y-93019457D01*
X91027118Y-93033736D01*
X91029278Y-93048297D01*
X91030000Y-93063000D01*
X91030000Y-94813000D01*
X91029278Y-94827703D01*
X91027118Y-94842264D01*
X91023541Y-94856543D01*
X91018582Y-94870403D01*
X91012288Y-94883710D01*
X91004720Y-94896336D01*
X90995952Y-94908159D01*
X90986066Y-94919066D01*
X90975159Y-94928952D01*
X90963336Y-94937720D01*
X90950710Y-94945288D01*
X90937403Y-94951582D01*
X90923543Y-94956541D01*
X90909264Y-94960118D01*
X90894703Y-94962278D01*
X90880000Y-94963000D01*
X90580000Y-94963000D01*
X90565297Y-94962278D01*
X90550736Y-94960118D01*
X90536457Y-94956541D01*
X90522597Y-94951582D01*
X90509290Y-94945288D01*
X90496664Y-94937720D01*
X90484841Y-94928952D01*
X90473934Y-94919066D01*
X90464048Y-94908159D01*
X90455280Y-94896336D01*
X90447712Y-94883710D01*
X90441418Y-94870403D01*
X90436459Y-94856543D01*
X90432882Y-94842264D01*
X90430722Y-94827703D01*
X90430000Y-94813000D01*
X90430000Y-93063000D01*
X90430722Y-93048297D01*
X90432882Y-93033736D01*
X90436459Y-93019457D01*
X90441418Y-93005597D01*
X90447712Y-92992290D01*
X90455280Y-92979664D01*
X90464048Y-92967841D01*
X90473934Y-92956934D01*
X90484841Y-92947048D01*
X90496664Y-92938280D01*
X90509290Y-92930712D01*
X90522597Y-92924418D01*
X90536457Y-92919459D01*
X90550736Y-92915882D01*
X90565297Y-92913722D01*
X90580000Y-92913000D01*
X90880000Y-92913000D01*
X90894703Y-92913722D01*
G37*
G36*
X92164703Y-92913722D02*
G01*
X92179264Y-92915882D01*
X92193543Y-92919459D01*
X92207403Y-92924418D01*
X92220710Y-92930712D01*
X92233336Y-92938280D01*
X92245159Y-92947048D01*
X92256066Y-92956934D01*
X92265952Y-92967841D01*
X92274720Y-92979664D01*
X92282288Y-92992290D01*
X92288582Y-93005597D01*
X92293541Y-93019457D01*
X92297118Y-93033736D01*
X92299278Y-93048297D01*
X92300000Y-93063000D01*
X92300000Y-94813000D01*
X92299278Y-94827703D01*
X92297118Y-94842264D01*
X92293541Y-94856543D01*
X92288582Y-94870403D01*
X92282288Y-94883710D01*
X92274720Y-94896336D01*
X92265952Y-94908159D01*
X92256066Y-94919066D01*
X92245159Y-94928952D01*
X92233336Y-94937720D01*
X92220710Y-94945288D01*
X92207403Y-94951582D01*
X92193543Y-94956541D01*
X92179264Y-94960118D01*
X92164703Y-94962278D01*
X92150000Y-94963000D01*
X91850000Y-94963000D01*
X91835297Y-94962278D01*
X91820736Y-94960118D01*
X91806457Y-94956541D01*
X91792597Y-94951582D01*
X91779290Y-94945288D01*
X91766664Y-94937720D01*
X91754841Y-94928952D01*
X91743934Y-94919066D01*
X91734048Y-94908159D01*
X91725280Y-94896336D01*
X91717712Y-94883710D01*
X91711418Y-94870403D01*
X91706459Y-94856543D01*
X91702882Y-94842264D01*
X91700722Y-94827703D01*
X91700000Y-94813000D01*
X91700000Y-93063000D01*
X91700722Y-93048297D01*
X91702882Y-93033736D01*
X91706459Y-93019457D01*
X91711418Y-93005597D01*
X91717712Y-92992290D01*
X91725280Y-92979664D01*
X91734048Y-92967841D01*
X91743934Y-92956934D01*
X91754841Y-92947048D01*
X91766664Y-92938280D01*
X91779290Y-92930712D01*
X91792597Y-92924418D01*
X91806457Y-92919459D01*
X91820736Y-92915882D01*
X91835297Y-92913722D01*
X91850000Y-92913000D01*
X92150000Y-92913000D01*
X92164703Y-92913722D01*
G37*
G36*
X93434703Y-92913722D02*
G01*
X93449264Y-92915882D01*
X93463543Y-92919459D01*
X93477403Y-92924418D01*
X93490710Y-92930712D01*
X93503336Y-92938280D01*
X93515159Y-92947048D01*
X93526066Y-92956934D01*
X93535952Y-92967841D01*
X93544720Y-92979664D01*
X93552288Y-92992290D01*
X93558582Y-93005597D01*
X93563541Y-93019457D01*
X93567118Y-93033736D01*
X93569278Y-93048297D01*
X93570000Y-93063000D01*
X93570000Y-94813000D01*
X93569278Y-94827703D01*
X93567118Y-94842264D01*
X93563541Y-94856543D01*
X93558582Y-94870403D01*
X93552288Y-94883710D01*
X93544720Y-94896336D01*
X93535952Y-94908159D01*
X93526066Y-94919066D01*
X93515159Y-94928952D01*
X93503336Y-94937720D01*
X93490710Y-94945288D01*
X93477403Y-94951582D01*
X93463543Y-94956541D01*
X93449264Y-94960118D01*
X93434703Y-94962278D01*
X93420000Y-94963000D01*
X93120000Y-94963000D01*
X93105297Y-94962278D01*
X93090736Y-94960118D01*
X93076457Y-94956541D01*
X93062597Y-94951582D01*
X93049290Y-94945288D01*
X93036664Y-94937720D01*
X93024841Y-94928952D01*
X93013934Y-94919066D01*
X93004048Y-94908159D01*
X92995280Y-94896336D01*
X92987712Y-94883710D01*
X92981418Y-94870403D01*
X92976459Y-94856543D01*
X92972882Y-94842264D01*
X92970722Y-94827703D01*
X92970000Y-94813000D01*
X92970000Y-93063000D01*
X92970722Y-93048297D01*
X92972882Y-93033736D01*
X92976459Y-93019457D01*
X92981418Y-93005597D01*
X92987712Y-92992290D01*
X92995280Y-92979664D01*
X93004048Y-92967841D01*
X93013934Y-92956934D01*
X93024841Y-92947048D01*
X93036664Y-92938280D01*
X93049290Y-92930712D01*
X93062597Y-92924418D01*
X93076457Y-92919459D01*
X93090736Y-92915882D01*
X93105297Y-92913722D01*
X93120000Y-92913000D01*
X93420000Y-92913000D01*
X93434703Y-92913722D01*
G37*
G36*
X94704703Y-92913722D02*
G01*
X94719264Y-92915882D01*
X94733543Y-92919459D01*
X94747403Y-92924418D01*
X94760710Y-92930712D01*
X94773336Y-92938280D01*
X94785159Y-92947048D01*
X94796066Y-92956934D01*
X94805952Y-92967841D01*
X94814720Y-92979664D01*
X94822288Y-92992290D01*
X94828582Y-93005597D01*
X94833541Y-93019457D01*
X94837118Y-93033736D01*
X94839278Y-93048297D01*
X94840000Y-93063000D01*
X94840000Y-94813000D01*
X94839278Y-94827703D01*
X94837118Y-94842264D01*
X94833541Y-94856543D01*
X94828582Y-94870403D01*
X94822288Y-94883710D01*
X94814720Y-94896336D01*
X94805952Y-94908159D01*
X94796066Y-94919066D01*
X94785159Y-94928952D01*
X94773336Y-94937720D01*
X94760710Y-94945288D01*
X94747403Y-94951582D01*
X94733543Y-94956541D01*
X94719264Y-94960118D01*
X94704703Y-94962278D01*
X94690000Y-94963000D01*
X94390000Y-94963000D01*
X94375297Y-94962278D01*
X94360736Y-94960118D01*
X94346457Y-94956541D01*
X94332597Y-94951582D01*
X94319290Y-94945288D01*
X94306664Y-94937720D01*
X94294841Y-94928952D01*
X94283934Y-94919066D01*
X94274048Y-94908159D01*
X94265280Y-94896336D01*
X94257712Y-94883710D01*
X94251418Y-94870403D01*
X94246459Y-94856543D01*
X94242882Y-94842264D01*
X94240722Y-94827703D01*
X94240000Y-94813000D01*
X94240000Y-93063000D01*
X94240722Y-93048297D01*
X94242882Y-93033736D01*
X94246459Y-93019457D01*
X94251418Y-93005597D01*
X94257712Y-92992290D01*
X94265280Y-92979664D01*
X94274048Y-92967841D01*
X94283934Y-92956934D01*
X94294841Y-92947048D01*
X94306664Y-92938280D01*
X94319290Y-92930712D01*
X94332597Y-92924418D01*
X94346457Y-92919459D01*
X94360736Y-92915882D01*
X94375297Y-92913722D01*
X94390000Y-92913000D01*
X94690000Y-92913000D01*
X94704703Y-92913722D01*
G37*
G36*
X95974703Y-92913722D02*
G01*
X95989264Y-92915882D01*
X96003543Y-92919459D01*
X96017403Y-92924418D01*
X96030710Y-92930712D01*
X96043336Y-92938280D01*
X96055159Y-92947048D01*
X96066066Y-92956934D01*
X96075952Y-92967841D01*
X96084720Y-92979664D01*
X96092288Y-92992290D01*
X96098582Y-93005597D01*
X96103541Y-93019457D01*
X96107118Y-93033736D01*
X96109278Y-93048297D01*
X96110000Y-93063000D01*
X96110000Y-94813000D01*
X96109278Y-94827703D01*
X96107118Y-94842264D01*
X96103541Y-94856543D01*
X96098582Y-94870403D01*
X96092288Y-94883710D01*
X96084720Y-94896336D01*
X96075952Y-94908159D01*
X96066066Y-94919066D01*
X96055159Y-94928952D01*
X96043336Y-94937720D01*
X96030710Y-94945288D01*
X96017403Y-94951582D01*
X96003543Y-94956541D01*
X95989264Y-94960118D01*
X95974703Y-94962278D01*
X95960000Y-94963000D01*
X95660000Y-94963000D01*
X95645297Y-94962278D01*
X95630736Y-94960118D01*
X95616457Y-94956541D01*
X95602597Y-94951582D01*
X95589290Y-94945288D01*
X95576664Y-94937720D01*
X95564841Y-94928952D01*
X95553934Y-94919066D01*
X95544048Y-94908159D01*
X95535280Y-94896336D01*
X95527712Y-94883710D01*
X95521418Y-94870403D01*
X95516459Y-94856543D01*
X95512882Y-94842264D01*
X95510722Y-94827703D01*
X95510000Y-94813000D01*
X95510000Y-93063000D01*
X95510722Y-93048297D01*
X95512882Y-93033736D01*
X95516459Y-93019457D01*
X95521418Y-93005597D01*
X95527712Y-92992290D01*
X95535280Y-92979664D01*
X95544048Y-92967841D01*
X95553934Y-92956934D01*
X95564841Y-92947048D01*
X95576664Y-92938280D01*
X95589290Y-92930712D01*
X95602597Y-92924418D01*
X95616457Y-92919459D01*
X95630736Y-92915882D01*
X95645297Y-92913722D01*
X95660000Y-92913000D01*
X95960000Y-92913000D01*
X95974703Y-92913722D01*
G37*
G36*
X95974703Y-83613722D02*
G01*
X95989264Y-83615882D01*
X96003543Y-83619459D01*
X96017403Y-83624418D01*
X96030710Y-83630712D01*
X96043336Y-83638280D01*
X96055159Y-83647048D01*
X96066066Y-83656934D01*
X96075952Y-83667841D01*
X96084720Y-83679664D01*
X96092288Y-83692290D01*
X96098582Y-83705597D01*
X96103541Y-83719457D01*
X96107118Y-83733736D01*
X96109278Y-83748297D01*
X96110000Y-83763000D01*
X96110000Y-85513000D01*
X96109278Y-85527703D01*
X96107118Y-85542264D01*
X96103541Y-85556543D01*
X96098582Y-85570403D01*
X96092288Y-85583710D01*
X96084720Y-85596336D01*
X96075952Y-85608159D01*
X96066066Y-85619066D01*
X96055159Y-85628952D01*
X96043336Y-85637720D01*
X96030710Y-85645288D01*
X96017403Y-85651582D01*
X96003543Y-85656541D01*
X95989264Y-85660118D01*
X95974703Y-85662278D01*
X95960000Y-85663000D01*
X95660000Y-85663000D01*
X95645297Y-85662278D01*
X95630736Y-85660118D01*
X95616457Y-85656541D01*
X95602597Y-85651582D01*
X95589290Y-85645288D01*
X95576664Y-85637720D01*
X95564841Y-85628952D01*
X95553934Y-85619066D01*
X95544048Y-85608159D01*
X95535280Y-85596336D01*
X95527712Y-85583710D01*
X95521418Y-85570403D01*
X95516459Y-85556543D01*
X95512882Y-85542264D01*
X95510722Y-85527703D01*
X95510000Y-85513000D01*
X95510000Y-83763000D01*
X95510722Y-83748297D01*
X95512882Y-83733736D01*
X95516459Y-83719457D01*
X95521418Y-83705597D01*
X95527712Y-83692290D01*
X95535280Y-83679664D01*
X95544048Y-83667841D01*
X95553934Y-83656934D01*
X95564841Y-83647048D01*
X95576664Y-83638280D01*
X95589290Y-83630712D01*
X95602597Y-83624418D01*
X95616457Y-83619459D01*
X95630736Y-83615882D01*
X95645297Y-83613722D01*
X95660000Y-83613000D01*
X95960000Y-83613000D01*
X95974703Y-83613722D01*
G37*
G36*
X94704703Y-83613722D02*
G01*
X94719264Y-83615882D01*
X94733543Y-83619459D01*
X94747403Y-83624418D01*
X94760710Y-83630712D01*
X94773336Y-83638280D01*
X94785159Y-83647048D01*
X94796066Y-83656934D01*
X94805952Y-83667841D01*
X94814720Y-83679664D01*
X94822288Y-83692290D01*
X94828582Y-83705597D01*
X94833541Y-83719457D01*
X94837118Y-83733736D01*
X94839278Y-83748297D01*
X94840000Y-83763000D01*
X94840000Y-85513000D01*
X94839278Y-85527703D01*
X94837118Y-85542264D01*
X94833541Y-85556543D01*
X94828582Y-85570403D01*
X94822288Y-85583710D01*
X94814720Y-85596336D01*
X94805952Y-85608159D01*
X94796066Y-85619066D01*
X94785159Y-85628952D01*
X94773336Y-85637720D01*
X94760710Y-85645288D01*
X94747403Y-85651582D01*
X94733543Y-85656541D01*
X94719264Y-85660118D01*
X94704703Y-85662278D01*
X94690000Y-85663000D01*
X94390000Y-85663000D01*
X94375297Y-85662278D01*
X94360736Y-85660118D01*
X94346457Y-85656541D01*
X94332597Y-85651582D01*
X94319290Y-85645288D01*
X94306664Y-85637720D01*
X94294841Y-85628952D01*
X94283934Y-85619066D01*
X94274048Y-85608159D01*
X94265280Y-85596336D01*
X94257712Y-85583710D01*
X94251418Y-85570403D01*
X94246459Y-85556543D01*
X94242882Y-85542264D01*
X94240722Y-85527703D01*
X94240000Y-85513000D01*
X94240000Y-83763000D01*
X94240722Y-83748297D01*
X94242882Y-83733736D01*
X94246459Y-83719457D01*
X94251418Y-83705597D01*
X94257712Y-83692290D01*
X94265280Y-83679664D01*
X94274048Y-83667841D01*
X94283934Y-83656934D01*
X94294841Y-83647048D01*
X94306664Y-83638280D01*
X94319290Y-83630712D01*
X94332597Y-83624418D01*
X94346457Y-83619459D01*
X94360736Y-83615882D01*
X94375297Y-83613722D01*
X94390000Y-83613000D01*
X94690000Y-83613000D01*
X94704703Y-83613722D01*
G37*
G36*
X93434703Y-83613722D02*
G01*
X93449264Y-83615882D01*
X93463543Y-83619459D01*
X93477403Y-83624418D01*
X93490710Y-83630712D01*
X93503336Y-83638280D01*
X93515159Y-83647048D01*
X93526066Y-83656934D01*
X93535952Y-83667841D01*
X93544720Y-83679664D01*
X93552288Y-83692290D01*
X93558582Y-83705597D01*
X93563541Y-83719457D01*
X93567118Y-83733736D01*
X93569278Y-83748297D01*
X93570000Y-83763000D01*
X93570000Y-85513000D01*
X93569278Y-85527703D01*
X93567118Y-85542264D01*
X93563541Y-85556543D01*
X93558582Y-85570403D01*
X93552288Y-85583710D01*
X93544720Y-85596336D01*
X93535952Y-85608159D01*
X93526066Y-85619066D01*
X93515159Y-85628952D01*
X93503336Y-85637720D01*
X93490710Y-85645288D01*
X93477403Y-85651582D01*
X93463543Y-85656541D01*
X93449264Y-85660118D01*
X93434703Y-85662278D01*
X93420000Y-85663000D01*
X93120000Y-85663000D01*
X93105297Y-85662278D01*
X93090736Y-85660118D01*
X93076457Y-85656541D01*
X93062597Y-85651582D01*
X93049290Y-85645288D01*
X93036664Y-85637720D01*
X93024841Y-85628952D01*
X93013934Y-85619066D01*
X93004048Y-85608159D01*
X92995280Y-85596336D01*
X92987712Y-85583710D01*
X92981418Y-85570403D01*
X92976459Y-85556543D01*
X92972882Y-85542264D01*
X92970722Y-85527703D01*
X92970000Y-85513000D01*
X92970000Y-83763000D01*
X92970722Y-83748297D01*
X92972882Y-83733736D01*
X92976459Y-83719457D01*
X92981418Y-83705597D01*
X92987712Y-83692290D01*
X92995280Y-83679664D01*
X93004048Y-83667841D01*
X93013934Y-83656934D01*
X93024841Y-83647048D01*
X93036664Y-83638280D01*
X93049290Y-83630712D01*
X93062597Y-83624418D01*
X93076457Y-83619459D01*
X93090736Y-83615882D01*
X93105297Y-83613722D01*
X93120000Y-83613000D01*
X93420000Y-83613000D01*
X93434703Y-83613722D01*
G37*
G36*
X92164703Y-83613722D02*
G01*
X92179264Y-83615882D01*
X92193543Y-83619459D01*
X92207403Y-83624418D01*
X92220710Y-83630712D01*
X92233336Y-83638280D01*
X92245159Y-83647048D01*
X92256066Y-83656934D01*
X92265952Y-83667841D01*
X92274720Y-83679664D01*
X92282288Y-83692290D01*
X92288582Y-83705597D01*
X92293541Y-83719457D01*
X92297118Y-83733736D01*
X92299278Y-83748297D01*
X92300000Y-83763000D01*
X92300000Y-85513000D01*
X92299278Y-85527703D01*
X92297118Y-85542264D01*
X92293541Y-85556543D01*
X92288582Y-85570403D01*
X92282288Y-85583710D01*
X92274720Y-85596336D01*
X92265952Y-85608159D01*
X92256066Y-85619066D01*
X92245159Y-85628952D01*
X92233336Y-85637720D01*
X92220710Y-85645288D01*
X92207403Y-85651582D01*
X92193543Y-85656541D01*
X92179264Y-85660118D01*
X92164703Y-85662278D01*
X92150000Y-85663000D01*
X91850000Y-85663000D01*
X91835297Y-85662278D01*
X91820736Y-85660118D01*
X91806457Y-85656541D01*
X91792597Y-85651582D01*
X91779290Y-85645288D01*
X91766664Y-85637720D01*
X91754841Y-85628952D01*
X91743934Y-85619066D01*
X91734048Y-85608159D01*
X91725280Y-85596336D01*
X91717712Y-85583710D01*
X91711418Y-85570403D01*
X91706459Y-85556543D01*
X91702882Y-85542264D01*
X91700722Y-85527703D01*
X91700000Y-85513000D01*
X91700000Y-83763000D01*
X91700722Y-83748297D01*
X91702882Y-83733736D01*
X91706459Y-83719457D01*
X91711418Y-83705597D01*
X91717712Y-83692290D01*
X91725280Y-83679664D01*
X91734048Y-83667841D01*
X91743934Y-83656934D01*
X91754841Y-83647048D01*
X91766664Y-83638280D01*
X91779290Y-83630712D01*
X91792597Y-83624418D01*
X91806457Y-83619459D01*
X91820736Y-83615882D01*
X91835297Y-83613722D01*
X91850000Y-83613000D01*
X92150000Y-83613000D01*
X92164703Y-83613722D01*
G37*
G36*
X90894703Y-83613722D02*
G01*
X90909264Y-83615882D01*
X90923543Y-83619459D01*
X90937403Y-83624418D01*
X90950710Y-83630712D01*
X90963336Y-83638280D01*
X90975159Y-83647048D01*
X90986066Y-83656934D01*
X90995952Y-83667841D01*
X91004720Y-83679664D01*
X91012288Y-83692290D01*
X91018582Y-83705597D01*
X91023541Y-83719457D01*
X91027118Y-83733736D01*
X91029278Y-83748297D01*
X91030000Y-83763000D01*
X91030000Y-85513000D01*
X91029278Y-85527703D01*
X91027118Y-85542264D01*
X91023541Y-85556543D01*
X91018582Y-85570403D01*
X91012288Y-85583710D01*
X91004720Y-85596336D01*
X90995952Y-85608159D01*
X90986066Y-85619066D01*
X90975159Y-85628952D01*
X90963336Y-85637720D01*
X90950710Y-85645288D01*
X90937403Y-85651582D01*
X90923543Y-85656541D01*
X90909264Y-85660118D01*
X90894703Y-85662278D01*
X90880000Y-85663000D01*
X90580000Y-85663000D01*
X90565297Y-85662278D01*
X90550736Y-85660118D01*
X90536457Y-85656541D01*
X90522597Y-85651582D01*
X90509290Y-85645288D01*
X90496664Y-85637720D01*
X90484841Y-85628952D01*
X90473934Y-85619066D01*
X90464048Y-85608159D01*
X90455280Y-85596336D01*
X90447712Y-85583710D01*
X90441418Y-85570403D01*
X90436459Y-85556543D01*
X90432882Y-85542264D01*
X90430722Y-85527703D01*
X90430000Y-85513000D01*
X90430000Y-83763000D01*
X90430722Y-83748297D01*
X90432882Y-83733736D01*
X90436459Y-83719457D01*
X90441418Y-83705597D01*
X90447712Y-83692290D01*
X90455280Y-83679664D01*
X90464048Y-83667841D01*
X90473934Y-83656934D01*
X90484841Y-83647048D01*
X90496664Y-83638280D01*
X90509290Y-83630712D01*
X90522597Y-83624418D01*
X90536457Y-83619459D01*
X90550736Y-83615882D01*
X90565297Y-83613722D01*
X90580000Y-83613000D01*
X90880000Y-83613000D01*
X90894703Y-83613722D01*
G37*
G36*
X89624703Y-83613722D02*
G01*
X89639264Y-83615882D01*
X89653543Y-83619459D01*
X89667403Y-83624418D01*
X89680710Y-83630712D01*
X89693336Y-83638280D01*
X89705159Y-83647048D01*
X89716066Y-83656934D01*
X89725952Y-83667841D01*
X89734720Y-83679664D01*
X89742288Y-83692290D01*
X89748582Y-83705597D01*
X89753541Y-83719457D01*
X89757118Y-83733736D01*
X89759278Y-83748297D01*
X89760000Y-83763000D01*
X89760000Y-85513000D01*
X89759278Y-85527703D01*
X89757118Y-85542264D01*
X89753541Y-85556543D01*
X89748582Y-85570403D01*
X89742288Y-85583710D01*
X89734720Y-85596336D01*
X89725952Y-85608159D01*
X89716066Y-85619066D01*
X89705159Y-85628952D01*
X89693336Y-85637720D01*
X89680710Y-85645288D01*
X89667403Y-85651582D01*
X89653543Y-85656541D01*
X89639264Y-85660118D01*
X89624703Y-85662278D01*
X89610000Y-85663000D01*
X89310000Y-85663000D01*
X89295297Y-85662278D01*
X89280736Y-85660118D01*
X89266457Y-85656541D01*
X89252597Y-85651582D01*
X89239290Y-85645288D01*
X89226664Y-85637720D01*
X89214841Y-85628952D01*
X89203934Y-85619066D01*
X89194048Y-85608159D01*
X89185280Y-85596336D01*
X89177712Y-85583710D01*
X89171418Y-85570403D01*
X89166459Y-85556543D01*
X89162882Y-85542264D01*
X89160722Y-85527703D01*
X89160000Y-85513000D01*
X89160000Y-83763000D01*
X89160722Y-83748297D01*
X89162882Y-83733736D01*
X89166459Y-83719457D01*
X89171418Y-83705597D01*
X89177712Y-83692290D01*
X89185280Y-83679664D01*
X89194048Y-83667841D01*
X89203934Y-83656934D01*
X89214841Y-83647048D01*
X89226664Y-83638280D01*
X89239290Y-83630712D01*
X89252597Y-83624418D01*
X89266457Y-83619459D01*
X89280736Y-83615882D01*
X89295297Y-83613722D01*
X89310000Y-83613000D01*
X89610000Y-83613000D01*
X89624703Y-83613722D01*
G37*
G36*
X88354703Y-83613722D02*
G01*
X88369264Y-83615882D01*
X88383543Y-83619459D01*
X88397403Y-83624418D01*
X88410710Y-83630712D01*
X88423336Y-83638280D01*
X88435159Y-83647048D01*
X88446066Y-83656934D01*
X88455952Y-83667841D01*
X88464720Y-83679664D01*
X88472288Y-83692290D01*
X88478582Y-83705597D01*
X88483541Y-83719457D01*
X88487118Y-83733736D01*
X88489278Y-83748297D01*
X88490000Y-83763000D01*
X88490000Y-85513000D01*
X88489278Y-85527703D01*
X88487118Y-85542264D01*
X88483541Y-85556543D01*
X88478582Y-85570403D01*
X88472288Y-85583710D01*
X88464720Y-85596336D01*
X88455952Y-85608159D01*
X88446066Y-85619066D01*
X88435159Y-85628952D01*
X88423336Y-85637720D01*
X88410710Y-85645288D01*
X88397403Y-85651582D01*
X88383543Y-85656541D01*
X88369264Y-85660118D01*
X88354703Y-85662278D01*
X88340000Y-85663000D01*
X88040000Y-85663000D01*
X88025297Y-85662278D01*
X88010736Y-85660118D01*
X87996457Y-85656541D01*
X87982597Y-85651582D01*
X87969290Y-85645288D01*
X87956664Y-85637720D01*
X87944841Y-85628952D01*
X87933934Y-85619066D01*
X87924048Y-85608159D01*
X87915280Y-85596336D01*
X87907712Y-85583710D01*
X87901418Y-85570403D01*
X87896459Y-85556543D01*
X87892882Y-85542264D01*
X87890722Y-85527703D01*
X87890000Y-85513000D01*
X87890000Y-83763000D01*
X87890722Y-83748297D01*
X87892882Y-83733736D01*
X87896459Y-83719457D01*
X87901418Y-83705597D01*
X87907712Y-83692290D01*
X87915280Y-83679664D01*
X87924048Y-83667841D01*
X87933934Y-83656934D01*
X87944841Y-83647048D01*
X87956664Y-83638280D01*
X87969290Y-83630712D01*
X87982597Y-83624418D01*
X87996457Y-83619459D01*
X88010736Y-83615882D01*
X88025297Y-83613722D01*
X88040000Y-83613000D01*
X88340000Y-83613000D01*
X88354703Y-83613722D01*
G37*
G36*
X90354811Y-97664241D02*
G01*
X90359674Y-97664963D01*
X90364443Y-97666157D01*
X90369072Y-97667814D01*
X90373517Y-97669916D01*
X90377734Y-97672443D01*
X90381683Y-97675372D01*
X90385326Y-97678674D01*
X90388628Y-97682317D01*
X90391557Y-97686266D01*
X90394084Y-97690483D01*
X90396186Y-97694928D01*
X90397843Y-97699557D01*
X90399037Y-97704326D01*
X90399759Y-97709189D01*
X90400000Y-97714100D01*
X90400000Y-98813900D01*
X90399759Y-98818811D01*
X90399037Y-98823674D01*
X90397843Y-98828443D01*
X90396186Y-98833072D01*
X90394084Y-98837517D01*
X90391557Y-98841734D01*
X90388628Y-98845683D01*
X90385326Y-98849326D01*
X90381683Y-98852628D01*
X90377734Y-98855557D01*
X90373517Y-98858084D01*
X90369072Y-98860186D01*
X90364443Y-98861843D01*
X90359674Y-98863037D01*
X90354811Y-98863759D01*
X90349900Y-98864000D01*
X90150100Y-98864000D01*
X90145189Y-98863759D01*
X90140326Y-98863037D01*
X90135557Y-98861843D01*
X90130928Y-98860186D01*
X90126483Y-98858084D01*
X90122266Y-98855557D01*
X90118317Y-98852628D01*
X90114674Y-98849326D01*
X90111372Y-98845683D01*
X90108443Y-98841734D01*
X90105916Y-98837517D01*
X90103814Y-98833072D01*
X90102157Y-98828443D01*
X90100963Y-98823674D01*
X90100241Y-98818811D01*
X90100000Y-98813900D01*
X90100000Y-97714100D01*
X90100241Y-97709189D01*
X90100963Y-97704326D01*
X90102157Y-97699557D01*
X90103814Y-97694928D01*
X90105916Y-97690483D01*
X90108443Y-97686266D01*
X90111372Y-97682317D01*
X90114674Y-97678674D01*
X90118317Y-97675372D01*
X90122266Y-97672443D01*
X90126483Y-97669916D01*
X90130928Y-97667814D01*
X90135557Y-97666157D01*
X90140326Y-97664963D01*
X90145189Y-97664241D01*
X90150100Y-97664000D01*
X90349900Y-97664000D01*
X90354811Y-97664241D01*
G37*
G36*
X90854811Y-97664241D02*
G01*
X90859674Y-97664963D01*
X90864443Y-97666157D01*
X90869072Y-97667814D01*
X90873517Y-97669916D01*
X90877734Y-97672443D01*
X90881683Y-97675372D01*
X90885326Y-97678674D01*
X90888628Y-97682317D01*
X90891557Y-97686266D01*
X90894084Y-97690483D01*
X90896186Y-97694928D01*
X90897843Y-97699557D01*
X90899037Y-97704326D01*
X90899759Y-97709189D01*
X90900000Y-97714100D01*
X90900000Y-98813900D01*
X90899759Y-98818811D01*
X90899037Y-98823674D01*
X90897843Y-98828443D01*
X90896186Y-98833072D01*
X90894084Y-98837517D01*
X90891557Y-98841734D01*
X90888628Y-98845683D01*
X90885326Y-98849326D01*
X90881683Y-98852628D01*
X90877734Y-98855557D01*
X90873517Y-98858084D01*
X90869072Y-98860186D01*
X90864443Y-98861843D01*
X90859674Y-98863037D01*
X90854811Y-98863759D01*
X90849900Y-98864000D01*
X90650100Y-98864000D01*
X90645189Y-98863759D01*
X90640326Y-98863037D01*
X90635557Y-98861843D01*
X90630928Y-98860186D01*
X90626483Y-98858084D01*
X90622266Y-98855557D01*
X90618317Y-98852628D01*
X90614674Y-98849326D01*
X90611372Y-98845683D01*
X90608443Y-98841734D01*
X90605916Y-98837517D01*
X90603814Y-98833072D01*
X90602157Y-98828443D01*
X90600963Y-98823674D01*
X90600241Y-98818811D01*
X90600000Y-98813900D01*
X90600000Y-97714100D01*
X90600241Y-97709189D01*
X90600963Y-97704326D01*
X90602157Y-97699557D01*
X90603814Y-97694928D01*
X90605916Y-97690483D01*
X90608443Y-97686266D01*
X90611372Y-97682317D01*
X90614674Y-97678674D01*
X90618317Y-97675372D01*
X90622266Y-97672443D01*
X90626483Y-97669916D01*
X90630928Y-97667814D01*
X90635557Y-97666157D01*
X90640326Y-97664963D01*
X90645189Y-97664241D01*
X90650100Y-97664000D01*
X90849900Y-97664000D01*
X90854811Y-97664241D01*
G37*
G36*
X91354811Y-97664241D02*
G01*
X91359674Y-97664963D01*
X91364443Y-97666157D01*
X91369072Y-97667814D01*
X91373517Y-97669916D01*
X91377734Y-97672443D01*
X91381683Y-97675372D01*
X91385326Y-97678674D01*
X91388628Y-97682317D01*
X91391557Y-97686266D01*
X91394084Y-97690483D01*
X91396186Y-97694928D01*
X91397843Y-97699557D01*
X91399037Y-97704326D01*
X91399759Y-97709189D01*
X91400000Y-97714100D01*
X91400000Y-98813900D01*
X91399759Y-98818811D01*
X91399037Y-98823674D01*
X91397843Y-98828443D01*
X91396186Y-98833072D01*
X91394084Y-98837517D01*
X91391557Y-98841734D01*
X91388628Y-98845683D01*
X91385326Y-98849326D01*
X91381683Y-98852628D01*
X91377734Y-98855557D01*
X91373517Y-98858084D01*
X91369072Y-98860186D01*
X91364443Y-98861843D01*
X91359674Y-98863037D01*
X91354811Y-98863759D01*
X91349900Y-98864000D01*
X91150100Y-98864000D01*
X91145189Y-98863759D01*
X91140326Y-98863037D01*
X91135557Y-98861843D01*
X91130928Y-98860186D01*
X91126483Y-98858084D01*
X91122266Y-98855557D01*
X91118317Y-98852628D01*
X91114674Y-98849326D01*
X91111372Y-98845683D01*
X91108443Y-98841734D01*
X91105916Y-98837517D01*
X91103814Y-98833072D01*
X91102157Y-98828443D01*
X91100963Y-98823674D01*
X91100241Y-98818811D01*
X91100000Y-98813900D01*
X91100000Y-97714100D01*
X91100241Y-97709189D01*
X91100963Y-97704326D01*
X91102157Y-97699557D01*
X91103814Y-97694928D01*
X91105916Y-97690483D01*
X91108443Y-97686266D01*
X91111372Y-97682317D01*
X91114674Y-97678674D01*
X91118317Y-97675372D01*
X91122266Y-97672443D01*
X91126483Y-97669916D01*
X91130928Y-97667814D01*
X91135557Y-97666157D01*
X91140326Y-97664963D01*
X91145189Y-97664241D01*
X91150100Y-97664000D01*
X91349900Y-97664000D01*
X91354811Y-97664241D01*
G37*
G36*
X91854811Y-97664241D02*
G01*
X91859674Y-97664963D01*
X91864443Y-97666157D01*
X91869072Y-97667814D01*
X91873517Y-97669916D01*
X91877734Y-97672443D01*
X91881683Y-97675372D01*
X91885326Y-97678674D01*
X91888628Y-97682317D01*
X91891557Y-97686266D01*
X91894084Y-97690483D01*
X91896186Y-97694928D01*
X91897843Y-97699557D01*
X91899037Y-97704326D01*
X91899759Y-97709189D01*
X91900000Y-97714100D01*
X91900000Y-98813900D01*
X91899759Y-98818811D01*
X91899037Y-98823674D01*
X91897843Y-98828443D01*
X91896186Y-98833072D01*
X91894084Y-98837517D01*
X91891557Y-98841734D01*
X91888628Y-98845683D01*
X91885326Y-98849326D01*
X91881683Y-98852628D01*
X91877734Y-98855557D01*
X91873517Y-98858084D01*
X91869072Y-98860186D01*
X91864443Y-98861843D01*
X91859674Y-98863037D01*
X91854811Y-98863759D01*
X91849900Y-98864000D01*
X91650100Y-98864000D01*
X91645189Y-98863759D01*
X91640326Y-98863037D01*
X91635557Y-98861843D01*
X91630928Y-98860186D01*
X91626483Y-98858084D01*
X91622266Y-98855557D01*
X91618317Y-98852628D01*
X91614674Y-98849326D01*
X91611372Y-98845683D01*
X91608443Y-98841734D01*
X91605916Y-98837517D01*
X91603814Y-98833072D01*
X91602157Y-98828443D01*
X91600963Y-98823674D01*
X91600241Y-98818811D01*
X91600000Y-98813900D01*
X91600000Y-97714100D01*
X91600241Y-97709189D01*
X91600963Y-97704326D01*
X91602157Y-97699557D01*
X91603814Y-97694928D01*
X91605916Y-97690483D01*
X91608443Y-97686266D01*
X91611372Y-97682317D01*
X91614674Y-97678674D01*
X91618317Y-97675372D01*
X91622266Y-97672443D01*
X91626483Y-97669916D01*
X91630928Y-97667814D01*
X91635557Y-97666157D01*
X91640326Y-97664963D01*
X91645189Y-97664241D01*
X91650100Y-97664000D01*
X91849900Y-97664000D01*
X91854811Y-97664241D01*
G37*
G36*
X92354811Y-97664241D02*
G01*
X92359674Y-97664963D01*
X92364443Y-97666157D01*
X92369072Y-97667814D01*
X92373517Y-97669916D01*
X92377734Y-97672443D01*
X92381683Y-97675372D01*
X92385326Y-97678674D01*
X92388628Y-97682317D01*
X92391557Y-97686266D01*
X92394084Y-97690483D01*
X92396186Y-97694928D01*
X92397843Y-97699557D01*
X92399037Y-97704326D01*
X92399759Y-97709189D01*
X92400000Y-97714100D01*
X92400000Y-98813900D01*
X92399759Y-98818811D01*
X92399037Y-98823674D01*
X92397843Y-98828443D01*
X92396186Y-98833072D01*
X92394084Y-98837517D01*
X92391557Y-98841734D01*
X92388628Y-98845683D01*
X92385326Y-98849326D01*
X92381683Y-98852628D01*
X92377734Y-98855557D01*
X92373517Y-98858084D01*
X92369072Y-98860186D01*
X92364443Y-98861843D01*
X92359674Y-98863037D01*
X92354811Y-98863759D01*
X92349900Y-98864000D01*
X92150100Y-98864000D01*
X92145189Y-98863759D01*
X92140326Y-98863037D01*
X92135557Y-98861843D01*
X92130928Y-98860186D01*
X92126483Y-98858084D01*
X92122266Y-98855557D01*
X92118317Y-98852628D01*
X92114674Y-98849326D01*
X92111372Y-98845683D01*
X92108443Y-98841734D01*
X92105916Y-98837517D01*
X92103814Y-98833072D01*
X92102157Y-98828443D01*
X92100963Y-98823674D01*
X92100241Y-98818811D01*
X92100000Y-98813900D01*
X92100000Y-97714100D01*
X92100241Y-97709189D01*
X92100963Y-97704326D01*
X92102157Y-97699557D01*
X92103814Y-97694928D01*
X92105916Y-97690483D01*
X92108443Y-97686266D01*
X92111372Y-97682317D01*
X92114674Y-97678674D01*
X92118317Y-97675372D01*
X92122266Y-97672443D01*
X92126483Y-97669916D01*
X92130928Y-97667814D01*
X92135557Y-97666157D01*
X92140326Y-97664963D01*
X92145189Y-97664241D01*
X92150100Y-97664000D01*
X92349900Y-97664000D01*
X92354811Y-97664241D01*
G37*
G36*
X92854811Y-97664241D02*
G01*
X92859674Y-97664963D01*
X92864443Y-97666157D01*
X92869072Y-97667814D01*
X92873517Y-97669916D01*
X92877734Y-97672443D01*
X92881683Y-97675372D01*
X92885326Y-97678674D01*
X92888628Y-97682317D01*
X92891557Y-97686266D01*
X92894084Y-97690483D01*
X92896186Y-97694928D01*
X92897843Y-97699557D01*
X92899037Y-97704326D01*
X92899759Y-97709189D01*
X92900000Y-97714100D01*
X92900000Y-98813900D01*
X92899759Y-98818811D01*
X92899037Y-98823674D01*
X92897843Y-98828443D01*
X92896186Y-98833072D01*
X92894084Y-98837517D01*
X92891557Y-98841734D01*
X92888628Y-98845683D01*
X92885326Y-98849326D01*
X92881683Y-98852628D01*
X92877734Y-98855557D01*
X92873517Y-98858084D01*
X92869072Y-98860186D01*
X92864443Y-98861843D01*
X92859674Y-98863037D01*
X92854811Y-98863759D01*
X92849900Y-98864000D01*
X92650100Y-98864000D01*
X92645189Y-98863759D01*
X92640326Y-98863037D01*
X92635557Y-98861843D01*
X92630928Y-98860186D01*
X92626483Y-98858084D01*
X92622266Y-98855557D01*
X92618317Y-98852628D01*
X92614674Y-98849326D01*
X92611372Y-98845683D01*
X92608443Y-98841734D01*
X92605916Y-98837517D01*
X92603814Y-98833072D01*
X92602157Y-98828443D01*
X92600963Y-98823674D01*
X92600241Y-98818811D01*
X92600000Y-98813900D01*
X92600000Y-97714100D01*
X92600241Y-97709189D01*
X92600963Y-97704326D01*
X92602157Y-97699557D01*
X92603814Y-97694928D01*
X92605916Y-97690483D01*
X92608443Y-97686266D01*
X92611372Y-97682317D01*
X92614674Y-97678674D01*
X92618317Y-97675372D01*
X92622266Y-97672443D01*
X92626483Y-97669916D01*
X92630928Y-97667814D01*
X92635557Y-97666157D01*
X92640326Y-97664963D01*
X92645189Y-97664241D01*
X92650100Y-97664000D01*
X92849900Y-97664000D01*
X92854811Y-97664241D01*
G37*
G36*
X93354811Y-97664241D02*
G01*
X93359674Y-97664963D01*
X93364443Y-97666157D01*
X93369072Y-97667814D01*
X93373517Y-97669916D01*
X93377734Y-97672443D01*
X93381683Y-97675372D01*
X93385326Y-97678674D01*
X93388628Y-97682317D01*
X93391557Y-97686266D01*
X93394084Y-97690483D01*
X93396186Y-97694928D01*
X93397843Y-97699557D01*
X93399037Y-97704326D01*
X93399759Y-97709189D01*
X93400000Y-97714100D01*
X93400000Y-98813900D01*
X93399759Y-98818811D01*
X93399037Y-98823674D01*
X93397843Y-98828443D01*
X93396186Y-98833072D01*
X93394084Y-98837517D01*
X93391557Y-98841734D01*
X93388628Y-98845683D01*
X93385326Y-98849326D01*
X93381683Y-98852628D01*
X93377734Y-98855557D01*
X93373517Y-98858084D01*
X93369072Y-98860186D01*
X93364443Y-98861843D01*
X93359674Y-98863037D01*
X93354811Y-98863759D01*
X93349900Y-98864000D01*
X93150100Y-98864000D01*
X93145189Y-98863759D01*
X93140326Y-98863037D01*
X93135557Y-98861843D01*
X93130928Y-98860186D01*
X93126483Y-98858084D01*
X93122266Y-98855557D01*
X93118317Y-98852628D01*
X93114674Y-98849326D01*
X93111372Y-98845683D01*
X93108443Y-98841734D01*
X93105916Y-98837517D01*
X93103814Y-98833072D01*
X93102157Y-98828443D01*
X93100963Y-98823674D01*
X93100241Y-98818811D01*
X93100000Y-98813900D01*
X93100000Y-97714100D01*
X93100241Y-97709189D01*
X93100963Y-97704326D01*
X93102157Y-97699557D01*
X93103814Y-97694928D01*
X93105916Y-97690483D01*
X93108443Y-97686266D01*
X93111372Y-97682317D01*
X93114674Y-97678674D01*
X93118317Y-97675372D01*
X93122266Y-97672443D01*
X93126483Y-97669916D01*
X93130928Y-97667814D01*
X93135557Y-97666157D01*
X93140326Y-97664963D01*
X93145189Y-97664241D01*
X93150100Y-97664000D01*
X93349900Y-97664000D01*
X93354811Y-97664241D01*
G37*
G36*
X93854811Y-97664241D02*
G01*
X93859674Y-97664963D01*
X93864443Y-97666157D01*
X93869072Y-97667814D01*
X93873517Y-97669916D01*
X93877734Y-97672443D01*
X93881683Y-97675372D01*
X93885326Y-97678674D01*
X93888628Y-97682317D01*
X93891557Y-97686266D01*
X93894084Y-97690483D01*
X93896186Y-97694928D01*
X93897843Y-97699557D01*
X93899037Y-97704326D01*
X93899759Y-97709189D01*
X93900000Y-97714100D01*
X93900000Y-98813900D01*
X93899759Y-98818811D01*
X93899037Y-98823674D01*
X93897843Y-98828443D01*
X93896186Y-98833072D01*
X93894084Y-98837517D01*
X93891557Y-98841734D01*
X93888628Y-98845683D01*
X93885326Y-98849326D01*
X93881683Y-98852628D01*
X93877734Y-98855557D01*
X93873517Y-98858084D01*
X93869072Y-98860186D01*
X93864443Y-98861843D01*
X93859674Y-98863037D01*
X93854811Y-98863759D01*
X93849900Y-98864000D01*
X93650100Y-98864000D01*
X93645189Y-98863759D01*
X93640326Y-98863037D01*
X93635557Y-98861843D01*
X93630928Y-98860186D01*
X93626483Y-98858084D01*
X93622266Y-98855557D01*
X93618317Y-98852628D01*
X93614674Y-98849326D01*
X93611372Y-98845683D01*
X93608443Y-98841734D01*
X93605916Y-98837517D01*
X93603814Y-98833072D01*
X93602157Y-98828443D01*
X93600963Y-98823674D01*
X93600241Y-98818811D01*
X93600000Y-98813900D01*
X93600000Y-97714100D01*
X93600241Y-97709189D01*
X93600963Y-97704326D01*
X93602157Y-97699557D01*
X93603814Y-97694928D01*
X93605916Y-97690483D01*
X93608443Y-97686266D01*
X93611372Y-97682317D01*
X93614674Y-97678674D01*
X93618317Y-97675372D01*
X93622266Y-97672443D01*
X93626483Y-97669916D01*
X93630928Y-97667814D01*
X93635557Y-97666157D01*
X93640326Y-97664963D01*
X93645189Y-97664241D01*
X93650100Y-97664000D01*
X93849900Y-97664000D01*
X93854811Y-97664241D01*
G37*
G36*
X89660704Y-98784477D02*
G01*
X89670314Y-98785902D01*
X89679738Y-98788263D01*
X89688886Y-98791536D01*
X89697668Y-98795690D01*
X89706001Y-98800685D01*
X89713805Y-98806472D01*
X89721004Y-98812996D01*
X89727528Y-98820195D01*
X89733315Y-98827999D01*
X89738310Y-98836332D01*
X89742464Y-98845114D01*
X89745737Y-98854262D01*
X89748098Y-98863686D01*
X89749523Y-98873296D01*
X89750000Y-98883000D01*
X89750000Y-101985000D01*
X89749523Y-101994704D01*
X89748098Y-102004314D01*
X89745737Y-102013738D01*
X89742464Y-102022886D01*
X89738310Y-102031668D01*
X89733315Y-102040001D01*
X89727528Y-102047805D01*
X89721004Y-102055004D01*
X89713805Y-102061528D01*
X89706001Y-102067315D01*
X89697668Y-102072310D01*
X89688886Y-102076464D01*
X89679738Y-102079737D01*
X89670314Y-102082098D01*
X89660704Y-102083523D01*
X89651000Y-102084000D01*
X87649000Y-102084000D01*
X87639296Y-102083523D01*
X87629686Y-102082098D01*
X87620262Y-102079737D01*
X87611114Y-102076464D01*
X87602332Y-102072310D01*
X87593999Y-102067315D01*
X87586195Y-102061528D01*
X87578996Y-102055004D01*
X87572472Y-102047805D01*
X87566685Y-102040001D01*
X87561690Y-102031668D01*
X87557536Y-102022886D01*
X87554263Y-102013738D01*
X87551902Y-102004314D01*
X87550477Y-101994704D01*
X87550000Y-101985000D01*
X87550000Y-98883000D01*
X87550477Y-98873296D01*
X87551902Y-98863686D01*
X87554263Y-98854262D01*
X87557536Y-98845114D01*
X87561690Y-98836332D01*
X87566685Y-98827999D01*
X87572472Y-98820195D01*
X87578996Y-98812996D01*
X87586195Y-98806472D01*
X87593999Y-98800685D01*
X87602332Y-98795690D01*
X87611114Y-98791536D01*
X87620262Y-98788263D01*
X87629686Y-98785902D01*
X87639296Y-98784477D01*
X87649000Y-98784000D01*
X89651000Y-98784000D01*
X89660704Y-98784477D01*
G37*
G36*
X96360704Y-98784477D02*
G01*
X96370314Y-98785902D01*
X96379738Y-98788263D01*
X96388886Y-98791536D01*
X96397668Y-98795690D01*
X96406001Y-98800685D01*
X96413805Y-98806472D01*
X96421004Y-98812996D01*
X96427528Y-98820195D01*
X96433315Y-98827999D01*
X96438310Y-98836332D01*
X96442464Y-98845114D01*
X96445737Y-98854262D01*
X96448098Y-98863686D01*
X96449523Y-98873296D01*
X96450000Y-98883000D01*
X96450000Y-101985000D01*
X96449523Y-101994704D01*
X96448098Y-102004314D01*
X96445737Y-102013738D01*
X96442464Y-102022886D01*
X96438310Y-102031668D01*
X96433315Y-102040001D01*
X96427528Y-102047805D01*
X96421004Y-102055004D01*
X96413805Y-102061528D01*
X96406001Y-102067315D01*
X96397668Y-102072310D01*
X96388886Y-102076464D01*
X96379738Y-102079737D01*
X96370314Y-102082098D01*
X96360704Y-102083523D01*
X96351000Y-102084000D01*
X94349000Y-102084000D01*
X94339296Y-102083523D01*
X94329686Y-102082098D01*
X94320262Y-102079737D01*
X94311114Y-102076464D01*
X94302332Y-102072310D01*
X94293999Y-102067315D01*
X94286195Y-102061528D01*
X94278996Y-102055004D01*
X94272472Y-102047805D01*
X94266685Y-102040001D01*
X94261690Y-102031668D01*
X94257536Y-102022886D01*
X94254263Y-102013738D01*
X94251902Y-102004314D01*
X94250477Y-101994704D01*
X94250000Y-101985000D01*
X94250000Y-98883000D01*
X94250477Y-98873296D01*
X94251902Y-98863686D01*
X94254263Y-98854262D01*
X94257536Y-98845114D01*
X94261690Y-98836332D01*
X94266685Y-98827999D01*
X94272472Y-98820195D01*
X94278996Y-98812996D01*
X94286195Y-98806472D01*
X94293999Y-98800685D01*
X94302332Y-98795690D01*
X94311114Y-98791536D01*
X94320262Y-98788263D01*
X94329686Y-98785902D01*
X94339296Y-98784477D01*
X94349000Y-98784000D01*
X96351000Y-98784000D01*
X96360704Y-98784477D01*
G37*
M02*
