M48
; DRILL file {KiCad (5.1.5-0-10_14)} date Monday, 13 April 2020 at 12:38:20
; FORMAT={-:-/ absolute / metric / decimal}
; #@! TF.CreationDate,2020-04-13T12:38:20+03:00
; #@! TF.GenerationSoftware,Kicad,Pcbnew,(5.1.5-0-10_14)
; #@! TF.FileFunction,NonPlated,1,2,NPTH
FMAT,2
METRIC
T1C0.400
%
G90
G05
T1
X84.2Y-103.5
X84.8Y-103.5
X85.4Y-103.5
X86.0Y-103.5
X86.6Y-103.5
X87.2Y-103.5
X87.8Y-103.5
X88.4Y-103.5
X89.0Y-103.5
X89.6Y-103.5
X90.2Y-103.5
X90.8Y-103.5
X91.4Y-103.5
X92.0Y-103.5
X92.6Y-103.5
X93.2Y-103.5
X93.8Y-103.5
X94.4Y-103.5
X95.0Y-103.5
X95.6Y-103.5
X96.2Y-103.5
X96.8Y-103.5
X97.4Y-103.5
X98.0Y-103.5
X98.6Y-103.5
X99.2Y-103.5
X99.8Y-103.5
T0
M30
