G04 #@! TF.GenerationSoftware,KiCad,Pcbnew,(5.1.5-0-10_14)*
G04 #@! TF.CreationDate,2020-04-13T12:38:15+03:00*
G04 #@! TF.ProjectId,npa700-breakout-b1,6e706137-3030-42d6-9272-65616b6f7574,rev?*
G04 #@! TF.SameCoordinates,Original*
G04 #@! TF.FileFunction,Soldermask,Bot*
G04 #@! TF.FilePolarity,Negative*
%FSLAX46Y46*%
G04 Gerber Fmt 4.6, Leading zero omitted, Abs format (unit mm)*
G04 Created by KiCad (PCBNEW (5.1.5-0-10_14)) date 2020-04-13 12:38:15*
%MOMM*%
%LPD*%
G04 APERTURE LIST*
%ADD10C,0.010000*%
%ADD11C,0.100000*%
G04 APERTURE END LIST*
D10*
X83250001Y-111000000D02*
X83250000Y-78490000D01*
X100750000Y-78490000D02*
X100749999Y-111000000D01*
X100750000Y-78490000D02*
X83250000Y-78490000D01*
X100749999Y-111000000D02*
X83250001Y-111000000D01*
D11*
G36*
X87502144Y-104845680D02*
G01*
X88002612Y-105052981D01*
X88210805Y-105192091D01*
X88453023Y-105353936D01*
X88836064Y-105736977D01*
X88836065Y-105736979D01*
X89137019Y-106187388D01*
X89344320Y-106687856D01*
X89450000Y-107219147D01*
X89450000Y-107760853D01*
X89344320Y-108292144D01*
X89137019Y-108792612D01*
X89137018Y-108792613D01*
X88836064Y-109243023D01*
X88453023Y-109626064D01*
X88391925Y-109666888D01*
X88002612Y-109927019D01*
X87502144Y-110134320D01*
X86970853Y-110240000D01*
X86429147Y-110240000D01*
X85897856Y-110134320D01*
X85397388Y-109927019D01*
X85008075Y-109666888D01*
X84946977Y-109626064D01*
X84563936Y-109243023D01*
X84262982Y-108792613D01*
X84262981Y-108792612D01*
X84055680Y-108292144D01*
X83950000Y-107760853D01*
X83950000Y-107219147D01*
X84055680Y-106687856D01*
X84262981Y-106187388D01*
X84563935Y-105736979D01*
X84563936Y-105736977D01*
X84946977Y-105353936D01*
X85189195Y-105192091D01*
X85397388Y-105052981D01*
X85897856Y-104845680D01*
X86429147Y-104740000D01*
X86970853Y-104740000D01*
X87502144Y-104845680D01*
G37*
G36*
X94458338Y-103307685D02*
G01*
X94494736Y-103322762D01*
X94527488Y-103344646D01*
X94527490Y-103344648D01*
X94527493Y-103344650D01*
X94555350Y-103372507D01*
X94555352Y-103372510D01*
X94555354Y-103372512D01*
X94577238Y-103405264D01*
X94592315Y-103441662D01*
X94600000Y-103480300D01*
X94600000Y-103519700D01*
X94592315Y-103558338D01*
X94577238Y-103594736D01*
X94555354Y-103627488D01*
X94555352Y-103627490D01*
X94555350Y-103627493D01*
X94527493Y-103655350D01*
X94527490Y-103655352D01*
X94527488Y-103655354D01*
X94494736Y-103677238D01*
X94458338Y-103692315D01*
X94419700Y-103700000D01*
X94380300Y-103700000D01*
X94341662Y-103692315D01*
X94305264Y-103677238D01*
X94272512Y-103655354D01*
X94272510Y-103655352D01*
X94272507Y-103655350D01*
X94244650Y-103627493D01*
X94244648Y-103627490D01*
X94244646Y-103627488D01*
X94222762Y-103594736D01*
X94207685Y-103558338D01*
X94200000Y-103519700D01*
X94200000Y-103480300D01*
X94207685Y-103441662D01*
X94222762Y-103405264D01*
X94244646Y-103372512D01*
X94244648Y-103372510D01*
X94244650Y-103372507D01*
X94272507Y-103344650D01*
X94272510Y-103344648D01*
X94272512Y-103344646D01*
X94305264Y-103322762D01*
X94341662Y-103307685D01*
X94380300Y-103300000D01*
X94419700Y-103300000D01*
X94458338Y-103307685D01*
G37*
G36*
X93858338Y-103307685D02*
G01*
X93894736Y-103322762D01*
X93927488Y-103344646D01*
X93927490Y-103344648D01*
X93927493Y-103344650D01*
X93955350Y-103372507D01*
X93955352Y-103372510D01*
X93955354Y-103372512D01*
X93977238Y-103405264D01*
X93992315Y-103441662D01*
X94000000Y-103480300D01*
X94000000Y-103519700D01*
X93992315Y-103558338D01*
X93977238Y-103594736D01*
X93955354Y-103627488D01*
X93955352Y-103627490D01*
X93955350Y-103627493D01*
X93927493Y-103655350D01*
X93927490Y-103655352D01*
X93927488Y-103655354D01*
X93894736Y-103677238D01*
X93858338Y-103692315D01*
X93819700Y-103700000D01*
X93780300Y-103700000D01*
X93741662Y-103692315D01*
X93705264Y-103677238D01*
X93672512Y-103655354D01*
X93672510Y-103655352D01*
X93672507Y-103655350D01*
X93644650Y-103627493D01*
X93644648Y-103627490D01*
X93644646Y-103627488D01*
X93622762Y-103594736D01*
X93607685Y-103558338D01*
X93600000Y-103519700D01*
X93600000Y-103480300D01*
X93607685Y-103441662D01*
X93622762Y-103405264D01*
X93644646Y-103372512D01*
X93644648Y-103372510D01*
X93644650Y-103372507D01*
X93672507Y-103344650D01*
X93672510Y-103344648D01*
X93672512Y-103344646D01*
X93705264Y-103322762D01*
X93741662Y-103307685D01*
X93780300Y-103300000D01*
X93819700Y-103300000D01*
X93858338Y-103307685D01*
G37*
G36*
X93258338Y-103307685D02*
G01*
X93294736Y-103322762D01*
X93327488Y-103344646D01*
X93327490Y-103344648D01*
X93327493Y-103344650D01*
X93355350Y-103372507D01*
X93355352Y-103372510D01*
X93355354Y-103372512D01*
X93377238Y-103405264D01*
X93392315Y-103441662D01*
X93400000Y-103480300D01*
X93400000Y-103519700D01*
X93392315Y-103558338D01*
X93377238Y-103594736D01*
X93355354Y-103627488D01*
X93355352Y-103627490D01*
X93355350Y-103627493D01*
X93327493Y-103655350D01*
X93327490Y-103655352D01*
X93327488Y-103655354D01*
X93294736Y-103677238D01*
X93258338Y-103692315D01*
X93219700Y-103700000D01*
X93180300Y-103700000D01*
X93141662Y-103692315D01*
X93105264Y-103677238D01*
X93072512Y-103655354D01*
X93072510Y-103655352D01*
X93072507Y-103655350D01*
X93044650Y-103627493D01*
X93044648Y-103627490D01*
X93044646Y-103627488D01*
X93022762Y-103594736D01*
X93007685Y-103558338D01*
X93000000Y-103519700D01*
X93000000Y-103480300D01*
X93007685Y-103441662D01*
X93022762Y-103405264D01*
X93044646Y-103372512D01*
X93044648Y-103372510D01*
X93044650Y-103372507D01*
X93072507Y-103344650D01*
X93072510Y-103344648D01*
X93072512Y-103344646D01*
X93105264Y-103322762D01*
X93141662Y-103307685D01*
X93180300Y-103300000D01*
X93219700Y-103300000D01*
X93258338Y-103307685D01*
G37*
G36*
X92658338Y-103307685D02*
G01*
X92694736Y-103322762D01*
X92727488Y-103344646D01*
X92727490Y-103344648D01*
X92727493Y-103344650D01*
X92755350Y-103372507D01*
X92755352Y-103372510D01*
X92755354Y-103372512D01*
X92777238Y-103405264D01*
X92792315Y-103441662D01*
X92800000Y-103480300D01*
X92800000Y-103519700D01*
X92792315Y-103558338D01*
X92777238Y-103594736D01*
X92755354Y-103627488D01*
X92755352Y-103627490D01*
X92755350Y-103627493D01*
X92727493Y-103655350D01*
X92727490Y-103655352D01*
X92727488Y-103655354D01*
X92694736Y-103677238D01*
X92658338Y-103692315D01*
X92619700Y-103700000D01*
X92580300Y-103700000D01*
X92541662Y-103692315D01*
X92505264Y-103677238D01*
X92472512Y-103655354D01*
X92472510Y-103655352D01*
X92472507Y-103655350D01*
X92444650Y-103627493D01*
X92444648Y-103627490D01*
X92444646Y-103627488D01*
X92422762Y-103594736D01*
X92407685Y-103558338D01*
X92400000Y-103519700D01*
X92400000Y-103480300D01*
X92407685Y-103441662D01*
X92422762Y-103405264D01*
X92444646Y-103372512D01*
X92444648Y-103372510D01*
X92444650Y-103372507D01*
X92472507Y-103344650D01*
X92472510Y-103344648D01*
X92472512Y-103344646D01*
X92505264Y-103322762D01*
X92541662Y-103307685D01*
X92580300Y-103300000D01*
X92619700Y-103300000D01*
X92658338Y-103307685D01*
G37*
G36*
X92058338Y-103307685D02*
G01*
X92094736Y-103322762D01*
X92127488Y-103344646D01*
X92127490Y-103344648D01*
X92127493Y-103344650D01*
X92155350Y-103372507D01*
X92155352Y-103372510D01*
X92155354Y-103372512D01*
X92177238Y-103405264D01*
X92192315Y-103441662D01*
X92200000Y-103480300D01*
X92200000Y-103519700D01*
X92192315Y-103558338D01*
X92177238Y-103594736D01*
X92155354Y-103627488D01*
X92155352Y-103627490D01*
X92155350Y-103627493D01*
X92127493Y-103655350D01*
X92127490Y-103655352D01*
X92127488Y-103655354D01*
X92094736Y-103677238D01*
X92058338Y-103692315D01*
X92019700Y-103700000D01*
X91980300Y-103700000D01*
X91941662Y-103692315D01*
X91905264Y-103677238D01*
X91872512Y-103655354D01*
X91872510Y-103655352D01*
X91872507Y-103655350D01*
X91844650Y-103627493D01*
X91844648Y-103627490D01*
X91844646Y-103627488D01*
X91822762Y-103594736D01*
X91807685Y-103558338D01*
X91800000Y-103519700D01*
X91800000Y-103480300D01*
X91807685Y-103441662D01*
X91822762Y-103405264D01*
X91844646Y-103372512D01*
X91844648Y-103372510D01*
X91844650Y-103372507D01*
X91872507Y-103344650D01*
X91872510Y-103344648D01*
X91872512Y-103344646D01*
X91905264Y-103322762D01*
X91941662Y-103307685D01*
X91980300Y-103300000D01*
X92019700Y-103300000D01*
X92058338Y-103307685D01*
G37*
G36*
X91458338Y-103307685D02*
G01*
X91494736Y-103322762D01*
X91527488Y-103344646D01*
X91527490Y-103344648D01*
X91527493Y-103344650D01*
X91555350Y-103372507D01*
X91555352Y-103372510D01*
X91555354Y-103372512D01*
X91577238Y-103405264D01*
X91592315Y-103441662D01*
X91600000Y-103480300D01*
X91600000Y-103519700D01*
X91592315Y-103558338D01*
X91577238Y-103594736D01*
X91555354Y-103627488D01*
X91555352Y-103627490D01*
X91555350Y-103627493D01*
X91527493Y-103655350D01*
X91527490Y-103655352D01*
X91527488Y-103655354D01*
X91494736Y-103677238D01*
X91458338Y-103692315D01*
X91419700Y-103700000D01*
X91380300Y-103700000D01*
X91341662Y-103692315D01*
X91305264Y-103677238D01*
X91272512Y-103655354D01*
X91272510Y-103655352D01*
X91272507Y-103655350D01*
X91244650Y-103627493D01*
X91244648Y-103627490D01*
X91244646Y-103627488D01*
X91222762Y-103594736D01*
X91207685Y-103558338D01*
X91200000Y-103519700D01*
X91200000Y-103480300D01*
X91207685Y-103441662D01*
X91222762Y-103405264D01*
X91244646Y-103372512D01*
X91244648Y-103372510D01*
X91244650Y-103372507D01*
X91272507Y-103344650D01*
X91272510Y-103344648D01*
X91272512Y-103344646D01*
X91305264Y-103322762D01*
X91341662Y-103307685D01*
X91380300Y-103300000D01*
X91419700Y-103300000D01*
X91458338Y-103307685D01*
G37*
G36*
X90858338Y-103307685D02*
G01*
X90894736Y-103322762D01*
X90927488Y-103344646D01*
X90927490Y-103344648D01*
X90927493Y-103344650D01*
X90955350Y-103372507D01*
X90955352Y-103372510D01*
X90955354Y-103372512D01*
X90977238Y-103405264D01*
X90992315Y-103441662D01*
X91000000Y-103480300D01*
X91000000Y-103519700D01*
X90992315Y-103558338D01*
X90977238Y-103594736D01*
X90955354Y-103627488D01*
X90955352Y-103627490D01*
X90955350Y-103627493D01*
X90927493Y-103655350D01*
X90927490Y-103655352D01*
X90927488Y-103655354D01*
X90894736Y-103677238D01*
X90858338Y-103692315D01*
X90819700Y-103700000D01*
X90780300Y-103700000D01*
X90741662Y-103692315D01*
X90705264Y-103677238D01*
X90672512Y-103655354D01*
X90672510Y-103655352D01*
X90672507Y-103655350D01*
X90644650Y-103627493D01*
X90644648Y-103627490D01*
X90644646Y-103627488D01*
X90622762Y-103594736D01*
X90607685Y-103558338D01*
X90600000Y-103519700D01*
X90600000Y-103480300D01*
X90607685Y-103441662D01*
X90622762Y-103405264D01*
X90644646Y-103372512D01*
X90644648Y-103372510D01*
X90644650Y-103372507D01*
X90672507Y-103344650D01*
X90672510Y-103344648D01*
X90672512Y-103344646D01*
X90705264Y-103322762D01*
X90741662Y-103307685D01*
X90780300Y-103300000D01*
X90819700Y-103300000D01*
X90858338Y-103307685D01*
G37*
G36*
X90258338Y-103307685D02*
G01*
X90294736Y-103322762D01*
X90327488Y-103344646D01*
X90327490Y-103344648D01*
X90327493Y-103344650D01*
X90355350Y-103372507D01*
X90355352Y-103372510D01*
X90355354Y-103372512D01*
X90377238Y-103405264D01*
X90392315Y-103441662D01*
X90400000Y-103480300D01*
X90400000Y-103519700D01*
X90392315Y-103558338D01*
X90377238Y-103594736D01*
X90355354Y-103627488D01*
X90355352Y-103627490D01*
X90355350Y-103627493D01*
X90327493Y-103655350D01*
X90327490Y-103655352D01*
X90327488Y-103655354D01*
X90294736Y-103677238D01*
X90258338Y-103692315D01*
X90219700Y-103700000D01*
X90180300Y-103700000D01*
X90141662Y-103692315D01*
X90105264Y-103677238D01*
X90072512Y-103655354D01*
X90072510Y-103655352D01*
X90072507Y-103655350D01*
X90044650Y-103627493D01*
X90044648Y-103627490D01*
X90044646Y-103627488D01*
X90022762Y-103594736D01*
X90007685Y-103558338D01*
X90000000Y-103519700D01*
X90000000Y-103480300D01*
X90007685Y-103441662D01*
X90022762Y-103405264D01*
X90044646Y-103372512D01*
X90044648Y-103372510D01*
X90044650Y-103372507D01*
X90072507Y-103344650D01*
X90072510Y-103344648D01*
X90072512Y-103344646D01*
X90105264Y-103322762D01*
X90141662Y-103307685D01*
X90180300Y-103300000D01*
X90219700Y-103300000D01*
X90258338Y-103307685D01*
G37*
G36*
X89658338Y-103307685D02*
G01*
X89694736Y-103322762D01*
X89727488Y-103344646D01*
X89727490Y-103344648D01*
X89727493Y-103344650D01*
X89755350Y-103372507D01*
X89755352Y-103372510D01*
X89755354Y-103372512D01*
X89777238Y-103405264D01*
X89792315Y-103441662D01*
X89800000Y-103480300D01*
X89800000Y-103519700D01*
X89792315Y-103558338D01*
X89777238Y-103594736D01*
X89755354Y-103627488D01*
X89755352Y-103627490D01*
X89755350Y-103627493D01*
X89727493Y-103655350D01*
X89727490Y-103655352D01*
X89727488Y-103655354D01*
X89694736Y-103677238D01*
X89658338Y-103692315D01*
X89619700Y-103700000D01*
X89580300Y-103700000D01*
X89541662Y-103692315D01*
X89505264Y-103677238D01*
X89472512Y-103655354D01*
X89472510Y-103655352D01*
X89472507Y-103655350D01*
X89444650Y-103627493D01*
X89444648Y-103627490D01*
X89444646Y-103627488D01*
X89422762Y-103594736D01*
X89407685Y-103558338D01*
X89400000Y-103519700D01*
X89400000Y-103480300D01*
X89407685Y-103441662D01*
X89422762Y-103405264D01*
X89444646Y-103372512D01*
X89444648Y-103372510D01*
X89444650Y-103372507D01*
X89472507Y-103344650D01*
X89472510Y-103344648D01*
X89472512Y-103344646D01*
X89505264Y-103322762D01*
X89541662Y-103307685D01*
X89580300Y-103300000D01*
X89619700Y-103300000D01*
X89658338Y-103307685D01*
G37*
G36*
X89058338Y-103307685D02*
G01*
X89094736Y-103322762D01*
X89127488Y-103344646D01*
X89127490Y-103344648D01*
X89127493Y-103344650D01*
X89155350Y-103372507D01*
X89155352Y-103372510D01*
X89155354Y-103372512D01*
X89177238Y-103405264D01*
X89192315Y-103441662D01*
X89200000Y-103480300D01*
X89200000Y-103519700D01*
X89192315Y-103558338D01*
X89177238Y-103594736D01*
X89155354Y-103627488D01*
X89155352Y-103627490D01*
X89155350Y-103627493D01*
X89127493Y-103655350D01*
X89127490Y-103655352D01*
X89127488Y-103655354D01*
X89094736Y-103677238D01*
X89058338Y-103692315D01*
X89019700Y-103700000D01*
X88980300Y-103700000D01*
X88941662Y-103692315D01*
X88905264Y-103677238D01*
X88872512Y-103655354D01*
X88872510Y-103655352D01*
X88872507Y-103655350D01*
X88844650Y-103627493D01*
X88844648Y-103627490D01*
X88844646Y-103627488D01*
X88822762Y-103594736D01*
X88807685Y-103558338D01*
X88800000Y-103519700D01*
X88800000Y-103480300D01*
X88807685Y-103441662D01*
X88822762Y-103405264D01*
X88844646Y-103372512D01*
X88844648Y-103372510D01*
X88844650Y-103372507D01*
X88872507Y-103344650D01*
X88872510Y-103344648D01*
X88872512Y-103344646D01*
X88905264Y-103322762D01*
X88941662Y-103307685D01*
X88980300Y-103300000D01*
X89019700Y-103300000D01*
X89058338Y-103307685D01*
G37*
G36*
X88458338Y-103307685D02*
G01*
X88494736Y-103322762D01*
X88527488Y-103344646D01*
X88527490Y-103344648D01*
X88527493Y-103344650D01*
X88555350Y-103372507D01*
X88555352Y-103372510D01*
X88555354Y-103372512D01*
X88577238Y-103405264D01*
X88592315Y-103441662D01*
X88600000Y-103480300D01*
X88600000Y-103519700D01*
X88592315Y-103558338D01*
X88577238Y-103594736D01*
X88555354Y-103627488D01*
X88555352Y-103627490D01*
X88555350Y-103627493D01*
X88527493Y-103655350D01*
X88527490Y-103655352D01*
X88527488Y-103655354D01*
X88494736Y-103677238D01*
X88458338Y-103692315D01*
X88419700Y-103700000D01*
X88380300Y-103700000D01*
X88341662Y-103692315D01*
X88305264Y-103677238D01*
X88272512Y-103655354D01*
X88272510Y-103655352D01*
X88272507Y-103655350D01*
X88244650Y-103627493D01*
X88244648Y-103627490D01*
X88244646Y-103627488D01*
X88222762Y-103594736D01*
X88207685Y-103558338D01*
X88200000Y-103519700D01*
X88200000Y-103480300D01*
X88207685Y-103441662D01*
X88222762Y-103405264D01*
X88244646Y-103372512D01*
X88244648Y-103372510D01*
X88244650Y-103372507D01*
X88272507Y-103344650D01*
X88272510Y-103344648D01*
X88272512Y-103344646D01*
X88305264Y-103322762D01*
X88341662Y-103307685D01*
X88380300Y-103300000D01*
X88419700Y-103300000D01*
X88458338Y-103307685D01*
G37*
G36*
X87858338Y-103307685D02*
G01*
X87894736Y-103322762D01*
X87927488Y-103344646D01*
X87927490Y-103344648D01*
X87927493Y-103344650D01*
X87955350Y-103372507D01*
X87955352Y-103372510D01*
X87955354Y-103372512D01*
X87977238Y-103405264D01*
X87992315Y-103441662D01*
X88000000Y-103480300D01*
X88000000Y-103519700D01*
X87992315Y-103558338D01*
X87977238Y-103594736D01*
X87955354Y-103627488D01*
X87955352Y-103627490D01*
X87955350Y-103627493D01*
X87927493Y-103655350D01*
X87927490Y-103655352D01*
X87927488Y-103655354D01*
X87894736Y-103677238D01*
X87858338Y-103692315D01*
X87819700Y-103700000D01*
X87780300Y-103700000D01*
X87741662Y-103692315D01*
X87705264Y-103677238D01*
X87672512Y-103655354D01*
X87672510Y-103655352D01*
X87672507Y-103655350D01*
X87644650Y-103627493D01*
X87644648Y-103627490D01*
X87644646Y-103627488D01*
X87622762Y-103594736D01*
X87607685Y-103558338D01*
X87600000Y-103519700D01*
X87600000Y-103480300D01*
X87607685Y-103441662D01*
X87622762Y-103405264D01*
X87644646Y-103372512D01*
X87644648Y-103372510D01*
X87644650Y-103372507D01*
X87672507Y-103344650D01*
X87672510Y-103344648D01*
X87672512Y-103344646D01*
X87705264Y-103322762D01*
X87741662Y-103307685D01*
X87780300Y-103300000D01*
X87819700Y-103300000D01*
X87858338Y-103307685D01*
G37*
G36*
X87258338Y-103307685D02*
G01*
X87294736Y-103322762D01*
X87327488Y-103344646D01*
X87327490Y-103344648D01*
X87327493Y-103344650D01*
X87355350Y-103372507D01*
X87355352Y-103372510D01*
X87355354Y-103372512D01*
X87377238Y-103405264D01*
X87392315Y-103441662D01*
X87400000Y-103480300D01*
X87400000Y-103519700D01*
X87392315Y-103558338D01*
X87377238Y-103594736D01*
X87355354Y-103627488D01*
X87355352Y-103627490D01*
X87355350Y-103627493D01*
X87327493Y-103655350D01*
X87327490Y-103655352D01*
X87327488Y-103655354D01*
X87294736Y-103677238D01*
X87258338Y-103692315D01*
X87219700Y-103700000D01*
X87180300Y-103700000D01*
X87141662Y-103692315D01*
X87105264Y-103677238D01*
X87072512Y-103655354D01*
X87072510Y-103655352D01*
X87072507Y-103655350D01*
X87044650Y-103627493D01*
X87044648Y-103627490D01*
X87044646Y-103627488D01*
X87022762Y-103594736D01*
X87007685Y-103558338D01*
X87000000Y-103519700D01*
X87000000Y-103480300D01*
X87007685Y-103441662D01*
X87022762Y-103405264D01*
X87044646Y-103372512D01*
X87044648Y-103372510D01*
X87044650Y-103372507D01*
X87072507Y-103344650D01*
X87072510Y-103344648D01*
X87072512Y-103344646D01*
X87105264Y-103322762D01*
X87141662Y-103307685D01*
X87180300Y-103300000D01*
X87219700Y-103300000D01*
X87258338Y-103307685D01*
G37*
G36*
X86658338Y-103307685D02*
G01*
X86694736Y-103322762D01*
X86727488Y-103344646D01*
X86727490Y-103344648D01*
X86727493Y-103344650D01*
X86755350Y-103372507D01*
X86755352Y-103372510D01*
X86755354Y-103372512D01*
X86777238Y-103405264D01*
X86792315Y-103441662D01*
X86800000Y-103480300D01*
X86800000Y-103519700D01*
X86792315Y-103558338D01*
X86777238Y-103594736D01*
X86755354Y-103627488D01*
X86755352Y-103627490D01*
X86755350Y-103627493D01*
X86727493Y-103655350D01*
X86727490Y-103655352D01*
X86727488Y-103655354D01*
X86694736Y-103677238D01*
X86658338Y-103692315D01*
X86619700Y-103700000D01*
X86580300Y-103700000D01*
X86541662Y-103692315D01*
X86505264Y-103677238D01*
X86472512Y-103655354D01*
X86472510Y-103655352D01*
X86472507Y-103655350D01*
X86444650Y-103627493D01*
X86444648Y-103627490D01*
X86444646Y-103627488D01*
X86422762Y-103594736D01*
X86407685Y-103558338D01*
X86400000Y-103519700D01*
X86400000Y-103480300D01*
X86407685Y-103441662D01*
X86422762Y-103405264D01*
X86444646Y-103372512D01*
X86444648Y-103372510D01*
X86444650Y-103372507D01*
X86472507Y-103344650D01*
X86472510Y-103344648D01*
X86472512Y-103344646D01*
X86505264Y-103322762D01*
X86541662Y-103307685D01*
X86580300Y-103300000D01*
X86619700Y-103300000D01*
X86658338Y-103307685D01*
G37*
G36*
X86058338Y-103307685D02*
G01*
X86094736Y-103322762D01*
X86127488Y-103344646D01*
X86127490Y-103344648D01*
X86127493Y-103344650D01*
X86155350Y-103372507D01*
X86155352Y-103372510D01*
X86155354Y-103372512D01*
X86177238Y-103405264D01*
X86192315Y-103441662D01*
X86200000Y-103480300D01*
X86200000Y-103519700D01*
X86192315Y-103558338D01*
X86177238Y-103594736D01*
X86155354Y-103627488D01*
X86155352Y-103627490D01*
X86155350Y-103627493D01*
X86127493Y-103655350D01*
X86127490Y-103655352D01*
X86127488Y-103655354D01*
X86094736Y-103677238D01*
X86058338Y-103692315D01*
X86019700Y-103700000D01*
X85980300Y-103700000D01*
X85941662Y-103692315D01*
X85905264Y-103677238D01*
X85872512Y-103655354D01*
X85872510Y-103655352D01*
X85872507Y-103655350D01*
X85844650Y-103627493D01*
X85844648Y-103627490D01*
X85844646Y-103627488D01*
X85822762Y-103594736D01*
X85807685Y-103558338D01*
X85800000Y-103519700D01*
X85800000Y-103480300D01*
X85807685Y-103441662D01*
X85822762Y-103405264D01*
X85844646Y-103372512D01*
X85844648Y-103372510D01*
X85844650Y-103372507D01*
X85872507Y-103344650D01*
X85872510Y-103344648D01*
X85872512Y-103344646D01*
X85905264Y-103322762D01*
X85941662Y-103307685D01*
X85980300Y-103300000D01*
X86019700Y-103300000D01*
X86058338Y-103307685D01*
G37*
G36*
X85458338Y-103307685D02*
G01*
X85494736Y-103322762D01*
X85527488Y-103344646D01*
X85527490Y-103344648D01*
X85527493Y-103344650D01*
X85555350Y-103372507D01*
X85555352Y-103372510D01*
X85555354Y-103372512D01*
X85577238Y-103405264D01*
X85592315Y-103441662D01*
X85600000Y-103480300D01*
X85600000Y-103519700D01*
X85592315Y-103558338D01*
X85577238Y-103594736D01*
X85555354Y-103627488D01*
X85555352Y-103627490D01*
X85555350Y-103627493D01*
X85527493Y-103655350D01*
X85527490Y-103655352D01*
X85527488Y-103655354D01*
X85494736Y-103677238D01*
X85458338Y-103692315D01*
X85419700Y-103700000D01*
X85380300Y-103700000D01*
X85341662Y-103692315D01*
X85305264Y-103677238D01*
X85272512Y-103655354D01*
X85272510Y-103655352D01*
X85272507Y-103655350D01*
X85244650Y-103627493D01*
X85244648Y-103627490D01*
X85244646Y-103627488D01*
X85222762Y-103594736D01*
X85207685Y-103558338D01*
X85200000Y-103519700D01*
X85200000Y-103480300D01*
X85207685Y-103441662D01*
X85222762Y-103405264D01*
X85244646Y-103372512D01*
X85244648Y-103372510D01*
X85244650Y-103372507D01*
X85272507Y-103344650D01*
X85272510Y-103344648D01*
X85272512Y-103344646D01*
X85305264Y-103322762D01*
X85341662Y-103307685D01*
X85380300Y-103300000D01*
X85419700Y-103300000D01*
X85458338Y-103307685D01*
G37*
G36*
X84858338Y-103307685D02*
G01*
X84894736Y-103322762D01*
X84927488Y-103344646D01*
X84927490Y-103344648D01*
X84927493Y-103344650D01*
X84955350Y-103372507D01*
X84955352Y-103372510D01*
X84955354Y-103372512D01*
X84977238Y-103405264D01*
X84992315Y-103441662D01*
X85000000Y-103480300D01*
X85000000Y-103519700D01*
X84992315Y-103558338D01*
X84977238Y-103594736D01*
X84955354Y-103627488D01*
X84955352Y-103627490D01*
X84955350Y-103627493D01*
X84927493Y-103655350D01*
X84927490Y-103655352D01*
X84927488Y-103655354D01*
X84894736Y-103677238D01*
X84858338Y-103692315D01*
X84819700Y-103700000D01*
X84780300Y-103700000D01*
X84741662Y-103692315D01*
X84705264Y-103677238D01*
X84672512Y-103655354D01*
X84672510Y-103655352D01*
X84672507Y-103655350D01*
X84644650Y-103627493D01*
X84644648Y-103627490D01*
X84644646Y-103627488D01*
X84622762Y-103594736D01*
X84607685Y-103558338D01*
X84600000Y-103519700D01*
X84600000Y-103480300D01*
X84607685Y-103441662D01*
X84622762Y-103405264D01*
X84644646Y-103372512D01*
X84644648Y-103372510D01*
X84644650Y-103372507D01*
X84672507Y-103344650D01*
X84672510Y-103344648D01*
X84672512Y-103344646D01*
X84705264Y-103322762D01*
X84741662Y-103307685D01*
X84780300Y-103300000D01*
X84819700Y-103300000D01*
X84858338Y-103307685D01*
G37*
G36*
X84258338Y-103307685D02*
G01*
X84294736Y-103322762D01*
X84327488Y-103344646D01*
X84327490Y-103344648D01*
X84327493Y-103344650D01*
X84355350Y-103372507D01*
X84355352Y-103372510D01*
X84355354Y-103372512D01*
X84377238Y-103405264D01*
X84392315Y-103441662D01*
X84400000Y-103480300D01*
X84400000Y-103519700D01*
X84392315Y-103558338D01*
X84377238Y-103594736D01*
X84355354Y-103627488D01*
X84355352Y-103627490D01*
X84355350Y-103627493D01*
X84327493Y-103655350D01*
X84327490Y-103655352D01*
X84327488Y-103655354D01*
X84294736Y-103677238D01*
X84258338Y-103692315D01*
X84219700Y-103700000D01*
X84180300Y-103700000D01*
X84141662Y-103692315D01*
X84105264Y-103677238D01*
X84072512Y-103655354D01*
X84072510Y-103655352D01*
X84072507Y-103655350D01*
X84044650Y-103627493D01*
X84044648Y-103627490D01*
X84044646Y-103627488D01*
X84022762Y-103594736D01*
X84007685Y-103558338D01*
X84000000Y-103519700D01*
X84000000Y-103480300D01*
X84007685Y-103441662D01*
X84022762Y-103405264D01*
X84044646Y-103372512D01*
X84044648Y-103372510D01*
X84044650Y-103372507D01*
X84072507Y-103344650D01*
X84072510Y-103344648D01*
X84072512Y-103344646D01*
X84105264Y-103322762D01*
X84141662Y-103307685D01*
X84180300Y-103300000D01*
X84219700Y-103300000D01*
X84258338Y-103307685D01*
G37*
G36*
X99858338Y-103307685D02*
G01*
X99894736Y-103322762D01*
X99927488Y-103344646D01*
X99927490Y-103344648D01*
X99927493Y-103344650D01*
X99955350Y-103372507D01*
X99955352Y-103372510D01*
X99955354Y-103372512D01*
X99977238Y-103405264D01*
X99992315Y-103441662D01*
X100000000Y-103480300D01*
X100000000Y-103519700D01*
X99992315Y-103558338D01*
X99977238Y-103594736D01*
X99955354Y-103627488D01*
X99955352Y-103627490D01*
X99955350Y-103627493D01*
X99927493Y-103655350D01*
X99927490Y-103655352D01*
X99927488Y-103655354D01*
X99894736Y-103677238D01*
X99858338Y-103692315D01*
X99819700Y-103700000D01*
X99780300Y-103700000D01*
X99741662Y-103692315D01*
X99705264Y-103677238D01*
X99672512Y-103655354D01*
X99672510Y-103655352D01*
X99672507Y-103655350D01*
X99644650Y-103627493D01*
X99644648Y-103627490D01*
X99644646Y-103627488D01*
X99622762Y-103594736D01*
X99607685Y-103558338D01*
X99600000Y-103519700D01*
X99600000Y-103480300D01*
X99607685Y-103441662D01*
X99622762Y-103405264D01*
X99644646Y-103372512D01*
X99644648Y-103372510D01*
X99644650Y-103372507D01*
X99672507Y-103344650D01*
X99672510Y-103344648D01*
X99672512Y-103344646D01*
X99705264Y-103322762D01*
X99741662Y-103307685D01*
X99780300Y-103300000D01*
X99819700Y-103300000D01*
X99858338Y-103307685D01*
G37*
G36*
X99258338Y-103307685D02*
G01*
X99294736Y-103322762D01*
X99327488Y-103344646D01*
X99327490Y-103344648D01*
X99327493Y-103344650D01*
X99355350Y-103372507D01*
X99355352Y-103372510D01*
X99355354Y-103372512D01*
X99377238Y-103405264D01*
X99392315Y-103441662D01*
X99400000Y-103480300D01*
X99400000Y-103519700D01*
X99392315Y-103558338D01*
X99377238Y-103594736D01*
X99355354Y-103627488D01*
X99355352Y-103627490D01*
X99355350Y-103627493D01*
X99327493Y-103655350D01*
X99327490Y-103655352D01*
X99327488Y-103655354D01*
X99294736Y-103677238D01*
X99258338Y-103692315D01*
X99219700Y-103700000D01*
X99180300Y-103700000D01*
X99141662Y-103692315D01*
X99105264Y-103677238D01*
X99072512Y-103655354D01*
X99072510Y-103655352D01*
X99072507Y-103655350D01*
X99044650Y-103627493D01*
X99044648Y-103627490D01*
X99044646Y-103627488D01*
X99022762Y-103594736D01*
X99007685Y-103558338D01*
X99000000Y-103519700D01*
X99000000Y-103480300D01*
X99007685Y-103441662D01*
X99022762Y-103405264D01*
X99044646Y-103372512D01*
X99044648Y-103372510D01*
X99044650Y-103372507D01*
X99072507Y-103344650D01*
X99072510Y-103344648D01*
X99072512Y-103344646D01*
X99105264Y-103322762D01*
X99141662Y-103307685D01*
X99180300Y-103300000D01*
X99219700Y-103300000D01*
X99258338Y-103307685D01*
G37*
G36*
X98658338Y-103307685D02*
G01*
X98694736Y-103322762D01*
X98727488Y-103344646D01*
X98727490Y-103344648D01*
X98727493Y-103344650D01*
X98755350Y-103372507D01*
X98755352Y-103372510D01*
X98755354Y-103372512D01*
X98777238Y-103405264D01*
X98792315Y-103441662D01*
X98800000Y-103480300D01*
X98800000Y-103519700D01*
X98792315Y-103558338D01*
X98777238Y-103594736D01*
X98755354Y-103627488D01*
X98755352Y-103627490D01*
X98755350Y-103627493D01*
X98727493Y-103655350D01*
X98727490Y-103655352D01*
X98727488Y-103655354D01*
X98694736Y-103677238D01*
X98658338Y-103692315D01*
X98619700Y-103700000D01*
X98580300Y-103700000D01*
X98541662Y-103692315D01*
X98505264Y-103677238D01*
X98472512Y-103655354D01*
X98472510Y-103655352D01*
X98472507Y-103655350D01*
X98444650Y-103627493D01*
X98444648Y-103627490D01*
X98444646Y-103627488D01*
X98422762Y-103594736D01*
X98407685Y-103558338D01*
X98400000Y-103519700D01*
X98400000Y-103480300D01*
X98407685Y-103441662D01*
X98422762Y-103405264D01*
X98444646Y-103372512D01*
X98444648Y-103372510D01*
X98444650Y-103372507D01*
X98472507Y-103344650D01*
X98472510Y-103344648D01*
X98472512Y-103344646D01*
X98505264Y-103322762D01*
X98541662Y-103307685D01*
X98580300Y-103300000D01*
X98619700Y-103300000D01*
X98658338Y-103307685D01*
G37*
G36*
X98058338Y-103307685D02*
G01*
X98094736Y-103322762D01*
X98127488Y-103344646D01*
X98127490Y-103344648D01*
X98127493Y-103344650D01*
X98155350Y-103372507D01*
X98155352Y-103372510D01*
X98155354Y-103372512D01*
X98177238Y-103405264D01*
X98192315Y-103441662D01*
X98200000Y-103480300D01*
X98200000Y-103519700D01*
X98192315Y-103558338D01*
X98177238Y-103594736D01*
X98155354Y-103627488D01*
X98155352Y-103627490D01*
X98155350Y-103627493D01*
X98127493Y-103655350D01*
X98127490Y-103655352D01*
X98127488Y-103655354D01*
X98094736Y-103677238D01*
X98058338Y-103692315D01*
X98019700Y-103700000D01*
X97980300Y-103700000D01*
X97941662Y-103692315D01*
X97905264Y-103677238D01*
X97872512Y-103655354D01*
X97872510Y-103655352D01*
X97872507Y-103655350D01*
X97844650Y-103627493D01*
X97844648Y-103627490D01*
X97844646Y-103627488D01*
X97822762Y-103594736D01*
X97807685Y-103558338D01*
X97800000Y-103519700D01*
X97800000Y-103480300D01*
X97807685Y-103441662D01*
X97822762Y-103405264D01*
X97844646Y-103372512D01*
X97844648Y-103372510D01*
X97844650Y-103372507D01*
X97872507Y-103344650D01*
X97872510Y-103344648D01*
X97872512Y-103344646D01*
X97905264Y-103322762D01*
X97941662Y-103307685D01*
X97980300Y-103300000D01*
X98019700Y-103300000D01*
X98058338Y-103307685D01*
G37*
G36*
X97458338Y-103307685D02*
G01*
X97494736Y-103322762D01*
X97527488Y-103344646D01*
X97527490Y-103344648D01*
X97527493Y-103344650D01*
X97555350Y-103372507D01*
X97555352Y-103372510D01*
X97555354Y-103372512D01*
X97577238Y-103405264D01*
X97592315Y-103441662D01*
X97600000Y-103480300D01*
X97600000Y-103519700D01*
X97592315Y-103558338D01*
X97577238Y-103594736D01*
X97555354Y-103627488D01*
X97555352Y-103627490D01*
X97555350Y-103627493D01*
X97527493Y-103655350D01*
X97527490Y-103655352D01*
X97527488Y-103655354D01*
X97494736Y-103677238D01*
X97458338Y-103692315D01*
X97419700Y-103700000D01*
X97380300Y-103700000D01*
X97341662Y-103692315D01*
X97305264Y-103677238D01*
X97272512Y-103655354D01*
X97272510Y-103655352D01*
X97272507Y-103655350D01*
X97244650Y-103627493D01*
X97244648Y-103627490D01*
X97244646Y-103627488D01*
X97222762Y-103594736D01*
X97207685Y-103558338D01*
X97200000Y-103519700D01*
X97200000Y-103480300D01*
X97207685Y-103441662D01*
X97222762Y-103405264D01*
X97244646Y-103372512D01*
X97244648Y-103372510D01*
X97244650Y-103372507D01*
X97272507Y-103344650D01*
X97272510Y-103344648D01*
X97272512Y-103344646D01*
X97305264Y-103322762D01*
X97341662Y-103307685D01*
X97380300Y-103300000D01*
X97419700Y-103300000D01*
X97458338Y-103307685D01*
G37*
G36*
X95058338Y-103307685D02*
G01*
X95094736Y-103322762D01*
X95127488Y-103344646D01*
X95127490Y-103344648D01*
X95127493Y-103344650D01*
X95155350Y-103372507D01*
X95155352Y-103372510D01*
X95155354Y-103372512D01*
X95177238Y-103405264D01*
X95192315Y-103441662D01*
X95200000Y-103480300D01*
X95200000Y-103519700D01*
X95192315Y-103558338D01*
X95177238Y-103594736D01*
X95155354Y-103627488D01*
X95155352Y-103627490D01*
X95155350Y-103627493D01*
X95127493Y-103655350D01*
X95127490Y-103655352D01*
X95127488Y-103655354D01*
X95094736Y-103677238D01*
X95058338Y-103692315D01*
X95019700Y-103700000D01*
X94980300Y-103700000D01*
X94941662Y-103692315D01*
X94905264Y-103677238D01*
X94872512Y-103655354D01*
X94872510Y-103655352D01*
X94872507Y-103655350D01*
X94844650Y-103627493D01*
X94844648Y-103627490D01*
X94844646Y-103627488D01*
X94822762Y-103594736D01*
X94807685Y-103558338D01*
X94800000Y-103519700D01*
X94800000Y-103480300D01*
X94807685Y-103441662D01*
X94822762Y-103405264D01*
X94844646Y-103372512D01*
X94844648Y-103372510D01*
X94844650Y-103372507D01*
X94872507Y-103344650D01*
X94872510Y-103344648D01*
X94872512Y-103344646D01*
X94905264Y-103322762D01*
X94941662Y-103307685D01*
X94980300Y-103300000D01*
X95019700Y-103300000D01*
X95058338Y-103307685D01*
G37*
G36*
X95658338Y-103307685D02*
G01*
X95694736Y-103322762D01*
X95727488Y-103344646D01*
X95727490Y-103344648D01*
X95727493Y-103344650D01*
X95755350Y-103372507D01*
X95755352Y-103372510D01*
X95755354Y-103372512D01*
X95777238Y-103405264D01*
X95792315Y-103441662D01*
X95800000Y-103480300D01*
X95800000Y-103519700D01*
X95792315Y-103558338D01*
X95777238Y-103594736D01*
X95755354Y-103627488D01*
X95755352Y-103627490D01*
X95755350Y-103627493D01*
X95727493Y-103655350D01*
X95727490Y-103655352D01*
X95727488Y-103655354D01*
X95694736Y-103677238D01*
X95658338Y-103692315D01*
X95619700Y-103700000D01*
X95580300Y-103700000D01*
X95541662Y-103692315D01*
X95505264Y-103677238D01*
X95472512Y-103655354D01*
X95472510Y-103655352D01*
X95472507Y-103655350D01*
X95444650Y-103627493D01*
X95444648Y-103627490D01*
X95444646Y-103627488D01*
X95422762Y-103594736D01*
X95407685Y-103558338D01*
X95400000Y-103519700D01*
X95400000Y-103480300D01*
X95407685Y-103441662D01*
X95422762Y-103405264D01*
X95444646Y-103372512D01*
X95444648Y-103372510D01*
X95444650Y-103372507D01*
X95472507Y-103344650D01*
X95472510Y-103344648D01*
X95472512Y-103344646D01*
X95505264Y-103322762D01*
X95541662Y-103307685D01*
X95580300Y-103300000D01*
X95619700Y-103300000D01*
X95658338Y-103307685D01*
G37*
G36*
X96258338Y-103307685D02*
G01*
X96294736Y-103322762D01*
X96327488Y-103344646D01*
X96327490Y-103344648D01*
X96327493Y-103344650D01*
X96355350Y-103372507D01*
X96355352Y-103372510D01*
X96355354Y-103372512D01*
X96377238Y-103405264D01*
X96392315Y-103441662D01*
X96400000Y-103480300D01*
X96400000Y-103519700D01*
X96392315Y-103558338D01*
X96377238Y-103594736D01*
X96355354Y-103627488D01*
X96355352Y-103627490D01*
X96355350Y-103627493D01*
X96327493Y-103655350D01*
X96327490Y-103655352D01*
X96327488Y-103655354D01*
X96294736Y-103677238D01*
X96258338Y-103692315D01*
X96219700Y-103700000D01*
X96180300Y-103700000D01*
X96141662Y-103692315D01*
X96105264Y-103677238D01*
X96072512Y-103655354D01*
X96072510Y-103655352D01*
X96072507Y-103655350D01*
X96044650Y-103627493D01*
X96044648Y-103627490D01*
X96044646Y-103627488D01*
X96022762Y-103594736D01*
X96007685Y-103558338D01*
X96000000Y-103519700D01*
X96000000Y-103480300D01*
X96007685Y-103441662D01*
X96022762Y-103405264D01*
X96044646Y-103372512D01*
X96044648Y-103372510D01*
X96044650Y-103372507D01*
X96072507Y-103344650D01*
X96072510Y-103344648D01*
X96072512Y-103344646D01*
X96105264Y-103322762D01*
X96141662Y-103307685D01*
X96180300Y-103300000D01*
X96219700Y-103300000D01*
X96258338Y-103307685D01*
G37*
G36*
X96858338Y-103307685D02*
G01*
X96894736Y-103322762D01*
X96927488Y-103344646D01*
X96927490Y-103344648D01*
X96927493Y-103344650D01*
X96955350Y-103372507D01*
X96955352Y-103372510D01*
X96955354Y-103372512D01*
X96977238Y-103405264D01*
X96992315Y-103441662D01*
X97000000Y-103480300D01*
X97000000Y-103519700D01*
X96992315Y-103558338D01*
X96977238Y-103594736D01*
X96955354Y-103627488D01*
X96955352Y-103627490D01*
X96955350Y-103627493D01*
X96927493Y-103655350D01*
X96927490Y-103655352D01*
X96927488Y-103655354D01*
X96894736Y-103677238D01*
X96858338Y-103692315D01*
X96819700Y-103700000D01*
X96780300Y-103700000D01*
X96741662Y-103692315D01*
X96705264Y-103677238D01*
X96672512Y-103655354D01*
X96672510Y-103655352D01*
X96672507Y-103655350D01*
X96644650Y-103627493D01*
X96644648Y-103627490D01*
X96644646Y-103627488D01*
X96622762Y-103594736D01*
X96607685Y-103558338D01*
X96600000Y-103519700D01*
X96600000Y-103480300D01*
X96607685Y-103441662D01*
X96622762Y-103405264D01*
X96644646Y-103372512D01*
X96644648Y-103372510D01*
X96644650Y-103372507D01*
X96672507Y-103344650D01*
X96672510Y-103344648D01*
X96672512Y-103344646D01*
X96705264Y-103322762D01*
X96741662Y-103307685D01*
X96780300Y-103300000D01*
X96819700Y-103300000D01*
X96858338Y-103307685D01*
G37*
G36*
X98531832Y-99110495D02*
G01*
X98583351Y-99120743D01*
X98643656Y-99145722D01*
X98728941Y-99181048D01*
X98859969Y-99268598D01*
X98971402Y-99380031D01*
X99058952Y-99511059D01*
X99119257Y-99656650D01*
X99150000Y-99811205D01*
X99150000Y-99968795D01*
X99119257Y-100123350D01*
X99058952Y-100268941D01*
X98971402Y-100399969D01*
X98859969Y-100511402D01*
X98728941Y-100598952D01*
X98643656Y-100634278D01*
X98583351Y-100659257D01*
X98531832Y-100669505D01*
X98428795Y-100690000D01*
X98271205Y-100690000D01*
X98168168Y-100669505D01*
X98116649Y-100659257D01*
X98056344Y-100634278D01*
X97971059Y-100598952D01*
X97840031Y-100511402D01*
X97728598Y-100399969D01*
X97641048Y-100268941D01*
X97580743Y-100123350D01*
X97550000Y-99968795D01*
X97550000Y-99811205D01*
X97580743Y-99656650D01*
X97641048Y-99511059D01*
X97728598Y-99380031D01*
X97840031Y-99268598D01*
X97971059Y-99181048D01*
X98056344Y-99145722D01*
X98116649Y-99120743D01*
X98168168Y-99110495D01*
X98271205Y-99090000D01*
X98428795Y-99090000D01*
X98531832Y-99110495D01*
G37*
G36*
X85831832Y-99110495D02*
G01*
X85883351Y-99120743D01*
X85943656Y-99145722D01*
X86028941Y-99181048D01*
X86159969Y-99268598D01*
X86271402Y-99380031D01*
X86358952Y-99511059D01*
X86419257Y-99656650D01*
X86450000Y-99811205D01*
X86450000Y-99968795D01*
X86419257Y-100123350D01*
X86358952Y-100268941D01*
X86271402Y-100399969D01*
X86159969Y-100511402D01*
X86028941Y-100598952D01*
X85943656Y-100634278D01*
X85883351Y-100659257D01*
X85831832Y-100669505D01*
X85728795Y-100690000D01*
X85571205Y-100690000D01*
X85468168Y-100669505D01*
X85416649Y-100659257D01*
X85356344Y-100634278D01*
X85271059Y-100598952D01*
X85140031Y-100511402D01*
X85028598Y-100399969D01*
X84941048Y-100268941D01*
X84880743Y-100123350D01*
X84850000Y-99968795D01*
X84850000Y-99811205D01*
X84880743Y-99656650D01*
X84941048Y-99511059D01*
X85028598Y-99380031D01*
X85140031Y-99268598D01*
X85271059Y-99181048D01*
X85356344Y-99145722D01*
X85416649Y-99120743D01*
X85468168Y-99110495D01*
X85571205Y-99090000D01*
X85728795Y-99090000D01*
X85831832Y-99110495D01*
G37*
G36*
X99019153Y-96553359D02*
G01*
X99049595Y-96562594D01*
X99077643Y-96577586D01*
X99102233Y-96597767D01*
X99122414Y-96622357D01*
X99137406Y-96650405D01*
X99146641Y-96680847D01*
X99150000Y-96714954D01*
X99150000Y-97985046D01*
X99146641Y-98019153D01*
X99137406Y-98049595D01*
X99122414Y-98077643D01*
X99102233Y-98102233D01*
X99077643Y-98122414D01*
X99049595Y-98137406D01*
X99019153Y-98146641D01*
X98985046Y-98150000D01*
X97714954Y-98150000D01*
X97680847Y-98146641D01*
X97650405Y-98137406D01*
X97622357Y-98122414D01*
X97597767Y-98102233D01*
X97577586Y-98077643D01*
X97562594Y-98049595D01*
X97553359Y-98019153D01*
X97550000Y-97985046D01*
X97550000Y-96714954D01*
X97553359Y-96680847D01*
X97562594Y-96650405D01*
X97577586Y-96622357D01*
X97597767Y-96597767D01*
X97622357Y-96577586D01*
X97650405Y-96562594D01*
X97680847Y-96553359D01*
X97714954Y-96550000D01*
X98985046Y-96550000D01*
X99019153Y-96553359D01*
G37*
G36*
X86319153Y-96553359D02*
G01*
X86349595Y-96562594D01*
X86377643Y-96577586D01*
X86402233Y-96597767D01*
X86422414Y-96622357D01*
X86437406Y-96650405D01*
X86446641Y-96680847D01*
X86450000Y-96714954D01*
X86450000Y-97985046D01*
X86446641Y-98019153D01*
X86437406Y-98049595D01*
X86422414Y-98077643D01*
X86402233Y-98102233D01*
X86377643Y-98122414D01*
X86349595Y-98137406D01*
X86319153Y-98146641D01*
X86285046Y-98150000D01*
X85014954Y-98150000D01*
X84980847Y-98146641D01*
X84950405Y-98137406D01*
X84922357Y-98122414D01*
X84897767Y-98102233D01*
X84877586Y-98077643D01*
X84862594Y-98049595D01*
X84853359Y-98019153D01*
X84850000Y-97985046D01*
X84850000Y-96714954D01*
X84853359Y-96680847D01*
X84862594Y-96650405D01*
X84877586Y-96622357D01*
X84897767Y-96597767D01*
X84922357Y-96577586D01*
X84950405Y-96562594D01*
X84980847Y-96553359D01*
X85014954Y-96550000D01*
X86285046Y-96550000D01*
X86319153Y-96553359D01*
G37*
G36*
X90497559Y-94379759D02*
G01*
X90502458Y-94380000D01*
X91550000Y-94380000D01*
X91550000Y-95880000D01*
X90502443Y-95880000D01*
X90497554Y-95880242D01*
X89502451Y-95880242D01*
X89500002Y-95880001D01*
X89500000Y-95880000D01*
X89500000Y-95879999D01*
X89499999Y-95879998D01*
X89499758Y-95877549D01*
X89499758Y-94382451D01*
X89499999Y-94380002D01*
X89500000Y-94380000D01*
X89500002Y-94379999D01*
X89502451Y-94379758D01*
X90497549Y-94379758D01*
X90497559Y-94379759D01*
G37*
G36*
X94499998Y-94379999D02*
G01*
X94499999Y-94380000D01*
X94500000Y-94380000D01*
X94500001Y-94380002D01*
X94500242Y-94382451D01*
X94500242Y-95877549D01*
X94500001Y-95879998D01*
X94500000Y-95879999D01*
X94500000Y-95880000D01*
X94499999Y-95880001D01*
X94499998Y-95880001D01*
X94497549Y-95880242D01*
X93502451Y-95880242D01*
X93502441Y-95880241D01*
X93497542Y-95880000D01*
X92450000Y-95880000D01*
X92450000Y-94380000D01*
X93497557Y-94380000D01*
X93502446Y-94379758D01*
X94497549Y-94379758D01*
X94499998Y-94379999D01*
G37*
G36*
X98531832Y-94030495D02*
G01*
X98583351Y-94040743D01*
X98643656Y-94065722D01*
X98728941Y-94101048D01*
X98859969Y-94188598D01*
X98971402Y-94300031D01*
X99058952Y-94431059D01*
X99119257Y-94576650D01*
X99150000Y-94731205D01*
X99150000Y-94888795D01*
X99119257Y-95043350D01*
X99058952Y-95188941D01*
X98971402Y-95319969D01*
X98859969Y-95431402D01*
X98728941Y-95518952D01*
X98643656Y-95554278D01*
X98583351Y-95579257D01*
X98531832Y-95589505D01*
X98428795Y-95610000D01*
X98271205Y-95610000D01*
X98168168Y-95589505D01*
X98116649Y-95579257D01*
X98056344Y-95554278D01*
X97971059Y-95518952D01*
X97840031Y-95431402D01*
X97728598Y-95319969D01*
X97641048Y-95188941D01*
X97580743Y-95043350D01*
X97550000Y-94888795D01*
X97550000Y-94731205D01*
X97580743Y-94576650D01*
X97641048Y-94431059D01*
X97728598Y-94300031D01*
X97840031Y-94188598D01*
X97971059Y-94101048D01*
X98056344Y-94065722D01*
X98116649Y-94040743D01*
X98168168Y-94030495D01*
X98271205Y-94010000D01*
X98428795Y-94010000D01*
X98531832Y-94030495D01*
G37*
G36*
X85831832Y-94030495D02*
G01*
X85883351Y-94040743D01*
X85943656Y-94065722D01*
X86028941Y-94101048D01*
X86159969Y-94188598D01*
X86271402Y-94300031D01*
X86358952Y-94431059D01*
X86419257Y-94576650D01*
X86450000Y-94731205D01*
X86450000Y-94888795D01*
X86419257Y-95043350D01*
X86358952Y-95188941D01*
X86271402Y-95319969D01*
X86159969Y-95431402D01*
X86028941Y-95518952D01*
X85943656Y-95554278D01*
X85883351Y-95579257D01*
X85831832Y-95589505D01*
X85728795Y-95610000D01*
X85571205Y-95610000D01*
X85468168Y-95589505D01*
X85416649Y-95579257D01*
X85356344Y-95554278D01*
X85271059Y-95518952D01*
X85140031Y-95431402D01*
X85028598Y-95319969D01*
X84941048Y-95188941D01*
X84880743Y-95043350D01*
X84850000Y-94888795D01*
X84850000Y-94731205D01*
X84880743Y-94576650D01*
X84941048Y-94431059D01*
X85028598Y-94300031D01*
X85140031Y-94188598D01*
X85271059Y-94101048D01*
X85356344Y-94065722D01*
X85416649Y-94040743D01*
X85468168Y-94030495D01*
X85571205Y-94010000D01*
X85728795Y-94010000D01*
X85831832Y-94030495D01*
G37*
G36*
X98531832Y-91490495D02*
G01*
X98583351Y-91500743D01*
X98643656Y-91525722D01*
X98728941Y-91561048D01*
X98859969Y-91648598D01*
X98971402Y-91760031D01*
X99058952Y-91891059D01*
X99119257Y-92036650D01*
X99150000Y-92191205D01*
X99150000Y-92348795D01*
X99119257Y-92503350D01*
X99058952Y-92648941D01*
X98971402Y-92779969D01*
X98859969Y-92891402D01*
X98728941Y-92978952D01*
X98643656Y-93014278D01*
X98583351Y-93039257D01*
X98531832Y-93049505D01*
X98428795Y-93070000D01*
X98271205Y-93070000D01*
X98168168Y-93049505D01*
X98116649Y-93039257D01*
X98056344Y-93014278D01*
X97971059Y-92978952D01*
X97840031Y-92891402D01*
X97728598Y-92779969D01*
X97641048Y-92648941D01*
X97580743Y-92503350D01*
X97550000Y-92348795D01*
X97550000Y-92191205D01*
X97580743Y-92036650D01*
X97641048Y-91891059D01*
X97728598Y-91760031D01*
X97840031Y-91648598D01*
X97971059Y-91561048D01*
X98056344Y-91525722D01*
X98116649Y-91500743D01*
X98168168Y-91490495D01*
X98271205Y-91470000D01*
X98428795Y-91470000D01*
X98531832Y-91490495D01*
G37*
G36*
X85831832Y-91490495D02*
G01*
X85883351Y-91500743D01*
X85943656Y-91525722D01*
X86028941Y-91561048D01*
X86159969Y-91648598D01*
X86271402Y-91760031D01*
X86358952Y-91891059D01*
X86419257Y-92036650D01*
X86450000Y-92191205D01*
X86450000Y-92348795D01*
X86419257Y-92503350D01*
X86358952Y-92648941D01*
X86271402Y-92779969D01*
X86159969Y-92891402D01*
X86028941Y-92978952D01*
X85943656Y-93014278D01*
X85883351Y-93039257D01*
X85831832Y-93049505D01*
X85728795Y-93070000D01*
X85571205Y-93070000D01*
X85468168Y-93049505D01*
X85416649Y-93039257D01*
X85356344Y-93014278D01*
X85271059Y-92978952D01*
X85140031Y-92891402D01*
X85028598Y-92779969D01*
X84941048Y-92648941D01*
X84880743Y-92503350D01*
X84850000Y-92348795D01*
X84850000Y-92191205D01*
X84880743Y-92036650D01*
X84941048Y-91891059D01*
X85028598Y-91760031D01*
X85140031Y-91648598D01*
X85271059Y-91561048D01*
X85356344Y-91525722D01*
X85416649Y-91500743D01*
X85468168Y-91490495D01*
X85571205Y-91470000D01*
X85728795Y-91470000D01*
X85831832Y-91490495D01*
G37*
G36*
X90497559Y-90569759D02*
G01*
X90502458Y-90570000D01*
X91550000Y-90570000D01*
X91550000Y-92070000D01*
X90502443Y-92070000D01*
X90497554Y-92070242D01*
X89502451Y-92070242D01*
X89500002Y-92070001D01*
X89500000Y-92070000D01*
X89500000Y-92069999D01*
X89499999Y-92069998D01*
X89499758Y-92067549D01*
X89499758Y-90572451D01*
X89499999Y-90570002D01*
X89500000Y-90570000D01*
X89500002Y-90569999D01*
X89502451Y-90569758D01*
X90497549Y-90569758D01*
X90497559Y-90569759D01*
G37*
G36*
X94499998Y-90569999D02*
G01*
X94499999Y-90570000D01*
X94500000Y-90570000D01*
X94500001Y-90570002D01*
X94500242Y-90572451D01*
X94500242Y-92067549D01*
X94500001Y-92069998D01*
X94500000Y-92069999D01*
X94500000Y-92070000D01*
X94499999Y-92070001D01*
X94499998Y-92070001D01*
X94497549Y-92070242D01*
X93502451Y-92070242D01*
X93502441Y-92070241D01*
X93497542Y-92070000D01*
X92450000Y-92070000D01*
X92450000Y-90570000D01*
X93497557Y-90570000D01*
X93502446Y-90569758D01*
X94497549Y-90569758D01*
X94499998Y-90569999D01*
G37*
G36*
X85831832Y-88950495D02*
G01*
X85883351Y-88960743D01*
X85943656Y-88985722D01*
X86028941Y-89021048D01*
X86159969Y-89108598D01*
X86271402Y-89220031D01*
X86358952Y-89351059D01*
X86419257Y-89496650D01*
X86450000Y-89651205D01*
X86450000Y-89808795D01*
X86419257Y-89963350D01*
X86358952Y-90108941D01*
X86271402Y-90239969D01*
X86159969Y-90351402D01*
X86028941Y-90438952D01*
X85943656Y-90474278D01*
X85883351Y-90499257D01*
X85831832Y-90509505D01*
X85728795Y-90530000D01*
X85571205Y-90530000D01*
X85468168Y-90509505D01*
X85416649Y-90499257D01*
X85356344Y-90474278D01*
X85271059Y-90438952D01*
X85140031Y-90351402D01*
X85028598Y-90239969D01*
X84941048Y-90108941D01*
X84880743Y-89963350D01*
X84850000Y-89808795D01*
X84850000Y-89651205D01*
X84880743Y-89496650D01*
X84941048Y-89351059D01*
X85028598Y-89220031D01*
X85140031Y-89108598D01*
X85271059Y-89021048D01*
X85356344Y-88985722D01*
X85416649Y-88960743D01*
X85468168Y-88950495D01*
X85571205Y-88930000D01*
X85728795Y-88930000D01*
X85831832Y-88950495D01*
G37*
G36*
X98531832Y-88950495D02*
G01*
X98583351Y-88960743D01*
X98643656Y-88985722D01*
X98728941Y-89021048D01*
X98859969Y-89108598D01*
X98971402Y-89220031D01*
X99058952Y-89351059D01*
X99119257Y-89496650D01*
X99150000Y-89651205D01*
X99150000Y-89808795D01*
X99119257Y-89963350D01*
X99058952Y-90108941D01*
X98971402Y-90239969D01*
X98859969Y-90351402D01*
X98728941Y-90438952D01*
X98643656Y-90474278D01*
X98583351Y-90499257D01*
X98531832Y-90509505D01*
X98428795Y-90530000D01*
X98271205Y-90530000D01*
X98168168Y-90509505D01*
X98116649Y-90499257D01*
X98056344Y-90474278D01*
X97971059Y-90438952D01*
X97840031Y-90351402D01*
X97728598Y-90239969D01*
X97641048Y-90108941D01*
X97580743Y-89963350D01*
X97550000Y-89808795D01*
X97550000Y-89651205D01*
X97580743Y-89496650D01*
X97641048Y-89351059D01*
X97728598Y-89220031D01*
X97840031Y-89108598D01*
X97971059Y-89021048D01*
X98056344Y-88985722D01*
X98116649Y-88960743D01*
X98168168Y-88950495D01*
X98271205Y-88930000D01*
X98428795Y-88930000D01*
X98531832Y-88950495D01*
G37*
G36*
X90497559Y-86759759D02*
G01*
X90502458Y-86760000D01*
X91550000Y-86760000D01*
X91550000Y-88260000D01*
X90502443Y-88260000D01*
X90497554Y-88260242D01*
X89502451Y-88260242D01*
X89500002Y-88260001D01*
X89500001Y-88260000D01*
X89500000Y-88260000D01*
X89500000Y-88259999D01*
X89499999Y-88259998D01*
X89499758Y-88257549D01*
X89499758Y-86762451D01*
X89499999Y-86760002D01*
X89500000Y-86760000D01*
X89500002Y-86759999D01*
X89502451Y-86759758D01*
X90497549Y-86759758D01*
X90497559Y-86759759D01*
G37*
G36*
X94499998Y-86759999D02*
G01*
X94499999Y-86760000D01*
X94500000Y-86760000D01*
X94500001Y-86760002D01*
X94500242Y-86762451D01*
X94500242Y-88257549D01*
X94500001Y-88259998D01*
X94500001Y-88259999D01*
X94500000Y-88260000D01*
X94499999Y-88260000D01*
X94499998Y-88260001D01*
X94497549Y-88260242D01*
X93502451Y-88260242D01*
X93502441Y-88260241D01*
X93497542Y-88260000D01*
X92450000Y-88260000D01*
X92450000Y-86760000D01*
X93497557Y-86760000D01*
X93502446Y-86759758D01*
X94497549Y-86759758D01*
X94499998Y-86759999D01*
G37*
G36*
X98531832Y-86410495D02*
G01*
X98583351Y-86420743D01*
X98643656Y-86445722D01*
X98728941Y-86481048D01*
X98859969Y-86568598D01*
X98971402Y-86680031D01*
X99058952Y-86811059D01*
X99119257Y-86956650D01*
X99150000Y-87111205D01*
X99150000Y-87268795D01*
X99119257Y-87423350D01*
X99058952Y-87568941D01*
X98971402Y-87699969D01*
X98859969Y-87811402D01*
X98728941Y-87898952D01*
X98643656Y-87934278D01*
X98583351Y-87959257D01*
X98531832Y-87969505D01*
X98428795Y-87990000D01*
X98271205Y-87990000D01*
X98168168Y-87969505D01*
X98116649Y-87959257D01*
X98056344Y-87934278D01*
X97971059Y-87898952D01*
X97840031Y-87811402D01*
X97728598Y-87699969D01*
X97641048Y-87568941D01*
X97580743Y-87423350D01*
X97550000Y-87268795D01*
X97550000Y-87111205D01*
X97580743Y-86956650D01*
X97641048Y-86811059D01*
X97728598Y-86680031D01*
X97840031Y-86568598D01*
X97971059Y-86481048D01*
X98056344Y-86445722D01*
X98116649Y-86420743D01*
X98168168Y-86410495D01*
X98271205Y-86390000D01*
X98428795Y-86390000D01*
X98531832Y-86410495D01*
G37*
G36*
X85831832Y-86410495D02*
G01*
X85883351Y-86420743D01*
X85943656Y-86445722D01*
X86028941Y-86481048D01*
X86159969Y-86568598D01*
X86271402Y-86680031D01*
X86358952Y-86811059D01*
X86419257Y-86956650D01*
X86450000Y-87111205D01*
X86450000Y-87268795D01*
X86419257Y-87423350D01*
X86358952Y-87568941D01*
X86271402Y-87699969D01*
X86159969Y-87811402D01*
X86028941Y-87898952D01*
X85943656Y-87934278D01*
X85883351Y-87959257D01*
X85831832Y-87969505D01*
X85728795Y-87990000D01*
X85571205Y-87990000D01*
X85468168Y-87969505D01*
X85416649Y-87959257D01*
X85356344Y-87934278D01*
X85271059Y-87898952D01*
X85140031Y-87811402D01*
X85028598Y-87699969D01*
X84941048Y-87568941D01*
X84880743Y-87423350D01*
X84850000Y-87268795D01*
X84850000Y-87111205D01*
X84880743Y-86956650D01*
X84941048Y-86811059D01*
X85028598Y-86680031D01*
X85140031Y-86568598D01*
X85271059Y-86481048D01*
X85356344Y-86445722D01*
X85416649Y-86420743D01*
X85468168Y-86410495D01*
X85571205Y-86390000D01*
X85728795Y-86390000D01*
X85831832Y-86410495D01*
G37*
G36*
X98531832Y-83870495D02*
G01*
X98583351Y-83880743D01*
X98643656Y-83905722D01*
X98728941Y-83941048D01*
X98859969Y-84028598D01*
X98971402Y-84140031D01*
X99058952Y-84271059D01*
X99119257Y-84416650D01*
X99150000Y-84571205D01*
X99150000Y-84728795D01*
X99119257Y-84883350D01*
X99058952Y-85028941D01*
X98971402Y-85159969D01*
X98859969Y-85271402D01*
X98728941Y-85358952D01*
X98643656Y-85394278D01*
X98583351Y-85419257D01*
X98531832Y-85429505D01*
X98428795Y-85450000D01*
X98271205Y-85450000D01*
X98168168Y-85429505D01*
X98116649Y-85419257D01*
X98056344Y-85394278D01*
X97971059Y-85358952D01*
X97840031Y-85271402D01*
X97728598Y-85159969D01*
X97641048Y-85028941D01*
X97580743Y-84883350D01*
X97550000Y-84728795D01*
X97550000Y-84571205D01*
X97580743Y-84416650D01*
X97641048Y-84271059D01*
X97728598Y-84140031D01*
X97840031Y-84028598D01*
X97971059Y-83941048D01*
X98056344Y-83905722D01*
X98116649Y-83880743D01*
X98168168Y-83870495D01*
X98271205Y-83850000D01*
X98428795Y-83850000D01*
X98531832Y-83870495D01*
G37*
G36*
X85831832Y-83870495D02*
G01*
X85883351Y-83880743D01*
X85943656Y-83905722D01*
X86028941Y-83941048D01*
X86159969Y-84028598D01*
X86271402Y-84140031D01*
X86358952Y-84271059D01*
X86419257Y-84416650D01*
X86450000Y-84571205D01*
X86450000Y-84728795D01*
X86419257Y-84883350D01*
X86358952Y-85028941D01*
X86271402Y-85159969D01*
X86159969Y-85271402D01*
X86028941Y-85358952D01*
X85943656Y-85394278D01*
X85883351Y-85419257D01*
X85831832Y-85429505D01*
X85728795Y-85450000D01*
X85571205Y-85450000D01*
X85468168Y-85429505D01*
X85416649Y-85419257D01*
X85356344Y-85394278D01*
X85271059Y-85358952D01*
X85140031Y-85271402D01*
X85028598Y-85159969D01*
X84941048Y-85028941D01*
X84880743Y-84883350D01*
X84850000Y-84728795D01*
X84850000Y-84571205D01*
X84880743Y-84416650D01*
X84941048Y-84271059D01*
X85028598Y-84140031D01*
X85140031Y-84028598D01*
X85271059Y-83941048D01*
X85356344Y-83905722D01*
X85416649Y-83880743D01*
X85468168Y-83870495D01*
X85571205Y-83850000D01*
X85728795Y-83850000D01*
X85831832Y-83870495D01*
G37*
G36*
X99019153Y-81313359D02*
G01*
X99049595Y-81322594D01*
X99077643Y-81337586D01*
X99102233Y-81357767D01*
X99122414Y-81382357D01*
X99137406Y-81410405D01*
X99146641Y-81440847D01*
X99150000Y-81474954D01*
X99150000Y-82745046D01*
X99146641Y-82779153D01*
X99137406Y-82809595D01*
X99122414Y-82837643D01*
X99102233Y-82862233D01*
X99077643Y-82882414D01*
X99049595Y-82897406D01*
X99019153Y-82906641D01*
X98985046Y-82910000D01*
X97714954Y-82910000D01*
X97680847Y-82906641D01*
X97650405Y-82897406D01*
X97622357Y-82882414D01*
X97597767Y-82862233D01*
X97577586Y-82837643D01*
X97562594Y-82809595D01*
X97553359Y-82779153D01*
X97550000Y-82745046D01*
X97550000Y-81474954D01*
X97553359Y-81440847D01*
X97562594Y-81410405D01*
X97577586Y-81382357D01*
X97597767Y-81357767D01*
X97622357Y-81337586D01*
X97650405Y-81322594D01*
X97680847Y-81313359D01*
X97714954Y-81310000D01*
X98985046Y-81310000D01*
X99019153Y-81313359D01*
G37*
G36*
X86319153Y-81313359D02*
G01*
X86349595Y-81322594D01*
X86377643Y-81337586D01*
X86402233Y-81357767D01*
X86422414Y-81382357D01*
X86437406Y-81410405D01*
X86446641Y-81440847D01*
X86450000Y-81474954D01*
X86450000Y-82745046D01*
X86446641Y-82779153D01*
X86437406Y-82809595D01*
X86422414Y-82837643D01*
X86402233Y-82862233D01*
X86377643Y-82882414D01*
X86349595Y-82897406D01*
X86319153Y-82906641D01*
X86285046Y-82910000D01*
X85014954Y-82910000D01*
X84980847Y-82906641D01*
X84950405Y-82897406D01*
X84922357Y-82882414D01*
X84897767Y-82862233D01*
X84877586Y-82837643D01*
X84862594Y-82809595D01*
X84853359Y-82779153D01*
X84850000Y-82745046D01*
X84850000Y-81474954D01*
X84853359Y-81440847D01*
X84862594Y-81410405D01*
X84877586Y-81382357D01*
X84897767Y-81357767D01*
X84922357Y-81337586D01*
X84950405Y-81322594D01*
X84980847Y-81313359D01*
X85014954Y-81310000D01*
X86285046Y-81310000D01*
X86319153Y-81313359D01*
G37*
M02*
