G04 #@! TF.GenerationSoftware,KiCad,Pcbnew,(5.1.5-0-10_14)*
G04 #@! TF.CreationDate,2020-04-13T12:38:15+03:00*
G04 #@! TF.ProjectId,npa700-breakout-b1,6e706137-3030-42d6-9272-65616b6f7574,rev?*
G04 #@! TF.SameCoordinates,Original*
G04 #@! TF.FileFunction,Copper,L2,Bot*
G04 #@! TF.FilePolarity,Positive*
%FSLAX46Y46*%
G04 Gerber Fmt 4.6, Leading zero omitted, Abs format (unit mm)*
G04 Created by KiCad (PCBNEW (5.1.5-0-10_14)) date 2020-04-13 12:38:15*
%MOMM*%
%LPD*%
G04 APERTURE LIST*
%ADD10C,0.010000*%
%ADD11O,1.600000X1.600000*%
%ADD12C,0.100000*%
%ADD13C,5.500000*%
%ADD14C,0.700000*%
%ADD15C,0.600000*%
%ADD16C,0.250000*%
G04 APERTURE END LIST*
D10*
X83250001Y-111000000D02*
X83250000Y-78490000D01*
X100750000Y-78490000D02*
X100749999Y-111000000D01*
X100750000Y-78490000D02*
X83250000Y-78490000D01*
X100749999Y-111000000D02*
X83250001Y-111000000D01*
D11*
X85650000Y-99890000D03*
G04 #@! TA.AperFunction,SMDPad,CuDef*
D12*
G36*
X86269603Y-96550963D02*
G01*
X86289018Y-96553843D01*
X86308057Y-96558612D01*
X86326537Y-96565224D01*
X86344279Y-96573616D01*
X86361114Y-96583706D01*
X86376879Y-96595398D01*
X86391421Y-96608579D01*
X86404602Y-96623121D01*
X86416294Y-96638886D01*
X86426384Y-96655721D01*
X86434776Y-96673463D01*
X86441388Y-96691943D01*
X86446157Y-96710982D01*
X86449037Y-96730397D01*
X86450000Y-96750000D01*
X86450000Y-97950000D01*
X86449037Y-97969603D01*
X86446157Y-97989018D01*
X86441388Y-98008057D01*
X86434776Y-98026537D01*
X86426384Y-98044279D01*
X86416294Y-98061114D01*
X86404602Y-98076879D01*
X86391421Y-98091421D01*
X86376879Y-98104602D01*
X86361114Y-98116294D01*
X86344279Y-98126384D01*
X86326537Y-98134776D01*
X86308057Y-98141388D01*
X86289018Y-98146157D01*
X86269603Y-98149037D01*
X86250000Y-98150000D01*
X85050000Y-98150000D01*
X85030397Y-98149037D01*
X85010982Y-98146157D01*
X84991943Y-98141388D01*
X84973463Y-98134776D01*
X84955721Y-98126384D01*
X84938886Y-98116294D01*
X84923121Y-98104602D01*
X84908579Y-98091421D01*
X84895398Y-98076879D01*
X84883706Y-98061114D01*
X84873616Y-98044279D01*
X84865224Y-98026537D01*
X84858612Y-98008057D01*
X84853843Y-97989018D01*
X84850963Y-97969603D01*
X84850000Y-97950000D01*
X84850000Y-96750000D01*
X84850963Y-96730397D01*
X84853843Y-96710982D01*
X84858612Y-96691943D01*
X84865224Y-96673463D01*
X84873616Y-96655721D01*
X84883706Y-96638886D01*
X84895398Y-96623121D01*
X84908579Y-96608579D01*
X84923121Y-96595398D01*
X84938886Y-96583706D01*
X84955721Y-96573616D01*
X84973463Y-96565224D01*
X84991943Y-96558612D01*
X85010982Y-96553843D01*
X85030397Y-96550963D01*
X85050000Y-96550000D01*
X86250000Y-96550000D01*
X86269603Y-96550963D01*
G37*
G04 #@! TD.AperFunction*
D11*
X85650000Y-94810000D03*
X85650000Y-92270000D03*
X85650000Y-89730000D03*
X85650000Y-87190000D03*
X85650000Y-84650000D03*
G04 #@! TA.AperFunction,ComponentPad*
D12*
G36*
X86269603Y-81310963D02*
G01*
X86289018Y-81313843D01*
X86308057Y-81318612D01*
X86326537Y-81325224D01*
X86344279Y-81333616D01*
X86361114Y-81343706D01*
X86376879Y-81355398D01*
X86391421Y-81368579D01*
X86404602Y-81383121D01*
X86416294Y-81398886D01*
X86426384Y-81415721D01*
X86434776Y-81433463D01*
X86441388Y-81451943D01*
X86446157Y-81470982D01*
X86449037Y-81490397D01*
X86450000Y-81510000D01*
X86450000Y-82710000D01*
X86449037Y-82729603D01*
X86446157Y-82749018D01*
X86441388Y-82768057D01*
X86434776Y-82786537D01*
X86426384Y-82804279D01*
X86416294Y-82821114D01*
X86404602Y-82836879D01*
X86391421Y-82851421D01*
X86376879Y-82864602D01*
X86361114Y-82876294D01*
X86344279Y-82886384D01*
X86326537Y-82894776D01*
X86308057Y-82901388D01*
X86289018Y-82906157D01*
X86269603Y-82909037D01*
X86250000Y-82910000D01*
X85050000Y-82910000D01*
X85030397Y-82909037D01*
X85010982Y-82906157D01*
X84991943Y-82901388D01*
X84973463Y-82894776D01*
X84955721Y-82886384D01*
X84938886Y-82876294D01*
X84923121Y-82864602D01*
X84908579Y-82851421D01*
X84895398Y-82836879D01*
X84883706Y-82821114D01*
X84873616Y-82804279D01*
X84865224Y-82786537D01*
X84858612Y-82768057D01*
X84853843Y-82749018D01*
X84850963Y-82729603D01*
X84850000Y-82710000D01*
X84850000Y-81510000D01*
X84850963Y-81490397D01*
X84853843Y-81470982D01*
X84858612Y-81451943D01*
X84865224Y-81433463D01*
X84873616Y-81415721D01*
X84883706Y-81398886D01*
X84895398Y-81383121D01*
X84908579Y-81368579D01*
X84923121Y-81355398D01*
X84938886Y-81343706D01*
X84955721Y-81333616D01*
X84973463Y-81325224D01*
X84991943Y-81318612D01*
X85010982Y-81313843D01*
X85030397Y-81310963D01*
X85050000Y-81310000D01*
X86250000Y-81310000D01*
X86269603Y-81310963D01*
G37*
G04 #@! TD.AperFunction*
D11*
X98350000Y-99890000D03*
G04 #@! TA.AperFunction,SMDPad,CuDef*
D12*
G36*
X98969603Y-96550963D02*
G01*
X98989018Y-96553843D01*
X99008057Y-96558612D01*
X99026537Y-96565224D01*
X99044279Y-96573616D01*
X99061114Y-96583706D01*
X99076879Y-96595398D01*
X99091421Y-96608579D01*
X99104602Y-96623121D01*
X99116294Y-96638886D01*
X99126384Y-96655721D01*
X99134776Y-96673463D01*
X99141388Y-96691943D01*
X99146157Y-96710982D01*
X99149037Y-96730397D01*
X99150000Y-96750000D01*
X99150000Y-97950000D01*
X99149037Y-97969603D01*
X99146157Y-97989018D01*
X99141388Y-98008057D01*
X99134776Y-98026537D01*
X99126384Y-98044279D01*
X99116294Y-98061114D01*
X99104602Y-98076879D01*
X99091421Y-98091421D01*
X99076879Y-98104602D01*
X99061114Y-98116294D01*
X99044279Y-98126384D01*
X99026537Y-98134776D01*
X99008057Y-98141388D01*
X98989018Y-98146157D01*
X98969603Y-98149037D01*
X98950000Y-98150000D01*
X97750000Y-98150000D01*
X97730397Y-98149037D01*
X97710982Y-98146157D01*
X97691943Y-98141388D01*
X97673463Y-98134776D01*
X97655721Y-98126384D01*
X97638886Y-98116294D01*
X97623121Y-98104602D01*
X97608579Y-98091421D01*
X97595398Y-98076879D01*
X97583706Y-98061114D01*
X97573616Y-98044279D01*
X97565224Y-98026537D01*
X97558612Y-98008057D01*
X97553843Y-97989018D01*
X97550963Y-97969603D01*
X97550000Y-97950000D01*
X97550000Y-96750000D01*
X97550963Y-96730397D01*
X97553843Y-96710982D01*
X97558612Y-96691943D01*
X97565224Y-96673463D01*
X97573616Y-96655721D01*
X97583706Y-96638886D01*
X97595398Y-96623121D01*
X97608579Y-96608579D01*
X97623121Y-96595398D01*
X97638886Y-96583706D01*
X97655721Y-96573616D01*
X97673463Y-96565224D01*
X97691943Y-96558612D01*
X97710982Y-96553843D01*
X97730397Y-96550963D01*
X97750000Y-96550000D01*
X98950000Y-96550000D01*
X98969603Y-96550963D01*
G37*
G04 #@! TD.AperFunction*
D11*
X98350000Y-94810000D03*
X98350000Y-92270000D03*
X98350000Y-89730000D03*
X98350000Y-87190000D03*
X98350000Y-84650000D03*
G04 #@! TA.AperFunction,ComponentPad*
D12*
G36*
X98969603Y-81310963D02*
G01*
X98989018Y-81313843D01*
X99008057Y-81318612D01*
X99026537Y-81325224D01*
X99044279Y-81333616D01*
X99061114Y-81343706D01*
X99076879Y-81355398D01*
X99091421Y-81368579D01*
X99104602Y-81383121D01*
X99116294Y-81398886D01*
X99126384Y-81415721D01*
X99134776Y-81433463D01*
X99141388Y-81451943D01*
X99146157Y-81470982D01*
X99149037Y-81490397D01*
X99150000Y-81510000D01*
X99150000Y-82710000D01*
X99149037Y-82729603D01*
X99146157Y-82749018D01*
X99141388Y-82768057D01*
X99134776Y-82786537D01*
X99126384Y-82804279D01*
X99116294Y-82821114D01*
X99104602Y-82836879D01*
X99091421Y-82851421D01*
X99076879Y-82864602D01*
X99061114Y-82876294D01*
X99044279Y-82886384D01*
X99026537Y-82894776D01*
X99008057Y-82901388D01*
X98989018Y-82906157D01*
X98969603Y-82909037D01*
X98950000Y-82910000D01*
X97750000Y-82910000D01*
X97730397Y-82909037D01*
X97710982Y-82906157D01*
X97691943Y-82901388D01*
X97673463Y-82894776D01*
X97655721Y-82886384D01*
X97638886Y-82876294D01*
X97623121Y-82864602D01*
X97608579Y-82851421D01*
X97595398Y-82836879D01*
X97583706Y-82821114D01*
X97573616Y-82804279D01*
X97565224Y-82786537D01*
X97558612Y-82768057D01*
X97553843Y-82749018D01*
X97550963Y-82729603D01*
X97550000Y-82710000D01*
X97550000Y-81510000D01*
X97550963Y-81490397D01*
X97553843Y-81470982D01*
X97558612Y-81451943D01*
X97565224Y-81433463D01*
X97573616Y-81415721D01*
X97583706Y-81398886D01*
X97595398Y-81383121D01*
X97608579Y-81368579D01*
X97623121Y-81355398D01*
X97638886Y-81343706D01*
X97655721Y-81333616D01*
X97673463Y-81325224D01*
X97691943Y-81318612D01*
X97710982Y-81313843D01*
X97730397Y-81310963D01*
X97750000Y-81310000D01*
X98950000Y-81310000D01*
X98969603Y-81310963D01*
G37*
G04 #@! TD.AperFunction*
D13*
X86700000Y-107490000D03*
D14*
X89100000Y-107490000D03*
X88397056Y-109187056D03*
X86700000Y-109890000D03*
X85002944Y-109187056D03*
X84300000Y-107490000D03*
X85002944Y-105792944D03*
X86700000Y-105090000D03*
X88397056Y-105792944D03*
G04 #@! TA.AperFunction,SMDPad,CuDef*
D12*
G36*
X93000000Y-87510000D02*
G01*
X93500000Y-86760000D01*
X94500000Y-86760000D01*
X94500000Y-88260000D01*
X93500000Y-88260000D01*
X93000000Y-87510000D01*
G37*
G04 #@! TD.AperFunction*
G04 #@! TA.AperFunction,Conductor*
G36*
X91300000Y-87510000D02*
G01*
X90800000Y-86760000D01*
X93200000Y-86760000D01*
X92700000Y-87510000D01*
X93200000Y-88260000D01*
X90800000Y-88260000D01*
X91300000Y-87510000D01*
G37*
G04 #@! TD.AperFunction*
G04 #@! TA.AperFunction,SMDPad,CuDef*
G36*
X91000000Y-87510000D02*
G01*
X90500000Y-88260000D01*
X89500000Y-88260000D01*
X89500000Y-86760000D01*
X90500000Y-86760000D01*
X91000000Y-87510000D01*
G37*
G04 #@! TD.AperFunction*
G04 #@! TA.AperFunction,SMDPad,CuDef*
G36*
X91000000Y-91320000D02*
G01*
X90500000Y-92070000D01*
X89500000Y-92070000D01*
X89500000Y-90570000D01*
X90500000Y-90570000D01*
X91000000Y-91320000D01*
G37*
G04 #@! TD.AperFunction*
G04 #@! TA.AperFunction,Conductor*
G36*
X91300000Y-91320000D02*
G01*
X90800000Y-90570000D01*
X93200000Y-90570000D01*
X92700000Y-91320000D01*
X93200000Y-92070000D01*
X90800000Y-92070000D01*
X91300000Y-91320000D01*
G37*
G04 #@! TD.AperFunction*
G04 #@! TA.AperFunction,SMDPad,CuDef*
G36*
X93000000Y-91320000D02*
G01*
X93500000Y-90570000D01*
X94500000Y-90570000D01*
X94500000Y-92070000D01*
X93500000Y-92070000D01*
X93000000Y-91320000D01*
G37*
G04 #@! TD.AperFunction*
G04 #@! TA.AperFunction,SMDPad,CuDef*
G36*
X93000000Y-95130000D02*
G01*
X93500000Y-94380000D01*
X94500000Y-94380000D01*
X94500000Y-95880000D01*
X93500000Y-95880000D01*
X93000000Y-95130000D01*
G37*
G04 #@! TD.AperFunction*
G04 #@! TA.AperFunction,Conductor*
G36*
X91300000Y-95130000D02*
G01*
X90800000Y-94380000D01*
X93200000Y-94380000D01*
X92700000Y-95130000D01*
X93200000Y-95880000D01*
X90800000Y-95880000D01*
X91300000Y-95130000D01*
G37*
G04 #@! TD.AperFunction*
G04 #@! TA.AperFunction,SMDPad,CuDef*
G36*
X91000000Y-95130000D02*
G01*
X90500000Y-95880000D01*
X89500000Y-95880000D01*
X89500000Y-94380000D01*
X90500000Y-94380000D01*
X91000000Y-95130000D01*
G37*
G04 #@! TD.AperFunction*
D15*
X95800000Y-97500000D03*
X90300000Y-97100000D03*
X88500000Y-88500000D03*
X88500000Y-90400000D03*
X90000000Y-91320000D03*
X95800000Y-91200000D03*
X95700000Y-88100000D03*
X97000000Y-94000000D03*
X95100000Y-95200000D03*
X91100000Y-100600000D03*
X90400000Y-100000000D03*
X84200000Y-94000000D03*
X92800000Y-96500000D03*
X92250000Y-99450000D03*
X88700000Y-97100000D03*
X87900000Y-92100000D03*
X90700000Y-89500000D03*
X92200000Y-100300000D03*
D16*
X95600000Y-97300000D02*
X95800000Y-97500000D01*
X90500000Y-97300000D02*
X95600000Y-97300000D01*
X90300000Y-97100000D02*
X90500000Y-97300000D01*
X90000000Y-87510000D02*
X90000000Y-83300000D01*
X88810000Y-82110000D02*
X85650000Y-82110000D01*
X90000000Y-83300000D02*
X88810000Y-82110000D01*
X90000000Y-91320000D02*
X89420000Y-91320000D01*
X88790000Y-87510000D02*
X90000000Y-87510000D01*
X88500000Y-87800000D02*
X88790000Y-87510000D01*
X88500000Y-88500000D02*
X88500000Y-87800000D01*
X89420000Y-91320000D02*
X88500000Y-90400000D01*
X89500000Y-95130000D02*
X88470000Y-94100000D01*
X90000000Y-95130000D02*
X89500000Y-95130000D01*
X88470000Y-94100000D02*
X87300000Y-94100000D01*
X87300000Y-94100000D02*
X86800000Y-93600000D01*
X85037522Y-93600000D02*
X84500000Y-93062478D01*
X86800000Y-93600000D02*
X85037522Y-93600000D01*
X84500000Y-91477522D02*
X84977522Y-91000000D01*
X84500000Y-93062478D02*
X84500000Y-91477522D01*
X87900000Y-91000000D02*
X88500000Y-90400000D01*
X84977522Y-91000000D02*
X87900000Y-91000000D01*
X94000000Y-87510000D02*
X95110000Y-87510000D01*
X95680000Y-91320000D02*
X94000000Y-91320000D01*
X95800000Y-91200000D02*
X95680000Y-91320000D01*
X95110000Y-87510000D02*
X95700000Y-88100000D01*
X96100000Y-94000000D02*
X97000000Y-94000000D01*
X94000000Y-95130000D02*
X94970000Y-95130000D01*
X95100000Y-95200000D02*
X96100000Y-94000000D01*
X94970000Y-95130000D02*
X95100000Y-95200000D01*
X99150000Y-87190000D02*
X98350000Y-87190000D01*
X99700000Y-87740000D02*
X99150000Y-87190000D01*
X99700000Y-91700000D02*
X99700000Y-87740000D01*
X99800000Y-91800000D02*
X99700000Y-91700000D01*
X99800000Y-97842478D02*
X99800000Y-91800000D01*
X98942478Y-98700000D02*
X99800000Y-97842478D01*
X96900000Y-98700000D02*
X98942478Y-98700000D01*
X94500001Y-101099999D02*
X96900000Y-98700000D01*
X91100000Y-100600000D02*
X91699999Y-101099999D01*
X91699999Y-101099999D02*
X94500001Y-101099999D01*
X90400000Y-100000000D02*
X87100000Y-96700000D01*
X87100000Y-96700000D02*
X86500000Y-96100000D01*
X84200000Y-95302478D02*
X84200000Y-94000000D01*
X84997522Y-96100000D02*
X84200000Y-95302478D01*
X86500000Y-96100000D02*
X84997522Y-96100000D01*
X92000000Y-95130000D02*
X92000000Y-96200000D01*
X97090000Y-94810000D02*
X98350000Y-94810000D01*
X95400000Y-96500000D02*
X97090000Y-94810000D01*
X92300000Y-96500000D02*
X92800000Y-96500000D01*
X92800000Y-96500000D02*
X95400000Y-96500000D01*
X92000000Y-96200000D02*
X92300000Y-96500000D01*
X85650000Y-94810000D02*
X86910000Y-94810000D01*
X91800000Y-96400000D02*
X92000000Y-96200000D01*
X88500000Y-96400000D02*
X91800000Y-96400000D01*
X86910000Y-94810000D02*
X88500000Y-96400000D01*
X98350000Y-92270000D02*
X96530000Y-92270000D01*
X92000000Y-92700000D02*
X92000000Y-91320000D01*
X92500000Y-93200000D02*
X92000000Y-92700000D01*
X95600000Y-93200000D02*
X92500000Y-93200000D01*
X96530000Y-92270000D02*
X95600000Y-93200000D01*
X85650000Y-92270000D02*
X86670000Y-92270000D01*
X91400000Y-93300000D02*
X92000000Y-92700000D01*
X87700000Y-93300000D02*
X91400000Y-93300000D01*
X91825736Y-99450000D02*
X90475736Y-98100000D01*
X92250000Y-99450000D02*
X91825736Y-99450000D01*
X90475736Y-98100000D02*
X89700000Y-98100000D01*
X89700000Y-98100000D02*
X88700000Y-97100000D01*
X87900000Y-92100000D02*
X87200000Y-92800000D01*
X87200000Y-92800000D02*
X87700000Y-93300000D01*
X86670000Y-92270000D02*
X87200000Y-92800000D01*
X92000000Y-87510000D02*
X92000000Y-88900000D01*
X96730000Y-89730000D02*
X98350000Y-89730000D01*
X96500000Y-89500000D02*
X96730000Y-89730000D01*
X92600000Y-89500000D02*
X96500000Y-89500000D01*
X92000000Y-88900000D02*
X92600000Y-89500000D01*
X85650000Y-89730000D02*
X87870000Y-89730000D01*
X91400000Y-89500000D02*
X92000000Y-88900000D01*
X87870000Y-89730000D02*
X88100000Y-89500000D01*
X90700000Y-89500000D02*
X91400000Y-89500000D01*
X88100000Y-89500000D02*
X90700000Y-89500000D01*
X94200000Y-100300000D02*
X92200000Y-100300000D01*
M02*
