M48
; DRILL file {KiCad (5.1.5-0-10_14)} date Monday, 13 April 2020 at 12:38:20
; FORMAT={-:-/ absolute / metric / decimal}
; #@! TF.CreationDate,2020-04-13T12:38:20+03:00
; #@! TF.GenerationSoftware,Kicad,Pcbnew,(5.1.5-0-10_14)
; #@! TF.FileFunction,Plated,1,2,PTH
FMAT,2
METRIC
T1C0.300
T2C0.400
T3C1.000
T4C3.200
%
G90
G05
T1
X84.2Y-94.0
X87.9Y-92.1
X88.5Y-88.5
X88.5Y-90.4
X88.7Y-97.1
X90.0Y-91.32
X90.3Y-97.1
X90.4Y-100.0
X90.7Y-89.5
X91.1Y-100.6
X92.2Y-100.3
X92.25Y-99.45
X92.8Y-96.5
X95.1Y-95.2
X95.7Y-88.1
X95.8Y-91.2
X95.8Y-97.5
X97.0Y-94.0
T2
X84.3Y-107.49
X85.003Y-105.793
X85.003Y-109.187
X86.7Y-105.09
X86.7Y-109.89
X88.397Y-105.793
X88.397Y-109.187
X89.1Y-107.49
T3
X98.35Y-82.11
X98.35Y-84.65
X98.35Y-87.19
X98.35Y-89.73
X98.35Y-92.27
X98.35Y-94.81
X98.35Y-99.89
X85.65Y-82.11
X85.65Y-84.65
X85.65Y-87.19
X85.65Y-89.73
X85.65Y-92.27
X85.65Y-94.81
X85.65Y-99.89
T4
X86.7Y-107.49
T0
M30
